<svg xmlns="http://www.w3.org/2000/svg">
<g><rect x="135" y="10" width="25" height="25" fill="white" stroke-width="2" stroke="black"></rect><text x="136.25" y="15.0" font-family="Times New Roman" fill="black" font-size="5.0">18</text></g>
<g><rect x="785" y="10" width="25" height="25" fill="white" stroke-width="2" stroke="black"></rect><text x="786.25" y="15.0" font-family="Times New Roman" fill="black" font-size="5.0">15</text></g>
<rect x="135" y="35" width="25" height="25" fill="white" stroke-width="2" stroke="black"></rect>
<rect x="785" y="35" width="25" height="25" fill="white" stroke-width="2" stroke="black"></rect>
<g><rect x="835" y="35" width="25" height="25" fill="white" stroke-width="2" stroke="black"></rect><text x="836.25" y="40.0" font-family="Times New Roman" fill="black" font-size="5.0">16</text></g>
<g><rect x="1085" y="35" width="25" height="25" fill="white" stroke-width="2" stroke="black"></rect><text x="1086.25" y="40.0" font-family="Times New Roman" fill="black" font-size="5.0">27</text></g>
<rect x="135" y="60" width="25" height="25" fill="white" stroke-width="2" stroke="black"></rect>
<g><rect x="710" y="60" width="25" height="25" fill="white" stroke-width="2" stroke="black"></rect><text x="711.25" y="65.0" font-family="Times New Roman" fill="black" font-size="5.0">22</text></g>
<g><rect x="735" y="60" width="25" height="25" fill="white" stroke-width="2" stroke="black"></rect><text x="736.25" y="65.0" font-family="Times New Roman" fill="black" font-size="5.0">21</text></g>
<rect x="760" y="60" width="25" height="25" fill="white" stroke-width="2" stroke="black"></rect>
<rect x="785" y="60" width="25" height="25" fill="white" stroke-width="2" stroke="black"></rect>
<rect x="810" y="60" width="25" height="25" fill="white" stroke-width="2" stroke="black"></rect>
<rect x="835" y="60" width="25" height="25" fill="white" stroke-width="2" stroke="black"></rect>
<rect x="860" y="60" width="25" height="25" fill="white" stroke-width="2" stroke="black"></rect>
<rect x="885" y="60" width="25" height="25" fill="white" stroke-width="2" stroke="black"></rect>
<g><rect x="1010" y="60" width="25" height="25" fill="white" stroke-width="2" stroke="black"></rect><text x="1011.25" y="65.0" font-family="Times New Roman" fill="black" font-size="5.0">24</text></g>
<rect x="1085" y="60" width="25" height="25" fill="white" stroke-width="2" stroke="black"></rect>
<g><rect x="35" y="85" width="25" height="25" fill="white" stroke-width="2" stroke="black"></rect><text x="36.25" y="90.0" font-family="Times New Roman" fill="black" font-size="5.0">26</text></g>
<rect x="135" y="85" width="25" height="25" fill="white" stroke-width="2" stroke="black"></rect>
<rect x="735" y="85" width="25" height="25" fill="white" stroke-width="2" stroke="black"></rect>
<rect x="785" y="85" width="25" height="25" fill="white" stroke-width="2" stroke="black"></rect>
<rect x="835" y="85" width="25" height="25" fill="white" stroke-width="2" stroke="black"></rect>
<g><rect x="985" y="85" width="25" height="25" fill="white" stroke-width="2" stroke="black"></rect><text x="986.25" y="90.0" font-family="Times New Roman" fill="black" font-size="5.0">19</text></g>
<rect x="1010" y="85" width="25" height="25" fill="white" stroke-width="2" stroke="black"></rect>
<rect x="1035" y="85" width="25" height="25" fill="white" stroke-width="2" stroke="black"></rect>
<rect x="1060" y="85" width="25" height="25" fill="white" stroke-width="2" stroke="black"></rect>
<rect x="1085" y="85" width="25" height="25" fill="white" stroke-width="2" stroke="black"></rect>
<rect x="1110" y="85" width="25" height="25" fill="white" stroke-width="2" stroke="black"></rect>
<g><rect x="10" y="110" width="25" height="25" fill="white" stroke-width="2" stroke="black"></rect><text x="11.25" y="115.0" font-family="Times New Roman" fill="black" font-size="5.0">29</text></g>
<rect x="35" y="110" width="25" height="25" fill="white" stroke-width="2" stroke="black"></rect>
<rect x="60" y="110" width="25" height="25" fill="white" stroke-width="2" stroke="black"></rect>
<rect x="85" y="110" width="25" height="25" fill="white" stroke-width="2" stroke="black"></rect>
<rect x="110" y="110" width="25" height="25" fill="white" stroke-width="2" stroke="black"></rect>
<rect x="135" y="110" width="25" height="25" fill="white" stroke-width="2" stroke="black"></rect>
<rect x="160" y="110" width="25" height="25" fill="white" stroke-width="2" stroke="black"></rect>
<rect x="185" y="110" width="25" height="25" fill="white" stroke-width="2" stroke="black"></rect>
<rect x="210" y="110" width="25" height="25" fill="white" stroke-width="2" stroke="black"></rect>
<g><rect x="485" y="110" width="25" height="25" fill="white" stroke-width="2" stroke="black"></rect><text x="486.25" y="115.0" font-family="Times New Roman" fill="black" font-size="5.0">12</text></g>
<g><rect x="510" y="110" width="25" height="25" fill="white" stroke-width="2" stroke="black"></rect><text x="511.25" y="115.0" font-family="Times New Roman" fill="black" font-size="5.0">10</text></g>
<rect x="535" y="110" width="25" height="25" fill="white" stroke-width="2" stroke="black"></rect>
<rect x="560" y="110" width="25" height="25" fill="white" stroke-width="2" stroke="black"></rect>
<g><rect x="585" y="110" width="25" height="25" fill="white" stroke-width="2" stroke="black"></rect><text x="586.25" y="115.0" font-family="Times New Roman" fill="black" font-size="5.0">20</text></g>
<rect x="610" y="110" width="25" height="25" fill="white" stroke-width="2" stroke="black"></rect>
<rect x="635" y="110" width="25" height="25" fill="white" stroke-width="2" stroke="black"></rect>
<rect x="660" y="110" width="25" height="25" fill="white" stroke-width="2" stroke="black"></rect>
<rect x="735" y="110" width="25" height="25" fill="white" stroke-width="2" stroke="black"></rect>
<rect x="785" y="110" width="25" height="25" fill="white" stroke-width="2" stroke="black"></rect>
<rect x="835" y="110" width="25" height="25" fill="white" stroke-width="2" stroke="black"></rect>
<rect x="1010" y="110" width="25" height="25" fill="white" stroke-width="2" stroke="black"></rect>
<rect x="1085" y="110" width="25" height="25" fill="white" stroke-width="2" stroke="black"></rect>
<rect x="35" y="135" width="25" height="25" fill="white" stroke-width="2" stroke="black"></rect>
<rect x="135" y="135" width="25" height="25" fill="white" stroke-width="2" stroke="black"></rect>
<g><rect x="235" y="135" width="25" height="25" fill="white" stroke-width="2" stroke="black"></rect><text x="236.25" y="140.0" font-family="Times New Roman" fill="black" font-size="5.0">7</text></g>
<rect x="510" y="135" width="25" height="25" fill="white" stroke-width="2" stroke="black"></rect>
<rect x="585" y="135" width="25" height="25" fill="white" stroke-width="2" stroke="black"></rect>
<rect x="735" y="135" width="25" height="25" fill="white" stroke-width="2" stroke="black"></rect>
<rect x="785" y="135" width="25" height="25" fill="white" stroke-width="2" stroke="black"></rect>
<g><rect x="835" y="135" width="25" height="25" fill="white" stroke-width="2" stroke="black"></rect><text x="836.25" y="140.0" font-family="Times New Roman" fill="black" font-size="5.0">23</text></g>
<rect x="860" y="135" width="25" height="25" fill="white" stroke-width="2" stroke="black"></rect>
<rect x="885" y="135" width="25" height="25" fill="white" stroke-width="2" stroke="black"></rect>
<rect x="910" y="135" width="25" height="25" fill="white" stroke-width="2" stroke="black"></rect>
<rect x="935" y="135" width="25" height="25" fill="white" stroke-width="2" stroke="black"></rect>
<rect x="960" y="135" width="25" height="25" fill="white" stroke-width="2" stroke="black"></rect>
<rect x="985" y="135" width="25" height="25" fill="white" stroke-width="2" stroke="black"></rect>
<rect x="1010" y="135" width="25" height="25" fill="white" stroke-width="2" stroke="black"></rect>
<rect x="1085" y="135" width="25" height="25" fill="white" stroke-width="2" stroke="black"></rect>
<g><rect x="1160" y="135" width="25" height="25" fill="white" stroke-width="2" stroke="black"></rect><text x="1161.25" y="140.0" font-family="Times New Roman" fill="black" font-size="5.0">13</text></g>
<rect x="35" y="160" width="25" height="25" fill="white" stroke-width="2" stroke="black"></rect>
<rect x="135" y="160" width="25" height="25" fill="white" stroke-width="2" stroke="black"></rect>
<g><rect x="235" y="160" width="25" height="25" fill="white" stroke-width="2" stroke="black"></rect><text x="236.25" y="165.0" font-family="Times New Roman" fill="black" font-size="5.0">8</text></g>
<rect x="260" y="160" width="25" height="25" fill="white" stroke-width="2" stroke="black"></rect>
<rect x="285" y="160" width="25" height="25" fill="white" stroke-width="2" stroke="black"></rect>
<rect x="310" y="160" width="25" height="25" fill="white" stroke-width="2" stroke="black"></rect>
<rect x="335" y="160" width="25" height="25" fill="white" stroke-width="2" stroke="black"></rect>
<g><rect x="360" y="160" width="25" height="25" fill="white" stroke-width="2" stroke="black"></rect><text x="361.25" y="165.0" font-family="Times New Roman" fill="black" font-size="5.0">5</text></g>
<rect x="385" y="160" width="25" height="25" fill="white" stroke-width="2" stroke="black"></rect>
<rect x="410" y="160" width="25" height="25" fill="white" stroke-width="2" stroke="black"></rect>
<g><rect x="460" y="160" width="25" height="25" fill="white" stroke-width="2" stroke="black"></rect><text x="461.25" y="165.0" font-family="Times New Roman" fill="black" font-size="5.0">4</text></g>
<rect x="510" y="160" width="25" height="25" fill="white" stroke-width="2" stroke="black"></rect>
<rect x="585" y="160" width="25" height="25" fill="white" stroke-width="2" stroke="black"></rect>
<g><rect x="685" y="160" width="25" height="25" fill="white" stroke-width="2" stroke="black"></rect><text x="686.25" y="165.0" font-family="Times New Roman" fill="black" font-size="5.0">25</text></g>
<rect x="710" y="160" width="25" height="25" fill="white" stroke-width="2" stroke="black"></rect>
<rect x="735" y="160" width="25" height="25" fill="white" stroke-width="2" stroke="black"></rect>
<rect x="760" y="160" width="25" height="25" fill="white" stroke-width="2" stroke="black"></rect>
<rect x="785" y="160" width="25" height="25" fill="white" stroke-width="2" stroke="black"></rect>
<rect x="835" y="160" width="25" height="25" fill="white" stroke-width="2" stroke="black"></rect>
<rect x="1010" y="160" width="25" height="25" fill="white" stroke-width="2" stroke="black"></rect>
<g><rect x="1085" y="160" width="25" height="25" fill="white" stroke-width="2" stroke="black"></rect><text x="1086.25" y="165.0" font-family="Times New Roman" fill="black" font-size="5.0">28</text></g>
<rect x="1110" y="160" width="25" height="25" fill="white" stroke-width="2" stroke="black"></rect>
<rect x="1135" y="160" width="25" height="25" fill="white" stroke-width="2" stroke="black"></rect>
<rect x="1160" y="160" width="25" height="25" fill="white" stroke-width="2" stroke="black"></rect>
<rect x="1185" y="160" width="25" height="25" fill="white" stroke-width="2" stroke="black"></rect>
<rect x="1210" y="160" width="25" height="25" fill="white" stroke-width="2" stroke="black"></rect>
<rect x="1235" y="160" width="25" height="25" fill="white" stroke-width="2" stroke="black"></rect>
<rect x="1260" y="160" width="25" height="25" fill="white" stroke-width="2" stroke="black"></rect>
<rect x="35" y="185" width="25" height="25" fill="white" stroke-width="2" stroke="black"></rect>
<rect x="135" y="185" width="25" height="25" fill="white" stroke-width="2" stroke="black"></rect>
<rect x="235" y="185" width="25" height="25" fill="white" stroke-width="2" stroke="black"></rect>
<rect x="360" y="185" width="25" height="25" fill="white" stroke-width="2" stroke="black"></rect>
<g><rect x="435" y="185" width="25" height="25" fill="white" stroke-width="2" stroke="black"></rect><text x="436.25" y="190.0" font-family="Times New Roman" fill="black" font-size="5.0">6</text></g>
<rect x="460" y="185" width="25" height="25" fill="white" stroke-width="2" stroke="black"></rect>
<rect x="485" y="185" width="25" height="25" fill="white" stroke-width="2" stroke="black"></rect>
<rect x="510" y="185" width="25" height="25" fill="white" stroke-width="2" stroke="black"></rect>
<rect x="585" y="185" width="25" height="25" fill="white" stroke-width="2" stroke="black"></rect>
<rect x="735" y="185" width="25" height="25" fill="white" stroke-width="2" stroke="black"></rect>
<rect x="835" y="185" width="25" height="25" fill="white" stroke-width="2" stroke="black"></rect>
<rect x="1010" y="185" width="25" height="25" fill="white" stroke-width="2" stroke="black"></rect>
<rect x="1085" y="185" width="25" height="25" fill="white" stroke-width="2" stroke="black"></rect>
<rect x="1160" y="185" width="25" height="25" fill="white" stroke-width="2" stroke="black"></rect>
<rect x="35" y="210" width="25" height="25" fill="white" stroke-width="2" stroke="black"></rect>
<g><rect x="85" y="210" width="25" height="25" fill="white" stroke-width="2" stroke="black"></rect><text x="86.25" y="215.0" font-family="Times New Roman" fill="black" font-size="5.0">17</text></g>
<rect x="110" y="210" width="25" height="25" fill="white" stroke-width="2" stroke="black"></rect>
<rect x="135" y="210" width="25" height="25" fill="white" stroke-width="2" stroke="black"></rect>
<rect x="160" y="210" width="25" height="25" fill="white" stroke-width="2" stroke="black"></rect>
<rect x="185" y="210" width="25" height="25" fill="white" stroke-width="2" stroke="black"></rect>
<rect x="210" y="210" width="25" height="25" fill="white" stroke-width="2" stroke="black"></rect>
<rect x="235" y="210" width="25" height="25" fill="white" stroke-width="2" stroke="black"></rect>
<rect x="260" y="210" width="25" height="25" fill="white" stroke-width="2" stroke="black"></rect>
<rect x="285" y="210" width="25" height="25" fill="white" stroke-width="2" stroke="black"></rect>
<rect x="360" y="210" width="25" height="25" fill="white" stroke-width="2" stroke="black"></rect>
<rect x="460" y="210" width="25" height="25" fill="white" stroke-width="2" stroke="black"></rect>
<g><rect x="585" y="210" width="25" height="25" fill="white" stroke-width="2" stroke="black"></rect><text x="586.25" y="215.0" font-family="Times New Roman" fill="black" font-size="5.0">14</text></g>
<rect x="610" y="210" width="25" height="25" fill="white" stroke-width="2" stroke="black"></rect>
<rect x="635" y="210" width="25" height="25" fill="white" stroke-width="2" stroke="black"></rect>
<rect x="660" y="210" width="25" height="25" fill="white" stroke-width="2" stroke="black"></rect>
<rect x="685" y="210" width="25" height="25" fill="white" stroke-width="2" stroke="black"></rect>
<rect x="710" y="210" width="25" height="25" fill="white" stroke-width="2" stroke="black"></rect>
<rect x="735" y="210" width="25" height="25" fill="white" stroke-width="2" stroke="black"></rect>
<rect x="1085" y="210" width="25" height="25" fill="white" stroke-width="2" stroke="black"></rect>
<rect x="1160" y="210" width="25" height="25" fill="white" stroke-width="2" stroke="black"></rect>
<rect x="35" y="235" width="25" height="25" fill="white" stroke-width="2" stroke="black"></rect>
<rect x="135" y="235" width="25" height="25" fill="white" stroke-width="2" stroke="black"></rect>
<rect x="235" y="235" width="25" height="25" fill="white" stroke-width="2" stroke="black"></rect>
<rect x="360" y="235" width="25" height="25" fill="white" stroke-width="2" stroke="black"></rect>
<rect x="460" y="235" width="25" height="25" fill="white" stroke-width="2" stroke="black"></rect>
<rect x="585" y="235" width="25" height="25" fill="white" stroke-width="2" stroke="black"></rect>
<rect x="1160" y="235" width="25" height="25" fill="white" stroke-width="2" stroke="black"></rect>
<rect x="35" y="260" width="25" height="25" fill="white" stroke-width="2" stroke="black"></rect>
<rect x="135" y="260" width="25" height="25" fill="white" stroke-width="2" stroke="black"></rect>
<rect x="235" y="260" width="25" height="25" fill="white" stroke-width="2" stroke="black"></rect>
<g><rect x="335" y="260" width="25" height="25" fill="white" stroke-width="2" stroke="black"></rect><text x="336.25" y="265.0" font-family="Times New Roman" fill="black" font-size="5.0">1</text></g>
<rect x="360" y="260" width="25" height="25" fill="white" stroke-width="2" stroke="black"></rect>
<rect x="385" y="260" width="25" height="25" fill="white" stroke-width="2" stroke="black"></rect>
<g><rect x="410" y="260" width="25" height="25" fill="white" stroke-width="2" stroke="black"></rect><text x="411.25" y="265.0" font-family="Times New Roman" fill="black" font-size="5.0">2</text></g>
<rect x="435" y="260" width="25" height="25" fill="white" stroke-width="2" stroke="black"></rect>
<rect x="460" y="260" width="25" height="25" fill="white" stroke-width="2" stroke="black"></rect>
<rect x="485" y="260" width="25" height="25" fill="white" stroke-width="2" stroke="black"></rect>
<rect x="510" y="260" width="25" height="25" fill="white" stroke-width="2" stroke="black"></rect>
<rect x="535" y="260" width="25" height="25" fill="white" stroke-width="2" stroke="black"></rect>
<rect x="585" y="260" width="25" height="25" fill="white" stroke-width="2" stroke="black"></rect>
<rect x="235" y="285" width="25" height="25" fill="white" stroke-width="2" stroke="black"></rect>
<rect x="360" y="285" width="25" height="25" fill="white" stroke-width="2" stroke="black"></rect>
<rect x="410" y="285" width="25" height="25" fill="white" stroke-width="2" stroke="black"></rect>
<rect x="460" y="285" width="25" height="25" fill="white" stroke-width="2" stroke="black"></rect>
<rect x="585" y="285" width="25" height="25" fill="white" stroke-width="2" stroke="black"></rect>
<rect x="235" y="310" width="25" height="25" fill="white" stroke-width="2" stroke="black"></rect>
<g><rect x="285" y="310" width="25" height="25" fill="white" stroke-width="2" stroke="black"></rect><text x="286.25" y="315.0" font-family="Times New Roman" fill="black" font-size="5.0">11</text></g>
<rect x="360" y="310" width="25" height="25" fill="white" stroke-width="2" stroke="black"></rect>
<g><rect x="410" y="310" width="25" height="25" fill="white" stroke-width="2" stroke="black"></rect><text x="411.25" y="315.0" font-family="Times New Roman" fill="black" font-size="5.0">3</text></g>
<rect x="435" y="310" width="25" height="25" fill="white" stroke-width="2" stroke="black"></rect>
<rect x="460" y="310" width="25" height="25" fill="white" stroke-width="2" stroke="black"></rect>
<rect x="485" y="310" width="25" height="25" fill="white" stroke-width="2" stroke="black"></rect>
<rect x="510" y="310" width="25" height="25" fill="white" stroke-width="2" stroke="black"></rect>
<rect x="535" y="310" width="25" height="25" fill="white" stroke-width="2" stroke="black"></rect>
<rect x="585" y="310" width="25" height="25" fill="white" stroke-width="2" stroke="black"></rect>
<g><rect x="60" y="335" width="25" height="25" fill="white" stroke-width="2" stroke="black"></rect><text x="61.25" y="340.0" font-family="Times New Roman" fill="black" font-size="5.0">9</text></g>
<rect x="85" y="335" width="25" height="25" fill="white" stroke-width="2" stroke="black"></rect>
<rect x="110" y="335" width="25" height="25" fill="white" stroke-width="2" stroke="black"></rect>
<rect x="135" y="335" width="25" height="25" fill="white" stroke-width="2" stroke="black"></rect>
<rect x="160" y="335" width="25" height="25" fill="white" stroke-width="2" stroke="black"></rect>
<rect x="185" y="335" width="25" height="25" fill="white" stroke-width="2" stroke="black"></rect>
<rect x="210" y="335" width="25" height="25" fill="white" stroke-width="2" stroke="black"></rect>
<rect x="235" y="335" width="25" height="25" fill="white" stroke-width="2" stroke="black"></rect>
<rect x="260" y="335" width="25" height="25" fill="white" stroke-width="2" stroke="black"></rect>
<rect x="285" y="335" width="25" height="25" fill="white" stroke-width="2" stroke="black"></rect>
<rect x="360" y="335" width="25" height="25" fill="white" stroke-width="2" stroke="black"></rect>
<rect x="410" y="335" width="25" height="25" fill="white" stroke-width="2" stroke="black"></rect>
<rect x="460" y="335" width="25" height="25" fill="white" stroke-width="2" stroke="black"></rect>
<rect x="585" y="335" width="25" height="25" fill="white" stroke-width="2" stroke="black"></rect>
<rect x="60" y="360" width="25" height="25" fill="white" stroke-width="2" stroke="black"></rect>
<rect x="235" y="360" width="25" height="25" fill="white" stroke-width="2" stroke="black"></rect>
<rect x="285" y="360" width="25" height="25" fill="white" stroke-width="2" stroke="black"></rect>
<rect x="360" y="360" width="25" height="25" fill="white" stroke-width="2" stroke="black"></rect>
<rect x="410" y="360" width="25" height="25" fill="white" stroke-width="2" stroke="black"></rect>
<rect x="60" y="385" width="25" height="25" fill="white" stroke-width="2" stroke="black"></rect>
<rect x="285" y="385" width="25" height="25" fill="white" stroke-width="2" stroke="black"></rect>
<rect x="360" y="385" width="25" height="25" fill="white" stroke-width="2" stroke="black"></rect>
<rect x="410" y="385" width="25" height="25" fill="white" stroke-width="2" stroke="black"></rect>
<rect x="60" y="410" width="25" height="25" fill="white" stroke-width="2" stroke="black"></rect>
<rect x="285" y="410" width="25" height="25" fill="white" stroke-width="2" stroke="black"></rect>
<rect x="360" y="410" width="25" height="25" fill="white" stroke-width="2" stroke="black"></rect>
<rect x="410" y="410" width="25" height="25" fill="white" stroke-width="2" stroke="black"></rect>
<rect x="60" y="435" width="25" height="25" fill="white" stroke-width="2" stroke="black"></rect>
<rect x="285" y="435" width="25" height="25" fill="white" stroke-width="2" stroke="black"></rect>
<rect x="60" y="460" width="25" height="25" fill="white" stroke-width="2" stroke="black"></rect>
<rect x="285" y="460" width="25" height="25" fill="white" stroke-width="2" stroke="black"></rect>
<rect x="60" y="485" width="25" height="25" fill="white" stroke-width="2" stroke="black"></rect>
<rect x="60" y="510" width="25" height="25" fill="white" stroke-width="2" stroke="black"></rect>
</svg>