<svg xmlns="http://www.w3.org/2000/svg">
<g><rect x="435" y="10" width="25" height="25" fill="white" stroke-width="1" stroke="black"></rect><text x="436.25" y="15.0" font-family="Times New Roman" fill="black" font-size="5.0">8</text></g>
<g><rect x="10" y="35" width="25" height="25" fill="white" stroke-width="1" stroke="black"></rect><text x="11.25" y="40.0" font-family="Times New Roman" fill="black" font-size="5.0">26</text></g>
<g><rect x="185" y="35" width="25" height="25" fill="white" stroke-width="1" stroke="black"></rect><text x="186.25" y="40.0" font-family="Times New Roman" fill="black" font-size="5.0">20</text></g>
<g><rect x="285" y="35" width="25" height="25" fill="white" stroke-width="1" stroke="black"></rect><text x="286.25" y="40.0" font-family="Times New Roman" fill="black" font-size="5.0">2</text></g>
<g><rect x="360" y="35" width="25" height="25" fill="white" stroke-width="1" stroke="black"></rect><text x="361.25" y="40.0" font-family="Times New Roman" fill="black" font-size="5.0">5</text></g>
<rect x="385" y="35" width="25" height="25" fill="white" stroke-width="1" stroke="black"></rect>
<rect x="410" y="35" width="25" height="25" fill="white" stroke-width="1" stroke="black"></rect>
<rect x="435" y="35" width="25" height="25" fill="white" stroke-width="1" stroke="black"></rect>
<g><rect x="510" y="35" width="25" height="25" fill="white" stroke-width="1" stroke="black"></rect><text x="511.25" y="40.0" font-family="Times New Roman" fill="black" font-size="5.0">10</text></g>
<rect x="10" y="60" width="25" height="25" fill="white" stroke-width="1" stroke="black"></rect>
<g><rect x="110" y="60" width="25" height="25" fill="white" stroke-width="1" stroke="black"></rect><text x="111.25" y="65.0" font-family="Times New Roman" fill="black" font-size="5.0">4</text></g>
<rect x="185" y="60" width="25" height="25" fill="white" stroke-width="1" stroke="black"></rect>
<rect x="285" y="60" width="25" height="25" fill="white" stroke-width="1" stroke="black"></rect>
<rect x="360" y="60" width="25" height="25" fill="white" stroke-width="1" stroke="black"></rect>
<rect x="435" y="60" width="25" height="25" fill="white" stroke-width="1" stroke="black"></rect>
<rect x="510" y="60" width="25" height="25" fill="white" stroke-width="1" stroke="black"></rect>
<rect x="10" y="85" width="25" height="25" fill="white" stroke-width="1" stroke="black"></rect>
<rect x="110" y="85" width="25" height="25" fill="white" stroke-width="1" stroke="black"></rect>
<rect x="185" y="85" width="25" height="25" fill="white" stroke-width="1" stroke="black"></rect>
<rect x="285" y="85" width="25" height="25" fill="white" stroke-width="1" stroke="black"></rect>
<rect x="360" y="85" width="25" height="25" fill="white" stroke-width="1" stroke="black"></rect>
<g><rect x="410" y="85" width="25" height="25" fill="white" stroke-width="1" stroke="black"></rect><text x="411.25" y="90.0" font-family="Times New Roman" fill="black" font-size="5.0">9</text></g>
<rect x="435" y="85" width="25" height="25" fill="white" stroke-width="1" stroke="black"></rect>
<rect x="460" y="85" width="25" height="25" fill="white" stroke-width="1" stroke="black"></rect>
<rect x="485" y="85" width="25" height="25" fill="white" stroke-width="1" stroke="black"></rect>
<rect x="510" y="85" width="25" height="25" fill="white" stroke-width="1" stroke="black"></rect>
<rect x="535" y="85" width="25" height="25" fill="white" stroke-width="1" stroke="black"></rect>
<rect x="560" y="85" width="25" height="25" fill="white" stroke-width="1" stroke="black"></rect>
<rect x="10" y="110" width="25" height="25" fill="white" stroke-width="1" stroke="black"></rect>
<g><rect x="60" y="110" width="25" height="25" fill="white" stroke-width="1" stroke="black"></rect><text x="61.25" y="115.0" font-family="Times New Roman" fill="black" font-size="5.0">3</text></g>
<rect x="85" y="110" width="25" height="25" fill="white" stroke-width="1" stroke="black"></rect>
<rect x="110" y="110" width="25" height="25" fill="white" stroke-width="1" stroke="black"></rect>
<rect x="135" y="110" width="25" height="25" fill="white" stroke-width="1" stroke="black"></rect>
<rect x="160" y="110" width="25" height="25" fill="white" stroke-width="1" stroke="black"></rect>
<rect x="185" y="110" width="25" height="25" fill="white" stroke-width="1" stroke="black"></rect>
<rect x="210" y="110" width="25" height="25" fill="white" stroke-width="1" stroke="black"></rect>
<rect x="235" y="110" width="25" height="25" fill="white" stroke-width="1" stroke="black"></rect>
<rect x="260" y="110" width="25" height="25" fill="white" stroke-width="1" stroke="black"></rect>
<rect x="285" y="110" width="25" height="25" fill="white" stroke-width="1" stroke="black"></rect>
<rect x="310" y="110" width="25" height="25" fill="white" stroke-width="1" stroke="black"></rect>
<rect x="360" y="110" width="25" height="25" fill="white" stroke-width="1" stroke="black"></rect>
<rect x="435" y="110" width="25" height="25" fill="white" stroke-width="1" stroke="black"></rect>
<rect x="510" y="110" width="25" height="25" fill="white" stroke-width="1" stroke="black"></rect>
<rect x="10" y="135" width="25" height="25" fill="white" stroke-width="1" stroke="black"></rect>
<rect x="110" y="135" width="25" height="25" fill="white" stroke-width="1" stroke="black"></rect>
<rect x="185" y="135" width="25" height="25" fill="white" stroke-width="1" stroke="black"></rect>
<rect x="285" y="135" width="25" height="25" fill="white" stroke-width="1" stroke="black"></rect>
<rect x="360" y="135" width="25" height="25" fill="white" stroke-width="1" stroke="black"></rect>
<rect x="435" y="135" width="25" height="25" fill="white" stroke-width="1" stroke="black"></rect>
<rect x="510" y="135" width="25" height="25" fill="white" stroke-width="1" stroke="black"></rect>
<rect x="10" y="160" width="25" height="25" fill="white" stroke-width="1" stroke="black"></rect>
<rect x="110" y="160" width="25" height="25" fill="white" stroke-width="1" stroke="black"></rect>
<g><rect x="185" y="160" width="25" height="25" fill="white" stroke-width="1" stroke="black"></rect><text x="186.25" y="165.0" font-family="Times New Roman" fill="black" font-size="5.0">1</text></g>
<rect x="210" y="160" width="25" height="25" fill="white" stroke-width="1" stroke="black"></rect>
<rect x="235" y="160" width="25" height="25" fill="white" stroke-width="1" stroke="black"></rect>
<rect x="260" y="160" width="25" height="25" fill="white" stroke-width="1" stroke="black"></rect>
<rect x="285" y="160" width="25" height="25" fill="white" stroke-width="1" stroke="black"></rect>
<rect x="310" y="160" width="25" height="25" fill="white" stroke-width="1" stroke="black"></rect>
<rect x="335" y="160" width="25" height="25" fill="white" stroke-width="1" stroke="black"></rect>
<rect x="360" y="160" width="25" height="25" fill="white" stroke-width="1" stroke="black"></rect>
<g><rect x="485" y="160" width="25" height="25" fill="white" stroke-width="1" stroke="black"></rect><text x="486.25" y="165.0" font-family="Times New Roman" fill="black" font-size="5.0">28</text></g>
<rect x="510" y="160" width="25" height="25" fill="white" stroke-width="1" stroke="black"></rect>
<rect x="535" y="160" width="25" height="25" fill="white" stroke-width="1" stroke="black"></rect>
<rect x="560" y="160" width="25" height="25" fill="white" stroke-width="1" stroke="black"></rect>
<rect x="585" y="160" width="25" height="25" fill="white" stroke-width="1" stroke="black"></rect>
<rect x="610" y="160" width="25" height="25" fill="white" stroke-width="1" stroke="black"></rect>
<rect x="635" y="160" width="25" height="25" fill="white" stroke-width="1" stroke="black"></rect>
<rect x="660" y="160" width="25" height="25" fill="white" stroke-width="1" stroke="black"></rect>
<g><rect x="10" y="185" width="25" height="25" fill="white" stroke-width="1" stroke="black"></rect><text x="11.25" y="190.0" font-family="Times New Roman" fill="black" font-size="5.0">7</text></g>
<rect x="35" y="185" width="25" height="25" fill="white" stroke-width="1" stroke="black"></rect>
<rect x="60" y="185" width="25" height="25" fill="white" stroke-width="1" stroke="black"></rect>
<rect x="85" y="185" width="25" height="25" fill="white" stroke-width="1" stroke="black"></rect>
<rect x="110" y="185" width="25" height="25" fill="white" stroke-width="1" stroke="black"></rect>
<rect x="135" y="185" width="25" height="25" fill="white" stroke-width="1" stroke="black"></rect>
<rect x="160" y="185" width="25" height="25" fill="white" stroke-width="1" stroke="black"></rect>
<rect x="185" y="185" width="25" height="25" fill="white" stroke-width="1" stroke="black"></rect>
<rect x="285" y="185" width="25" height="25" fill="white" stroke-width="1" stroke="black"></rect>
<rect x="360" y="185" width="25" height="25" fill="white" stroke-width="1" stroke="black"></rect>
<rect x="510" y="185" width="25" height="25" fill="white" stroke-width="1" stroke="black"></rect>
<rect x="110" y="210" width="25" height="25" fill="white" stroke-width="1" stroke="black"></rect>
<rect x="185" y="210" width="25" height="25" fill="white" stroke-width="1" stroke="black"></rect>
<rect x="285" y="210" width="25" height="25" fill="white" stroke-width="1" stroke="black"></rect>
<rect x="360" y="210" width="25" height="25" fill="white" stroke-width="1" stroke="black"></rect>
<rect x="510" y="210" width="25" height="25" fill="white" stroke-width="1" stroke="black"></rect>
<g><rect x="560" y="210" width="25" height="25" fill="white" stroke-width="1" stroke="black"></rect><text x="561.25" y="215.0" font-family="Times New Roman" fill="black" font-size="5.0">14</text></g>
<g><rect x="35" y="235" width="25" height="25" fill="white" stroke-width="1" stroke="black"></rect><text x="36.25" y="240.0" font-family="Times New Roman" fill="black" font-size="5.0">6</text></g>
<rect x="60" y="235" width="25" height="25" fill="white" stroke-width="1" stroke="black"></rect>
<rect x="85" y="235" width="25" height="25" fill="white" stroke-width="1" stroke="black"></rect>
<rect x="110" y="235" width="25" height="25" fill="white" stroke-width="1" stroke="black"></rect>
<rect x="135" y="235" width="25" height="25" fill="white" stroke-width="1" stroke="black"></rect>
<rect x="185" y="235" width="25" height="25" fill="white" stroke-width="1" stroke="black"></rect>
<g><rect x="485" y="235" width="25" height="25" fill="white" stroke-width="1" stroke="black"></rect><text x="486.25" y="240.0" font-family="Times New Roman" fill="black" font-size="5.0">16</text></g>
<rect x="510" y="235" width="25" height="25" fill="white" stroke-width="1" stroke="black"></rect>
<rect x="535" y="235" width="25" height="25" fill="white" stroke-width="1" stroke="black"></rect>
<rect x="560" y="235" width="25" height="25" fill="white" stroke-width="1" stroke="black"></rect>
<rect x="585" y="235" width="25" height="25" fill="white" stroke-width="1" stroke="black"></rect>
<rect x="610" y="235" width="25" height="25" fill="white" stroke-width="1" stroke="black"></rect>
<rect x="35" y="260" width="25" height="25" fill="white" stroke-width="1" stroke="black"></rect>
<rect x="110" y="260" width="25" height="25" fill="white" stroke-width="1" stroke="black"></rect>
<g><rect x="185" y="260" width="25" height="25" fill="white" stroke-width="1" stroke="black"></rect><text x="186.25" y="265.0" font-family="Times New Roman" fill="black" font-size="5.0">23</text></g>
<rect x="210" y="260" width="25" height="25" fill="white" stroke-width="1" stroke="black"></rect>
<g><rect x="235" y="260" width="25" height="25" fill="white" stroke-width="1" stroke="black"></rect><text x="236.25" y="265.0" font-family="Times New Roman" fill="black" font-size="5.0">24</text></g>
<rect x="260" y="260" width="25" height="25" fill="white" stroke-width="1" stroke="black"></rect>
<rect x="285" y="260" width="25" height="25" fill="white" stroke-width="1" stroke="black"></rect>
<rect x="310" y="260" width="25" height="25" fill="white" stroke-width="1" stroke="black"></rect>
<rect x="335" y="260" width="25" height="25" fill="white" stroke-width="1" stroke="black"></rect>
<rect x="560" y="260" width="25" height="25" fill="white" stroke-width="1" stroke="black"></rect>
<rect x="35" y="285" width="25" height="25" fill="white" stroke-width="1" stroke="black"></rect>
<rect x="110" y="285" width="25" height="25" fill="white" stroke-width="1" stroke="black"></rect>
<rect x="185" y="285" width="25" height="25" fill="white" stroke-width="1" stroke="black"></rect>
<rect x="235" y="285" width="25" height="25" fill="white" stroke-width="1" stroke="black"></rect>
<g><rect x="560" y="285" width="25" height="25" fill="white" stroke-width="1" stroke="black"></rect><text x="561.25" y="290.0" font-family="Times New Roman" fill="black" font-size="5.0">18</text></g>
<rect x="585" y="285" width="25" height="25" fill="white" stroke-width="1" stroke="black"></rect>
<rect x="610" y="285" width="25" height="25" fill="white" stroke-width="1" stroke="black"></rect>
<rect x="635" y="285" width="25" height="25" fill="white" stroke-width="1" stroke="black"></rect>
<rect x="660" y="285" width="25" height="25" fill="white" stroke-width="1" stroke="black"></rect>
<rect x="685" y="285" width="25" height="25" fill="white" stroke-width="1" stroke="black"></rect>
<rect x="710" y="285" width="25" height="25" fill="white" stroke-width="1" stroke="black"></rect>
<rect x="735" y="285" width="25" height="25" fill="white" stroke-width="1" stroke="black"></rect>
<g><rect x="760" y="285" width="25" height="25" fill="white" stroke-width="1" stroke="black"></rect><text x="761.25" y="290.0" font-family="Times New Roman" fill="black" font-size="5.0">12</text></g>
<rect x="785" y="285" width="25" height="25" fill="white" stroke-width="1" stroke="black"></rect>
<rect x="35" y="310" width="25" height="25" fill="white" stroke-width="1" stroke="black"></rect>
<rect x="235" y="310" width="25" height="25" fill="white" stroke-width="1" stroke="black"></rect>
<g><rect x="285" y="310" width="25" height="25" fill="white" stroke-width="1" stroke="black"></rect><text x="286.25" y="315.0" font-family="Times New Roman" fill="black" font-size="5.0">19</text></g>
<rect x="560" y="310" width="25" height="25" fill="white" stroke-width="1" stroke="black"></rect>
<rect x="760" y="310" width="25" height="25" fill="white" stroke-width="1" stroke="black"></rect>
<rect x="35" y="335" width="25" height="25" fill="white" stroke-width="1" stroke="black"></rect>
<g><rect x="210" y="335" width="25" height="25" fill="white" stroke-width="1" stroke="black"></rect><text x="211.25" y="340.0" font-family="Times New Roman" fill="black" font-size="5.0">17</text></g>
<rect x="235" y="335" width="25" height="25" fill="white" stroke-width="1" stroke="black"></rect>
<rect x="260" y="335" width="25" height="25" fill="white" stroke-width="1" stroke="black"></rect>
<rect x="285" y="335" width="25" height="25" fill="white" stroke-width="1" stroke="black"></rect>
<rect x="310" y="335" width="25" height="25" fill="white" stroke-width="1" stroke="black"></rect>
<rect x="335" y="335" width="25" height="25" fill="white" stroke-width="1" stroke="black"></rect>
<rect x="360" y="335" width="25" height="25" fill="white" stroke-width="1" stroke="black"></rect>
<rect x="385" y="335" width="25" height="25" fill="white" stroke-width="1" stroke="black"></rect>
<rect x="560" y="335" width="25" height="25" fill="white" stroke-width="1" stroke="black"></rect>
<rect x="760" y="335" width="25" height="25" fill="white" stroke-width="1" stroke="black"></rect>
<rect x="235" y="360" width="25" height="25" fill="white" stroke-width="1" stroke="black"></rect>
<rect x="285" y="360" width="25" height="25" fill="white" stroke-width="1" stroke="black"></rect>
<rect x="560" y="360" width="25" height="25" fill="white" stroke-width="1" stroke="black"></rect>
<rect x="760" y="360" width="25" height="25" fill="white" stroke-width="1" stroke="black"></rect>
<rect x="235" y="385" width="25" height="25" fill="white" stroke-width="1" stroke="black"></rect>
<rect x="285" y="385" width="25" height="25" fill="white" stroke-width="1" stroke="black"></rect>
<rect x="760" y="385" width="25" height="25" fill="white" stroke-width="1" stroke="black"></rect>
<rect x="285" y="410" width="25" height="25" fill="white" stroke-width="1" stroke="black"></rect>
<rect x="760" y="410" width="25" height="25" fill="white" stroke-width="1" stroke="black"></rect>
<g><rect x="285" y="435" width="25" height="25" fill="white" stroke-width="1" stroke="black"></rect><text x="286.25" y="440.0" font-family="Times New Roman" fill="black" font-size="5.0">25</text></g>
<rect x="310" y="435" width="25" height="25" fill="white" stroke-width="1" stroke="black"></rect>
<g><rect x="335" y="435" width="25" height="25" fill="white" stroke-width="1" stroke="black"></rect><text x="336.25" y="440.0" font-family="Times New Roman" fill="black" font-size="5.0">22</text></g>
<rect x="360" y="435" width="25" height="25" fill="white" stroke-width="1" stroke="black"></rect>
<rect x="760" y="435" width="25" height="25" fill="white" stroke-width="1" stroke="black"></rect>
<rect x="285" y="460" width="25" height="25" fill="white" stroke-width="1" stroke="black"></rect>
<rect x="335" y="460" width="25" height="25" fill="white" stroke-width="1" stroke="black"></rect>
<rect x="760" y="460" width="25" height="25" fill="white" stroke-width="1" stroke="black"></rect>
<rect x="335" y="485" width="25" height="25" fill="white" stroke-width="1" stroke="black"></rect>
<g><rect x="685" y="485" width="25" height="25" fill="white" stroke-width="1" stroke="black"></rect><text x="686.25" y="490.0" font-family="Times New Roman" fill="black" font-size="5.0">21</text></g>
<g><rect x="710" y="485" width="25" height="25" fill="white" stroke-width="1" stroke="black"></rect><text x="711.25" y="490.0" font-family="Times New Roman" fill="black" font-size="5.0">27</text></g>
<rect x="735" y="485" width="25" height="25" fill="white" stroke-width="1" stroke="black"></rect>
<rect x="760" y="485" width="25" height="25" fill="white" stroke-width="1" stroke="black"></rect>
<rect x="785" y="485" width="25" height="25" fill="white" stroke-width="1" stroke="black"></rect>
<rect x="810" y="485" width="25" height="25" fill="white" stroke-width="1" stroke="black"></rect>
<rect x="835" y="485" width="25" height="25" fill="white" stroke-width="1" stroke="black"></rect>
<rect x="860" y="485" width="25" height="25" fill="white" stroke-width="1" stroke="black"></rect>
<rect x="885" y="485" width="25" height="25" fill="white" stroke-width="1" stroke="black"></rect>
<rect x="910" y="485" width="25" height="25" fill="white" stroke-width="1" stroke="black"></rect>
<rect x="335" y="510" width="25" height="25" fill="white" stroke-width="1" stroke="black"></rect>
<rect x="710" y="510" width="25" height="25" fill="white" stroke-width="1" stroke="black"></rect>
<rect x="335" y="535" width="25" height="25" fill="white" stroke-width="1" stroke="black"></rect>
<rect x="710" y="535" width="25" height="25" fill="white" stroke-width="1" stroke="black"></rect>
<rect x="335" y="560" width="25" height="25" fill="white" stroke-width="1" stroke="black"></rect>
<rect x="710" y="560" width="25" height="25" fill="white" stroke-width="1" stroke="black"></rect>
<rect x="335" y="585" width="25" height="25" fill="white" stroke-width="1" stroke="black"></rect>
<rect x="710" y="585" width="25" height="25" fill="white" stroke-width="1" stroke="black"></rect>
<g><rect x="235" y="610" width="25" height="25" fill="white" stroke-width="1" stroke="black"></rect><text x="236.25" y="615.0" font-family="Times New Roman" fill="black" font-size="5.0">15</text></g>
<rect x="335" y="610" width="25" height="25" fill="white" stroke-width="1" stroke="black"></rect>
<rect x="710" y="610" width="25" height="25" fill="white" stroke-width="1" stroke="black"></rect>
<g><rect x="160" y="635" width="25" height="25" fill="white" stroke-width="1" stroke="black"></rect><text x="161.25" y="640.0" font-family="Times New Roman" fill="black" font-size="5.0">11</text></g>
<rect x="185" y="635" width="25" height="25" fill="white" stroke-width="1" stroke="black"></rect>
<rect x="210" y="635" width="25" height="25" fill="white" stroke-width="1" stroke="black"></rect>
<rect x="235" y="635" width="25" height="25" fill="white" stroke-width="1" stroke="black"></rect>
<rect x="260" y="635" width="25" height="25" fill="white" stroke-width="1" stroke="black"></rect>
<rect x="285" y="635" width="25" height="25" fill="white" stroke-width="1" stroke="black"></rect>
<rect x="310" y="635" width="25" height="25" fill="white" stroke-width="1" stroke="black"></rect>
<rect x="335" y="635" width="25" height="25" fill="white" stroke-width="1" stroke="black"></rect>
<rect x="710" y="635" width="25" height="25" fill="white" stroke-width="1" stroke="black"></rect>
<rect x="235" y="660" width="25" height="25" fill="white" stroke-width="1" stroke="black"></rect>
<rect x="235" y="685" width="25" height="25" fill="white" stroke-width="1" stroke="black"></rect>
<rect x="235" y="710" width="25" height="25" fill="white" stroke-width="1" stroke="black"></rect>
<rect x="235" y="735" width="25" height="25" fill="white" stroke-width="1" stroke="black"></rect>
<g><rect x="235" y="760" width="25" height="25" fill="white" stroke-width="1" stroke="black"></rect><text x="236.25" y="765.0" font-family="Times New Roman" fill="black" font-size="5.0">13</text></g>
<rect x="260" y="760" width="25" height="25" fill="white" stroke-width="1" stroke="black"></rect>
<rect x="285" y="760" width="25" height="25" fill="white" stroke-width="1" stroke="black"></rect>
<rect x="310" y="760" width="25" height="25" fill="white" stroke-width="1" stroke="black"></rect>
<rect x="335" y="760" width="25" height="25" fill="white" stroke-width="1" stroke="black"></rect>
<rect x="360" y="760" width="25" height="25" fill="white" stroke-width="1" stroke="black"></rect>
<rect x="385" y="760" width="25" height="25" fill="white" stroke-width="1" stroke="black"></rect>
<rect x="410" y="760" width="25" height="25" fill="white" stroke-width="1" stroke="black"></rect>
<rect x="235" y="785" width="25" height="25" fill="white" stroke-width="1" stroke="black"></rect>
</svg>