<svg xmlns="http://www.w3.org/2000/svg" width="1550" height="1400">
<g><rect x="260" y="10" width="50" height="50" fill="white" stroke-width="2.0" stroke="black"></rect><text x="262.5" y="30.0" font-family="Times New Roman" fill="black" font-size="20.0">5</text></g>
<g><rect x="360" y="10" width="50" height="50" fill="white" stroke-width="2.0" stroke="black"></rect><text x="362.5" y="30.0" font-family="Times New Roman" fill="black" font-size="20.0">2</text></g>
<rect x="260" y="60" width="50" height="50" fill="white" stroke-width="2.0" stroke="black"></rect>
<rect x="360" y="60" width="50" height="50" fill="white" stroke-width="2.0" stroke="black"></rect>
<rect x="260" y="110" width="50" height="50" fill="white" stroke-width="2.0" stroke="black"></rect>
<rect x="360" y="110" width="50" height="50" fill="white" stroke-width="2.0" stroke="black"></rect>
<g><rect x="210" y="160" width="50" height="50" fill="white" stroke-width="2.0" stroke="black"></rect><text x="212.5" y="180.0" font-family="Times New Roman" fill="black" font-size="20.0">1</text></g>
<rect x="260" y="160" width="50" height="50" fill="white" stroke-width="2.0" stroke="black"></rect>
<rect x="310" y="160" width="50" height="50" fill="white" stroke-width="2.0" stroke="black"></rect>
<rect x="360" y="160" width="50" height="50" fill="white" stroke-width="2.0" stroke="black"></rect>
<rect x="410" y="160" width="50" height="50" fill="white" stroke-width="2.0" stroke="black"></rect>
<rect x="260" y="210" width="50" height="50" fill="white" stroke-width="2.0" stroke="black"></rect>
<rect x="360" y="210" width="50" height="50" fill="white" stroke-width="2.0" stroke="black"></rect>
<rect x="260" y="260" width="50" height="50" fill="white" stroke-width="2.0" stroke="black"></rect>
<rect x="360" y="260" width="50" height="50" fill="white" stroke-width="2.0" stroke="black"></rect>
<rect x="260" y="310" width="50" height="50" fill="white" stroke-width="2.0" stroke="black"></rect>
<g><rect x="1010" y="310" width="50" height="50" fill="white" stroke-width="2.0" stroke="black"></rect><text x="1012.5" y="330.0" font-family="Times New Roman" fill="black" font-size="20.0">16</text></g>
<rect x="1060" y="310" width="50" height="50" fill="white" stroke-width="2.0" stroke="black"></rect>
<rect x="1110" y="310" width="50" height="50" fill="white" stroke-width="2.0" stroke="black"></rect>
<rect x="1160" y="310" width="50" height="50" fill="white" stroke-width="2.0" stroke="black"></rect>
<rect x="1210" y="310" width="50" height="50" fill="white" stroke-width="2.0" stroke="black"></rect>
<rect x="1260" y="310" width="50" height="50" fill="white" stroke-width="2.0" stroke="black"></rect>
<rect x="1310" y="310" width="50" height="50" fill="white" stroke-width="2.0" stroke="black"></rect>
<rect x="1360" y="310" width="50" height="50" fill="white" stroke-width="2.0" stroke="black"></rect>
<rect x="1410" y="310" width="50" height="50" fill="white" stroke-width="2.0" stroke="black"></rect>
<rect x="1460" y="310" width="50" height="50" fill="white" stroke-width="2.0" stroke="black"></rect>
<rect x="260" y="360" width="50" height="50" fill="white" stroke-width="2.0" stroke="black"></rect>
<g><rect x="660" y="360" width="50" height="50" fill="white" stroke-width="2.0" stroke="black"></rect><text x="662.5" y="380.0" font-family="Times New Roman" fill="black" font-size="20.0">6</text></g>
<rect x="1010" y="360" width="50" height="50" fill="white" stroke-width="2.0" stroke="black"></rect>
<rect x="260" y="410" width="50" height="50" fill="white" stroke-width="2.0" stroke="black"></rect>
<g><rect x="410" y="410" width="50" height="50" fill="white" stroke-width="2.0" stroke="black"></rect><text x="412.5" y="430.0" font-family="Times New Roman" fill="black" font-size="20.0">9</text></g>
<rect x="460" y="410" width="50" height="50" fill="white" stroke-width="2.0" stroke="black"></rect>
<rect x="510" y="410" width="50" height="50" fill="white" stroke-width="2.0" stroke="black"></rect>
<rect x="660" y="410" width="50" height="50" fill="white" stroke-width="2.0" stroke="black"></rect>
<rect x="1010" y="410" width="50" height="50" fill="white" stroke-width="2.0" stroke="black"></rect>
<rect x="260" y="460" width="50" height="50" fill="white" stroke-width="2.0" stroke="black"></rect>
<rect x="410" y="460" width="50" height="50" fill="white" stroke-width="2.0" stroke="black"></rect>
<rect x="660" y="460" width="50" height="50" fill="white" stroke-width="2.0" stroke="black"></rect>
<rect x="1010" y="460" width="50" height="50" fill="white" stroke-width="2.0" stroke="black"></rect>
<rect x="260" y="510" width="50" height="50" fill="white" stroke-width="2.0" stroke="black"></rect>
<rect x="410" y="510" width="50" height="50" fill="white" stroke-width="2.0" stroke="black"></rect>
<g><rect x="660" y="510" width="50" height="50" fill="white" stroke-width="2.0" stroke="black"></rect><text x="662.5" y="530.0" font-family="Times New Roman" fill="black" font-size="20.0">18</text></g>
<rect x="710" y="510" width="50" height="50" fill="white" stroke-width="2.0" stroke="black"></rect>
<rect x="760" y="510" width="50" height="50" fill="white" stroke-width="2.0" stroke="black"></rect>
<g><rect x="810" y="510" width="50" height="50" fill="white" stroke-width="2.0" stroke="black"></rect><text x="812.5" y="530.0" font-family="Times New Roman" fill="black" font-size="20.0">13</text></g>
<rect x="1010" y="510" width="50" height="50" fill="white" stroke-width="2.0" stroke="black"></rect>
<g><rect x="260" y="560" width="50" height="50" fill="white" stroke-width="2.0" stroke="black"></rect><text x="262.5" y="580.0" font-family="Times New Roman" fill="black" font-size="20.0">4</text></g>
<rect x="310" y="560" width="50" height="50" fill="white" stroke-width="2.0" stroke="black"></rect>
<rect x="360" y="560" width="50" height="50" fill="white" stroke-width="2.0" stroke="black"></rect>
<rect x="410" y="560" width="50" height="50" fill="white" stroke-width="2.0" stroke="black"></rect>
<rect x="460" y="560" width="50" height="50" fill="white" stroke-width="2.0" stroke="black"></rect>
<rect x="660" y="560" width="50" height="50" fill="white" stroke-width="2.0" stroke="black"></rect>
<rect x="810" y="560" width="50" height="50" fill="white" stroke-width="2.0" stroke="black"></rect>
<rect x="1010" y="560" width="50" height="50" fill="white" stroke-width="2.0" stroke="black"></rect>
<rect x="260" y="610" width="50" height="50" fill="white" stroke-width="2.0" stroke="black"></rect>
<rect x="410" y="610" width="50" height="50" fill="white" stroke-width="2.0" stroke="black"></rect>
<g><rect x="560" y="610" width="50" height="50" fill="white" stroke-width="2.0" stroke="black"></rect><text x="562.5" y="630.0" font-family="Times New Roman" fill="black" font-size="20.0">10</text></g>
<rect x="660" y="610" width="50" height="50" fill="white" stroke-width="2.0" stroke="black"></rect>
<rect x="810" y="610" width="50" height="50" fill="white" stroke-width="2.0" stroke="black"></rect>
<rect x="1010" y="610" width="50" height="50" fill="white" stroke-width="2.0" stroke="black"></rect>
<g><rect x="360" y="660" width="50" height="50" fill="white" stroke-width="2.0" stroke="black"></rect><text x="362.5" y="680.0" font-family="Times New Roman" fill="black" font-size="20.0">15</text></g>
<rect x="410" y="660" width="50" height="50" fill="white" stroke-width="2.0" stroke="black"></rect>
<rect x="460" y="660" width="50" height="50" fill="white" stroke-width="2.0" stroke="black"></rect>
<rect x="510" y="660" width="50" height="50" fill="white" stroke-width="2.0" stroke="black"></rect>
<rect x="560" y="660" width="50" height="50" fill="white" stroke-width="2.0" stroke="black"></rect>
<rect x="610" y="660" width="50" height="50" fill="white" stroke-width="2.0" stroke="black"></rect>
<rect x="660" y="660" width="50" height="50" fill="white" stroke-width="2.0" stroke="black"></rect>
<rect x="810" y="660" width="50" height="50" fill="white" stroke-width="2.0" stroke="black"></rect>
<rect x="1010" y="660" width="50" height="50" fill="white" stroke-width="2.0" stroke="black"></rect>
<rect x="410" y="710" width="50" height="50" fill="white" stroke-width="2.0" stroke="black"></rect>
<rect x="560" y="710" width="50" height="50" fill="white" stroke-width="2.0" stroke="black"></rect>
<rect x="660" y="710" width="50" height="50" fill="white" stroke-width="2.0" stroke="black"></rect>
<rect x="810" y="710" width="50" height="50" fill="white" stroke-width="2.0" stroke="black"></rect>
<rect x="1010" y="710" width="50" height="50" fill="white" stroke-width="2.0" stroke="black"></rect>
<rect x="410" y="760" width="50" height="50" fill="white" stroke-width="2.0" stroke="black"></rect>
<rect x="560" y="760" width="50" height="50" fill="white" stroke-width="2.0" stroke="black"></rect>
<rect x="660" y="760" width="50" height="50" fill="white" stroke-width="2.0" stroke="black"></rect>
<g><rect x="810" y="760" width="50" height="50" fill="white" stroke-width="2.0" stroke="black"></rect><text x="812.5" y="780.0" font-family="Times New Roman" fill="black" font-size="20.0">19</text></g>
<rect x="860" y="760" width="50" height="50" fill="white" stroke-width="2.0" stroke="black"></rect>
<rect x="910" y="760" width="50" height="50" fill="white" stroke-width="2.0" stroke="black"></rect>
<rect x="960" y="760" width="50" height="50" fill="white" stroke-width="2.0" stroke="black"></rect>
<rect x="1010" y="760" width="50" height="50" fill="white" stroke-width="2.0" stroke="black"></rect>
<rect x="1060" y="760" width="50" height="50" fill="white" stroke-width="2.0" stroke="black"></rect>
<rect x="1110" y="760" width="50" height="50" fill="white" stroke-width="2.0" stroke="black"></rect>
<rect x="1160" y="760" width="50" height="50" fill="white" stroke-width="2.0" stroke="black"></rect>
<rect x="560" y="810" width="50" height="50" fill="white" stroke-width="2.0" stroke="black"></rect>
<rect x="660" y="810" width="50" height="50" fill="white" stroke-width="2.0" stroke="black"></rect>
<rect x="1010" y="810" width="50" height="50" fill="white" stroke-width="2.0" stroke="black"></rect>
<g><rect x="60" y="860" width="50" height="50" fill="white" stroke-width="2.0" stroke="black"></rect><text x="62.5" y="880.0" font-family="Times New Roman" fill="black" font-size="20.0">8</text></g>
<rect x="110" y="860" width="50" height="50" fill="white" stroke-width="2.0" stroke="black"></rect>
<rect x="160" y="860" width="50" height="50" fill="white" stroke-width="2.0" stroke="black"></rect>
<g><rect x="310" y="860" width="50" height="50" fill="white" stroke-width="2.0" stroke="black"></rect><text x="312.5" y="880.0" font-family="Times New Roman" fill="black" font-size="20.0">7</text></g>
<rect x="560" y="860" width="50" height="50" fill="white" stroke-width="2.0" stroke="black"></rect>
<rect x="660" y="860" width="50" height="50" fill="white" stroke-width="2.0" stroke="black"></rect>
<rect x="1010" y="860" width="50" height="50" fill="white" stroke-width="2.0" stroke="black"></rect>
<rect x="60" y="910" width="50" height="50" fill="white" stroke-width="2.0" stroke="black"></rect>
<g><rect x="260" y="910" width="50" height="50" fill="white" stroke-width="2.0" stroke="black"></rect><text x="262.5" y="930.0" font-family="Times New Roman" fill="black" font-size="20.0">11</text></g>
<rect x="310" y="910" width="50" height="50" fill="white" stroke-width="2.0" stroke="black"></rect>
<rect x="360" y="910" width="50" height="50" fill="white" stroke-width="2.0" stroke="black"></rect>
<rect x="410" y="910" width="50" height="50" fill="white" stroke-width="2.0" stroke="black"></rect>
<rect x="460" y="910" width="50" height="50" fill="white" stroke-width="2.0" stroke="black"></rect>
<rect x="510" y="910" width="50" height="50" fill="white" stroke-width="2.0" stroke="black"></rect>
<rect x="560" y="910" width="50" height="50" fill="white" stroke-width="2.0" stroke="black"></rect>
<rect x="60" y="960" width="50" height="50" fill="white" stroke-width="2.0" stroke="black"></rect>
<rect x="310" y="960" width="50" height="50" fill="white" stroke-width="2.0" stroke="black"></rect>
<rect x="560" y="960" width="50" height="50" fill="white" stroke-width="2.0" stroke="black"></rect>
<rect x="60" y="1010" width="50" height="50" fill="white" stroke-width="2.0" stroke="black"></rect>
<g><rect x="210" y="1010" width="50" height="50" fill="white" stroke-width="2.0" stroke="black"></rect><text x="212.5" y="1030.0" font-family="Times New Roman" fill="black" font-size="20.0">14</text></g>
<g><rect x="310" y="1010" width="50" height="50" fill="white" stroke-width="2.0" stroke="black"></rect><text x="312.5" y="1030.0" font-family="Times New Roman" fill="black" font-size="20.0">17</text></g>
<rect x="360" y="1010" width="50" height="50" fill="white" stroke-width="2.0" stroke="black"></rect>
<rect x="410" y="1010" width="50" height="50" fill="white" stroke-width="2.0" stroke="black"></rect>
<rect x="560" y="1010" width="50" height="50" fill="white" stroke-width="2.0" stroke="black"></rect>
<rect x="60" y="1060" width="50" height="50" fill="white" stroke-width="2.0" stroke="black"></rect>
<rect x="210" y="1060" width="50" height="50" fill="white" stroke-width="2.0" stroke="black"></rect>
<rect x="310" y="1060" width="50" height="50" fill="white" stroke-width="2.0" stroke="black"></rect>
<rect x="60" y="1110" width="50" height="50" fill="white" stroke-width="2.0" stroke="black"></rect>
<rect x="210" y="1110" width="50" height="50" fill="white" stroke-width="2.0" stroke="black"></rect>
<rect x="310" y="1110" width="50" height="50" fill="white" stroke-width="2.0" stroke="black"></rect>
<rect x="60" y="1160" width="50" height="50" fill="white" stroke-width="2.0" stroke="black"></rect>
<g><rect x="210" y="1160" width="50" height="50" fill="white" stroke-width="2.0" stroke="black"></rect><text x="212.5" y="1180.0" font-family="Times New Roman" fill="black" font-size="20.0">12</text></g>
<rect x="260" y="1160" width="50" height="50" fill="white" stroke-width="2.0" stroke="black"></rect>
<rect x="310" y="1160" width="50" height="50" fill="white" stroke-width="2.0" stroke="black"></rect>
<rect x="360" y="1160" width="50" height="50" fill="white" stroke-width="2.0" stroke="black"></rect>
<rect x="410" y="1160" width="50" height="50" fill="white" stroke-width="2.0" stroke="black"></rect>
<g><rect x="10" y="1210" width="50" height="50" fill="white" stroke-width="2.0" stroke="black"></rect><text x="12.5" y="1230.0" font-family="Times New Roman" fill="black" font-size="20.0">3</text></g>
<rect x="60" y="1210" width="50" height="50" fill="white" stroke-width="2.0" stroke="black"></rect>
<rect x="110" y="1210" width="50" height="50" fill="white" stroke-width="2.0" stroke="black"></rect>
<rect x="160" y="1210" width="50" height="50" fill="white" stroke-width="2.0" stroke="black"></rect>
<rect x="210" y="1210" width="50" height="50" fill="white" stroke-width="2.0" stroke="black"></rect>
<rect x="310" y="1210" width="50" height="50" fill="white" stroke-width="2.0" stroke="black"></rect>
<rect x="60" y="1260" width="50" height="50" fill="white" stroke-width="2.0" stroke="black"></rect>
<rect x="210" y="1260" width="50" height="50" fill="white" stroke-width="2.0" stroke="black"></rect>
<rect x="310" y="1260" width="50" height="50" fill="white" stroke-width="2.0" stroke="black"></rect>
<rect x="60" y="1310" width="50" height="50" fill="white" stroke-width="2.0" stroke="black"></rect>
<rect x="210" y="1310" width="50" height="50" fill="white" stroke-width="2.0" stroke="black"></rect>
</svg>