<svg xmlns="http://www.w3.org/2000/svg" width="1500" height="1400">
<g><rect x="60" y="10" width="50" height="50" fill="white" stroke-width="2.0" stroke="black"></rect><text x="62.5" y="20.0" font-family="Times New Roman" fill="black" font-size="10.0">19</text></g>
<rect x="60" y="60" width="50" height="50" fill="white" stroke-width="2.0" stroke="black"></rect>
<rect x="60" y="110" width="50" height="50" fill="white" stroke-width="2.0" stroke="black"></rect>
<rect x="60" y="160" width="50" height="50" fill="white" stroke-width="2.0" stroke="black"></rect>
<rect x="60" y="210" width="50" height="50" fill="white" stroke-width="2.0" stroke="black"></rect>
<g><rect x="10" y="260" width="50" height="50" fill="white" stroke-width="2.0" stroke="black"></rect><text x="12.5" y="270.0" font-family="Times New Roman" fill="black" font-size="10.0">5</text></g>
<rect x="60" y="260" width="50" height="50" fill="white" stroke-width="2.0" stroke="black"></rect>
<rect x="110" y="260" width="50" height="50" fill="white" stroke-width="2.0" stroke="black"></rect>
<rect x="160" y="260" width="50" height="50" fill="white" stroke-width="2.0" stroke="black"></rect>
<rect x="210" y="260" width="50" height="50" fill="white" stroke-width="2.0" stroke="black"></rect>
<g><rect x="260" y="260" width="50" height="50" fill="white" stroke-width="2.0" stroke="black"></rect><text x="262.5" y="270.0" font-family="Times New Roman" fill="black" font-size="10.0">9</text></g>
<rect x="310" y="260" width="50" height="50" fill="white" stroke-width="2.0" stroke="black"></rect>
<rect x="60" y="310" width="50" height="50" fill="white" stroke-width="2.0" stroke="black"></rect>
<rect x="260" y="310" width="50" height="50" fill="white" stroke-width="2.0" stroke="black"></rect>
<rect x="60" y="360" width="50" height="50" fill="white" stroke-width="2.0" stroke="black"></rect>
<rect x="260" y="360" width="50" height="50" fill="white" stroke-width="2.0" stroke="black"></rect>
<rect x="60" y="410" width="50" height="50" fill="white" stroke-width="2.0" stroke="black"></rect>
<rect x="260" y="410" width="50" height="50" fill="white" stroke-width="2.0" stroke="black"></rect>
<g><rect x="460" y="410" width="50" height="50" fill="white" stroke-width="2.0" stroke="black"></rect><text x="462.5" y="420.0" font-family="Times New Roman" fill="black" font-size="10.0">2</text></g>
<rect x="260" y="460" width="50" height="50" fill="white" stroke-width="2.0" stroke="black"></rect>
<rect x="460" y="460" width="50" height="50" fill="white" stroke-width="2.0" stroke="black"></rect>
<g><rect x="860" y="460" width="50" height="50" fill="white" stroke-width="2.0" stroke="black"></rect><text x="862.5" y="470.0" font-family="Times New Roman" fill="black" font-size="10.0">10</text></g>
<g><rect x="160" y="510" width="50" height="50" fill="white" stroke-width="2.0" stroke="black"></rect><text x="162.5" y="520.0" font-family="Times New Roman" fill="black" font-size="10.0">1</text></g>
<rect x="210" y="510" width="50" height="50" fill="white" stroke-width="2.0" stroke="black"></rect>
<rect x="260" y="510" width="50" height="50" fill="white" stroke-width="2.0" stroke="black"></rect>
<rect x="310" y="510" width="50" height="50" fill="white" stroke-width="2.0" stroke="black"></rect>
<rect x="360" y="510" width="50" height="50" fill="white" stroke-width="2.0" stroke="black"></rect>
<rect x="410" y="510" width="50" height="50" fill="white" stroke-width="2.0" stroke="black"></rect>
<rect x="460" y="510" width="50" height="50" fill="white" stroke-width="2.0" stroke="black"></rect>
<g><rect x="560" y="510" width="50" height="50" fill="white" stroke-width="2.0" stroke="black"></rect><text x="562.5" y="520.0" font-family="Times New Roman" fill="black" font-size="10.0">14</text></g>
<g><rect x="610" y="510" width="50" height="50" fill="white" stroke-width="2.0" stroke="black"></rect><text x="612.5" y="520.0" font-family="Times New Roman" fill="black" font-size="10.0">8</text></g>
<rect x="660" y="510" width="50" height="50" fill="white" stroke-width="2.0" stroke="black"></rect>
<rect x="710" y="510" width="50" height="50" fill="white" stroke-width="2.0" stroke="black"></rect>
<rect x="760" y="510" width="50" height="50" fill="white" stroke-width="2.0" stroke="black"></rect>
<rect x="810" y="510" width="50" height="50" fill="white" stroke-width="2.0" stroke="black"></rect>
<rect x="860" y="510" width="50" height="50" fill="white" stroke-width="2.0" stroke="black"></rect>
<rect x="910" y="510" width="50" height="50" fill="white" stroke-width="2.0" stroke="black"></rect>
<rect x="960" y="510" width="50" height="50" fill="white" stroke-width="2.0" stroke="black"></rect>
<rect x="1010" y="510" width="50" height="50" fill="white" stroke-width="2.0" stroke="black"></rect>
<rect x="260" y="560" width="50" height="50" fill="white" stroke-width="2.0" stroke="black"></rect>
<rect x="460" y="560" width="50" height="50" fill="white" stroke-width="2.0" stroke="black"></rect>
<rect x="610" y="560" width="50" height="50" fill="white" stroke-width="2.0" stroke="black"></rect>
<rect x="860" y="560" width="50" height="50" fill="white" stroke-width="2.0" stroke="black"></rect>
<rect x="260" y="610" width="50" height="50" fill="white" stroke-width="2.0" stroke="black"></rect>
<g><rect x="410" y="610" width="50" height="50" fill="white" stroke-width="2.0" stroke="black"></rect><text x="412.5" y="620.0" font-family="Times New Roman" fill="black" font-size="10.0">17</text></g>
<rect x="460" y="610" width="50" height="50" fill="white" stroke-width="2.0" stroke="black"></rect>
<rect x="510" y="610" width="50" height="50" fill="white" stroke-width="2.0" stroke="black"></rect>
<rect x="560" y="610" width="50" height="50" fill="white" stroke-width="2.0" stroke="black"></rect>
<rect x="610" y="610" width="50" height="50" fill="white" stroke-width="2.0" stroke="black"></rect>
<rect x="660" y="610" width="50" height="50" fill="white" stroke-width="2.0" stroke="black"></rect>
<rect x="710" y="610" width="50" height="50" fill="white" stroke-width="2.0" stroke="black"></rect>
<rect x="760" y="610" width="50" height="50" fill="white" stroke-width="2.0" stroke="black"></rect>
<g><rect x="860" y="610" width="50" height="50" fill="white" stroke-width="2.0" stroke="black"></rect><text x="862.5" y="620.0" font-family="Times New Roman" fill="black" font-size="10.0">4</text></g>
<rect x="910" y="610" width="50" height="50" fill="white" stroke-width="2.0" stroke="black"></rect>
<rect x="960" y="610" width="50" height="50" fill="white" stroke-width="2.0" stroke="black"></rect>
<rect x="1010" y="610" width="50" height="50" fill="white" stroke-width="2.0" stroke="black"></rect>
<g><rect x="1060" y="610" width="50" height="50" fill="white" stroke-width="2.0" stroke="black"></rect><text x="1062.5" y="620.0" font-family="Times New Roman" fill="black" font-size="10.0">15</text></g>
<rect x="1110" y="610" width="50" height="50" fill="white" stroke-width="2.0" stroke="black"></rect>
<rect x="260" y="660" width="50" height="50" fill="white" stroke-width="2.0" stroke="black"></rect>
<rect x="460" y="660" width="50" height="50" fill="white" stroke-width="2.0" stroke="black"></rect>
<rect x="610" y="660" width="50" height="50" fill="white" stroke-width="2.0" stroke="black"></rect>
<rect x="1060" y="660" width="50" height="50" fill="white" stroke-width="2.0" stroke="black"></rect>
<g><rect x="1310" y="660" width="50" height="50" fill="white" stroke-width="2.0" stroke="black"></rect><text x="1312.5" y="670.0" font-family="Times New Roman" fill="black" font-size="10.0">11</text></g>
<rect x="260" y="710" width="50" height="50" fill="white" stroke-width="2.0" stroke="black"></rect>
<rect x="460" y="710" width="50" height="50" fill="white" stroke-width="2.0" stroke="black"></rect>
<rect x="610" y="710" width="50" height="50" fill="white" stroke-width="2.0" stroke="black"></rect>
<g><rect x="1010" y="710" width="50" height="50" fill="white" stroke-width="2.0" stroke="black"></rect><text x="1012.5" y="720.0" font-family="Times New Roman" fill="black" font-size="10.0">12</text></g>
<rect x="1060" y="710" width="50" height="50" fill="white" stroke-width="2.0" stroke="black"></rect>
<rect x="1110" y="710" width="50" height="50" fill="white" stroke-width="2.0" stroke="black"></rect>
<g><rect x="1160" y="710" width="50" height="50" fill="white" stroke-width="2.0" stroke="black"></rect><text x="1162.5" y="720.0" font-family="Times New Roman" fill="black" font-size="10.0">16</text></g>
<rect x="1210" y="710" width="50" height="50" fill="white" stroke-width="2.0" stroke="black"></rect>
<rect x="1260" y="710" width="50" height="50" fill="white" stroke-width="2.0" stroke="black"></rect>
<rect x="1310" y="710" width="50" height="50" fill="white" stroke-width="2.0" stroke="black"></rect>
<rect x="1360" y="710" width="50" height="50" fill="white" stroke-width="2.0" stroke="black"></rect>
<rect x="1410" y="710" width="50" height="50" fill="white" stroke-width="2.0" stroke="black"></rect>
<rect x="260" y="760" width="50" height="50" fill="white" stroke-width="2.0" stroke="black"></rect>
<rect x="1060" y="760" width="50" height="50" fill="white" stroke-width="2.0" stroke="black"></rect>
<rect x="1160" y="760" width="50" height="50" fill="white" stroke-width="2.0" stroke="black"></rect>
<rect x="1310" y="760" width="50" height="50" fill="white" stroke-width="2.0" stroke="black"></rect>
<rect x="260" y="810" width="50" height="50" fill="white" stroke-width="2.0" stroke="black"></rect>
<g><rect x="660" y="810" width="50" height="50" fill="white" stroke-width="2.0" stroke="black"></rect><text x="662.5" y="820.0" font-family="Times New Roman" fill="black" font-size="10.0">6</text></g>
<rect x="1060" y="810" width="50" height="50" fill="white" stroke-width="2.0" stroke="black"></rect>
<rect x="1160" y="810" width="50" height="50" fill="white" stroke-width="2.0" stroke="black"></rect>
<rect x="1310" y="810" width="50" height="50" fill="white" stroke-width="2.0" stroke="black"></rect>
<g><rect x="210" y="860" width="50" height="50" fill="white" stroke-width="2.0" stroke="black"></rect><text x="212.5" y="870.0" font-family="Times New Roman" fill="black" font-size="10.0">3</text></g>
<rect x="260" y="860" width="50" height="50" fill="white" stroke-width="2.0" stroke="black"></rect>
<rect x="310" y="860" width="50" height="50" fill="white" stroke-width="2.0" stroke="black"></rect>
<rect x="360" y="860" width="50" height="50" fill="white" stroke-width="2.0" stroke="black"></rect>
<rect x="410" y="860" width="50" height="50" fill="white" stroke-width="2.0" stroke="black"></rect>
<rect x="460" y="860" width="50" height="50" fill="white" stroke-width="2.0" stroke="black"></rect>
<rect x="510" y="860" width="50" height="50" fill="white" stroke-width="2.0" stroke="black"></rect>
<rect x="560" y="860" width="50" height="50" fill="white" stroke-width="2.0" stroke="black"></rect>
<rect x="610" y="860" width="50" height="50" fill="white" stroke-width="2.0" stroke="black"></rect>
<rect x="660" y="860" width="50" height="50" fill="white" stroke-width="2.0" stroke="black"></rect>
<rect x="710" y="860" width="50" height="50" fill="white" stroke-width="2.0" stroke="black"></rect>
<rect x="760" y="860" width="50" height="50" fill="white" stroke-width="2.0" stroke="black"></rect>
<rect x="1060" y="860" width="50" height="50" fill="white" stroke-width="2.0" stroke="black"></rect>
<rect x="1160" y="860" width="50" height="50" fill="white" stroke-width="2.0" stroke="black"></rect>
<g><rect x="1260" y="860" width="50" height="50" fill="white" stroke-width="2.0" stroke="black"></rect><text x="1262.5" y="870.0" font-family="Times New Roman" fill="black" font-size="10.0">13</text></g>
<rect x="1310" y="860" width="50" height="50" fill="white" stroke-width="2.0" stroke="black"></rect>
<rect x="1360" y="860" width="50" height="50" fill="white" stroke-width="2.0" stroke="black"></rect>
<rect x="660" y="910" width="50" height="50" fill="white" stroke-width="2.0" stroke="black"></rect>
<rect x="1160" y="910" width="50" height="50" fill="white" stroke-width="2.0" stroke="black"></rect>
<g><rect x="410" y="960" width="50" height="50" fill="white" stroke-width="2.0" stroke="black"></rect><text x="412.5" y="970.0" font-family="Times New Roman" fill="black" font-size="10.0">7</text></g>
<rect x="460" y="960" width="50" height="50" fill="white" stroke-width="2.0" stroke="black"></rect>
<rect x="510" y="960" width="50" height="50" fill="white" stroke-width="2.0" stroke="black"></rect>
<rect x="560" y="960" width="50" height="50" fill="white" stroke-width="2.0" stroke="black"></rect>
<rect x="610" y="960" width="50" height="50" fill="white" stroke-width="2.0" stroke="black"></rect>
<rect x="660" y="960" width="50" height="50" fill="white" stroke-width="2.0" stroke="black"></rect>
<rect x="710" y="960" width="50" height="50" fill="white" stroke-width="2.0" stroke="black"></rect>
<rect x="760" y="960" width="50" height="50" fill="white" stroke-width="2.0" stroke="black"></rect>
<rect x="810" y="960" width="50" height="50" fill="white" stroke-width="2.0" stroke="black"></rect>
<rect x="860" y="960" width="50" height="50" fill="white" stroke-width="2.0" stroke="black"></rect>
<g><rect x="60" y="1010" width="50" height="50" fill="white" stroke-width="2.0" stroke="black"></rect><text x="62.5" y="1020.0" font-family="Times New Roman" fill="black" font-size="10.0">18</text></g>
<rect x="110" y="1010" width="50" height="50" fill="white" stroke-width="2.0" stroke="black"></rect>
<rect x="160" y="1010" width="50" height="50" fill="white" stroke-width="2.0" stroke="black"></rect>
<rect x="210" y="1010" width="50" height="50" fill="white" stroke-width="2.0" stroke="black"></rect>
<rect x="260" y="1010" width="50" height="50" fill="white" stroke-width="2.0" stroke="black"></rect>
<rect x="310" y="1010" width="50" height="50" fill="white" stroke-width="2.0" stroke="black"></rect>
<rect x="360" y="1010" width="50" height="50" fill="white" stroke-width="2.0" stroke="black"></rect>
<rect x="410" y="1010" width="50" height="50" fill="white" stroke-width="2.0" stroke="black"></rect>
<rect x="660" y="1010" width="50" height="50" fill="white" stroke-width="2.0" stroke="black"></rect>
<rect x="60" y="1060" width="50" height="50" fill="white" stroke-width="2.0" stroke="black"></rect>
<rect x="410" y="1060" width="50" height="50" fill="white" stroke-width="2.0" stroke="black"></rect>
<rect x="660" y="1060" width="50" height="50" fill="white" stroke-width="2.0" stroke="black"></rect>
<rect x="60" y="1110" width="50" height="50" fill="white" stroke-width="2.0" stroke="black"></rect>
<g><rect x="460" y="1110" width="50" height="50" fill="white" stroke-width="2.0" stroke="black"></rect><text x="462.5" y="1120.0" font-family="Times New Roman" fill="black" font-size="10.0">20</text></g>
<rect x="510" y="1110" width="50" height="50" fill="white" stroke-width="2.0" stroke="black"></rect>
<rect x="560" y="1110" width="50" height="50" fill="white" stroke-width="2.0" stroke="black"></rect>
<rect x="610" y="1110" width="50" height="50" fill="white" stroke-width="2.0" stroke="black"></rect>
<rect x="660" y="1110" width="50" height="50" fill="white" stroke-width="2.0" stroke="black"></rect>
<rect x="660" y="1160" width="50" height="50" fill="white" stroke-width="2.0" stroke="black"></rect>
<rect x="660" y="1210" width="50" height="50" fill="white" stroke-width="2.0" stroke="black"></rect>
<rect x="660" y="1260" width="50" height="50" fill="white" stroke-width="2.0" stroke="black"></rect>
<rect x="660" y="1310" width="50" height="50" fill="white" stroke-width="2.0" stroke="black"></rect>
</svg>