<svg xmlns="http://www.w3.org/2000/svg" width="1750" height="1100">
<g><rect x="1060" y="10" width="50" height="50" fill="white" stroke-width="2.0" stroke="black"></rect><text x="1062.5" y="30.0" font-family="Times New Roman" fill="black" font-size="20.0">7</text></g>
<rect x="1060" y="60" width="50" height="50" fill="white" stroke-width="2.0" stroke="black"></rect>
<rect x="1060" y="110" width="50" height="50" fill="white" stroke-width="2.0" stroke="black"></rect>
<rect x="1060" y="160" width="50" height="50" fill="white" stroke-width="2.0" stroke="black"></rect>
<rect x="1060" y="210" width="50" height="50" fill="white" stroke-width="2.0" stroke="black"></rect>
<g><rect x="510" y="260" width="50" height="50" fill="white" stroke-width="2.0" stroke="black"></rect><text x="512.5" y="280.0" font-family="Times New Roman" fill="black" font-size="20.0">10</text></g>
<rect x="1060" y="260" width="50" height="50" fill="white" stroke-width="2.0" stroke="black"></rect>
<rect x="510" y="310" width="50" height="50" fill="white" stroke-width="2.0" stroke="black"></rect>
<g><rect x="760" y="310" width="50" height="50" fill="white" stroke-width="2.0" stroke="black"></rect><text x="762.5" y="330.0" font-family="Times New Roman" fill="black" font-size="20.0">6</text></g>
<g><rect x="810" y="310" width="50" height="50" fill="white" stroke-width="2.0" stroke="black"></rect><text x="812.5" y="330.0" font-family="Times New Roman" fill="black" font-size="20.0">2</text></g>
<rect x="860" y="310" width="50" height="50" fill="white" stroke-width="2.0" stroke="black"></rect>
<rect x="910" y="310" width="50" height="50" fill="white" stroke-width="2.0" stroke="black"></rect>
<rect x="960" y="310" width="50" height="50" fill="white" stroke-width="2.0" stroke="black"></rect>
<rect x="1010" y="310" width="50" height="50" fill="white" stroke-width="2.0" stroke="black"></rect>
<rect x="1060" y="310" width="50" height="50" fill="white" stroke-width="2.0" stroke="black"></rect>
<rect x="1110" y="310" width="50" height="50" fill="white" stroke-width="2.0" stroke="black"></rect>
<rect x="1160" y="310" width="50" height="50" fill="white" stroke-width="2.0" stroke="black"></rect>
<rect x="1210" y="310" width="50" height="50" fill="white" stroke-width="2.0" stroke="black"></rect>
<rect x="510" y="360" width="50" height="50" fill="white" stroke-width="2.0" stroke="black"></rect>
<rect x="810" y="360" width="50" height="50" fill="white" stroke-width="2.0" stroke="black"></rect>
<rect x="1060" y="360" width="50" height="50" fill="white" stroke-width="2.0" stroke="black"></rect>
<g><rect x="10" y="410" width="50" height="50" fill="white" stroke-width="2.0" stroke="black"></rect><text x="12.5" y="430.0" font-family="Times New Roman" fill="black" font-size="20.0">16</text></g>
<g><rect x="510" y="410" width="50" height="50" fill="white" stroke-width="2.0" stroke="black"></rect><text x="512.5" y="430.0" font-family="Times New Roman" fill="black" font-size="20.0">1</text></g>
<rect x="560" y="410" width="50" height="50" fill="white" stroke-width="2.0" stroke="black"></rect>
<rect x="610" y="410" width="50" height="50" fill="white" stroke-width="2.0" stroke="black"></rect>
<rect x="660" y="410" width="50" height="50" fill="white" stroke-width="2.0" stroke="black"></rect>
<g><rect x="710" y="410" width="50" height="50" fill="white" stroke-width="2.0" stroke="black"></rect><text x="712.5" y="430.0" font-family="Times New Roman" fill="black" font-size="20.0">14</text></g>
<rect x="760" y="410" width="50" height="50" fill="white" stroke-width="2.0" stroke="black"></rect>
<rect x="810" y="410" width="50" height="50" fill="white" stroke-width="2.0" stroke="black"></rect>
<rect x="860" y="410" width="50" height="50" fill="white" stroke-width="2.0" stroke="black"></rect>
<rect x="910" y="410" width="50" height="50" fill="white" stroke-width="2.0" stroke="black"></rect>
<rect x="1060" y="410" width="50" height="50" fill="white" stroke-width="2.0" stroke="black"></rect>
<rect x="10" y="460" width="50" height="50" fill="white" stroke-width="2.0" stroke="black"></rect>
<rect x="510" y="460" width="50" height="50" fill="white" stroke-width="2.0" stroke="black"></rect>
<rect x="710" y="460" width="50" height="50" fill="white" stroke-width="2.0" stroke="black"></rect>
<rect x="810" y="460" width="50" height="50" fill="white" stroke-width="2.0" stroke="black"></rect>
<g><rect x="1010" y="460" width="50" height="50" fill="white" stroke-width="2.0" stroke="black"></rect><text x="1012.5" y="480.0" font-family="Times New Roman" fill="black" font-size="20.0">13</text></g>
<rect x="1060" y="460" width="50" height="50" fill="white" stroke-width="2.0" stroke="black"></rect>
<rect x="1110" y="460" width="50" height="50" fill="white" stroke-width="2.0" stroke="black"></rect>
<rect x="1160" y="460" width="50" height="50" fill="white" stroke-width="2.0" stroke="black"></rect>
<rect x="1210" y="460" width="50" height="50" fill="white" stroke-width="2.0" stroke="black"></rect>
<rect x="10" y="510" width="50" height="50" fill="white" stroke-width="2.0" stroke="black"></rect>
<rect x="510" y="510" width="50" height="50" fill="white" stroke-width="2.0" stroke="black"></rect>
<rect x="710" y="510" width="50" height="50" fill="white" stroke-width="2.0" stroke="black"></rect>
<rect x="810" y="510" width="50" height="50" fill="white" stroke-width="2.0" stroke="black"></rect>
<rect x="1060" y="510" width="50" height="50" fill="white" stroke-width="2.0" stroke="black"></rect>
<g><rect x="10" y="560" width="50" height="50" fill="white" stroke-width="2.0" stroke="black"></rect><text x="12.5" y="580.0" font-family="Times New Roman" fill="black" font-size="20.0">21</text></g>
<rect x="60" y="560" width="50" height="50" fill="white" stroke-width="2.0" stroke="black"></rect>
<rect x="110" y="560" width="50" height="50" fill="white" stroke-width="2.0" stroke="black"></rect>
<rect x="160" y="560" width="50" height="50" fill="white" stroke-width="2.0" stroke="black"></rect>
<rect x="210" y="560" width="50" height="50" fill="white" stroke-width="2.0" stroke="black"></rect>
<g><rect x="260" y="560" width="50" height="50" fill="white" stroke-width="2.0" stroke="black"></rect><text x="262.5" y="580.0" font-family="Times New Roman" fill="black" font-size="20.0">15</text></g>
<rect x="310" y="560" width="50" height="50" fill="white" stroke-width="2.0" stroke="black"></rect>
<rect x="510" y="560" width="50" height="50" fill="white" stroke-width="2.0" stroke="black"></rect>
<rect x="1060" y="560" width="50" height="50" fill="white" stroke-width="2.0" stroke="black"></rect>
<g><rect x="1160" y="560" width="50" height="50" fill="white" stroke-width="2.0" stroke="black"></rect><text x="1162.5" y="580.0" font-family="Times New Roman" fill="black" font-size="20.0">18</text></g>
<rect x="1210" y="560" width="50" height="50" fill="white" stroke-width="2.0" stroke="black"></rect>
<rect x="1260" y="560" width="50" height="50" fill="white" stroke-width="2.0" stroke="black"></rect>
<rect x="10" y="610" width="50" height="50" fill="white" stroke-width="2.0" stroke="black"></rect>
<rect x="260" y="610" width="50" height="50" fill="white" stroke-width="2.0" stroke="black"></rect>
<rect x="510" y="610" width="50" height="50" fill="white" stroke-width="2.0" stroke="black"></rect>
<rect x="1160" y="610" width="50" height="50" fill="white" stroke-width="2.0" stroke="black"></rect>
<rect x="10" y="660" width="50" height="50" fill="white" stroke-width="2.0" stroke="black"></rect>
<rect x="260" y="660" width="50" height="50" fill="white" stroke-width="2.0" stroke="black"></rect>
<rect x="510" y="660" width="50" height="50" fill="white" stroke-width="2.0" stroke="black"></rect>
<g><rect x="810" y="660" width="50" height="50" fill="white" stroke-width="2.0" stroke="black"></rect><text x="812.5" y="680.0" font-family="Times New Roman" fill="black" font-size="20.0">4</text></g>
<rect x="1160" y="660" width="50" height="50" fill="white" stroke-width="2.0" stroke="black"></rect>
<g><rect x="1460" y="660" width="50" height="50" fill="white" stroke-width="2.0" stroke="black"></rect><text x="1462.5" y="680.0" font-family="Times New Roman" fill="black" font-size="20.0">5</text></g>
<rect x="10" y="710" width="50" height="50" fill="white" stroke-width="2.0" stroke="black"></rect>
<rect x="260" y="710" width="50" height="50" fill="white" stroke-width="2.0" stroke="black"></rect>
<g><rect x="510" y="710" width="50" height="50" fill="white" stroke-width="2.0" stroke="black"></rect><text x="512.5" y="730.0" font-family="Times New Roman" fill="black" font-size="20.0">3</text></g>
<rect x="560" y="710" width="50" height="50" fill="white" stroke-width="2.0" stroke="black"></rect>
<rect x="610" y="710" width="50" height="50" fill="white" stroke-width="2.0" stroke="black"></rect>
<rect x="660" y="710" width="50" height="50" fill="white" stroke-width="2.0" stroke="black"></rect>
<rect x="710" y="710" width="50" height="50" fill="white" stroke-width="2.0" stroke="black"></rect>
<rect x="760" y="710" width="50" height="50" fill="white" stroke-width="2.0" stroke="black"></rect>
<rect x="810" y="710" width="50" height="50" fill="white" stroke-width="2.0" stroke="black"></rect>
<rect x="860" y="710" width="50" height="50" fill="white" stroke-width="2.0" stroke="black"></rect>
<g><rect x="1160" y="710" width="50" height="50" fill="white" stroke-width="2.0" stroke="black"></rect><text x="1162.5" y="730.0" font-family="Times New Roman" fill="black" font-size="20.0">19</text></g>
<rect x="1210" y="710" width="50" height="50" fill="white" stroke-width="2.0" stroke="black"></rect>
<rect x="1260" y="710" width="50" height="50" fill="white" stroke-width="2.0" stroke="black"></rect>
<rect x="1310" y="710" width="50" height="50" fill="white" stroke-width="2.0" stroke="black"></rect>
<rect x="1360" y="710" width="50" height="50" fill="white" stroke-width="2.0" stroke="black"></rect>
<rect x="1410" y="710" width="50" height="50" fill="white" stroke-width="2.0" stroke="black"></rect>
<rect x="1460" y="710" width="50" height="50" fill="white" stroke-width="2.0" stroke="black"></rect>
<rect x="1510" y="710" width="50" height="50" fill="white" stroke-width="2.0" stroke="black"></rect>
<rect x="1560" y="710" width="50" height="50" fill="white" stroke-width="2.0" stroke="black"></rect>
<rect x="260" y="760" width="50" height="50" fill="white" stroke-width="2.0" stroke="black"></rect>
<rect x="510" y="760" width="50" height="50" fill="white" stroke-width="2.0" stroke="black"></rect>
<rect x="810" y="760" width="50" height="50" fill="white" stroke-width="2.0" stroke="black"></rect>
<rect x="1160" y="760" width="50" height="50" fill="white" stroke-width="2.0" stroke="black"></rect>
<rect x="1460" y="760" width="50" height="50" fill="white" stroke-width="2.0" stroke="black"></rect>
<g><rect x="260" y="810" width="50" height="50" fill="white" stroke-width="2.0" stroke="black"></rect><text x="262.5" y="830.0" font-family="Times New Roman" fill="black" font-size="20.0">11</text></g>
<rect x="310" y="810" width="50" height="50" fill="white" stroke-width="2.0" stroke="black"></rect>
<rect x="360" y="810" width="50" height="50" fill="white" stroke-width="2.0" stroke="black"></rect>
<rect x="410" y="810" width="50" height="50" fill="white" stroke-width="2.0" stroke="black"></rect>
<rect x="460" y="810" width="50" height="50" fill="white" stroke-width="2.0" stroke="black"></rect>
<rect x="510" y="810" width="50" height="50" fill="white" stroke-width="2.0" stroke="black"></rect>
<rect x="560" y="810" width="50" height="50" fill="white" stroke-width="2.0" stroke="black"></rect>
<rect x="610" y="810" width="50" height="50" fill="white" stroke-width="2.0" stroke="black"></rect>
<rect x="810" y="810" width="50" height="50" fill="white" stroke-width="2.0" stroke="black"></rect>
<rect x="1160" y="810" width="50" height="50" fill="white" stroke-width="2.0" stroke="black"></rect>
<g><rect x="1460" y="810" width="50" height="50" fill="white" stroke-width="2.0" stroke="black"></rect><text x="1462.5" y="830.0" font-family="Times New Roman" fill="black" font-size="20.0">9</text></g>
<rect x="1510" y="810" width="50" height="50" fill="white" stroke-width="2.0" stroke="black"></rect>
<rect x="1560" y="810" width="50" height="50" fill="white" stroke-width="2.0" stroke="black"></rect>
<g><rect x="1610" y="810" width="50" height="50" fill="white" stroke-width="2.0" stroke="black"></rect><text x="1612.5" y="830.0" font-family="Times New Roman" fill="black" font-size="20.0">12</text></g>
<rect x="1660" y="810" width="50" height="50" fill="white" stroke-width="2.0" stroke="black"></rect>
<rect x="510" y="860" width="50" height="50" fill="white" stroke-width="2.0" stroke="black"></rect>
<g><rect x="710" y="860" width="50" height="50" fill="white" stroke-width="2.0" stroke="black"></rect><text x="712.5" y="880.0" font-family="Times New Roman" fill="black" font-size="20.0">20</text></g>
<rect x="760" y="860" width="50" height="50" fill="white" stroke-width="2.0" stroke="black"></rect>
<rect x="810" y="860" width="50" height="50" fill="white" stroke-width="2.0" stroke="black"></rect>
<rect x="860" y="860" width="50" height="50" fill="white" stroke-width="2.0" stroke="black"></rect>
<rect x="910" y="860" width="50" height="50" fill="white" stroke-width="2.0" stroke="black"></rect>
<rect x="960" y="860" width="50" height="50" fill="white" stroke-width="2.0" stroke="black"></rect>
<rect x="1160" y="860" width="50" height="50" fill="white" stroke-width="2.0" stroke="black"></rect>
<rect x="1460" y="860" width="50" height="50" fill="white" stroke-width="2.0" stroke="black"></rect>
<rect x="1610" y="860" width="50" height="50" fill="white" stroke-width="2.0" stroke="black"></rect>
<rect x="810" y="910" width="50" height="50" fill="white" stroke-width="2.0" stroke="black"></rect>
<rect x="1160" y="910" width="50" height="50" fill="white" stroke-width="2.0" stroke="black"></rect>
<g><rect x="1560" y="910" width="50" height="50" fill="white" stroke-width="2.0" stroke="black"></rect><text x="1562.5" y="930.0" font-family="Times New Roman" fill="black" font-size="20.0">17</text></g>
<rect x="1610" y="910" width="50" height="50" fill="white" stroke-width="2.0" stroke="black"></rect>
<rect x="1660" y="910" width="50" height="50" fill="white" stroke-width="2.0" stroke="black"></rect>
<g><rect x="760" y="960" width="50" height="50" fill="white" stroke-width="2.0" stroke="black"></rect><text x="762.5" y="980.0" font-family="Times New Roman" fill="black" font-size="20.0">8</text></g>
<rect x="810" y="960" width="50" height="50" fill="white" stroke-width="2.0" stroke="black"></rect>
<rect x="860" y="960" width="50" height="50" fill="white" stroke-width="2.0" stroke="black"></rect>
<rect x="910" y="960" width="50" height="50" fill="white" stroke-width="2.0" stroke="black"></rect>
<rect x="960" y="960" width="50" height="50" fill="white" stroke-width="2.0" stroke="black"></rect>
<rect x="1010" y="960" width="50" height="50" fill="white" stroke-width="2.0" stroke="black"></rect>
<rect x="1060" y="960" width="50" height="50" fill="white" stroke-width="2.0" stroke="black"></rect>
<rect x="1110" y="960" width="50" height="50" fill="white" stroke-width="2.0" stroke="black"></rect>
<rect x="1160" y="960" width="50" height="50" fill="white" stroke-width="2.0" stroke="black"></rect>
<rect x="1210" y="960" width="50" height="50" fill="white" stroke-width="2.0" stroke="black"></rect>
<rect x="1260" y="960" width="50" height="50" fill="white" stroke-width="2.0" stroke="black"></rect>
<rect x="1610" y="960" width="50" height="50" fill="white" stroke-width="2.0" stroke="black"></rect>
<rect x="1160" y="1010" width="50" height="50" fill="white" stroke-width="2.0" stroke="black"></rect>
</svg>