<svg xmlns="http://www.w3.org/2000/svg" width="1350" height="2100">
<g><rect x="110" y="10" width="50" height="50" fill="white" stroke-width="2.0" stroke="black"></rect><text x="112.5" y="30.0" font-family="Times New Roman" fill="black" font-size="20.0">4</text></g>
<g><rect x="60" y="60" width="50" height="50" fill="white" stroke-width="2.0" stroke="black"></rect><text x="62.5" y="80.0" font-family="Times New Roman" fill="black" font-size="20.0">16</text></g>
<rect x="110" y="60" width="50" height="50" fill="white" stroke-width="2.0" stroke="black"></rect>
<rect x="160" y="60" width="50" height="50" fill="white" stroke-width="2.0" stroke="black"></rect>
<rect x="210" y="60" width="50" height="50" fill="white" stroke-width="2.0" stroke="black"></rect>
<rect x="260" y="60" width="50" height="50" fill="white" stroke-width="2.0" stroke="black"></rect>
<rect x="110" y="110" width="50" height="50" fill="white" stroke-width="2.0" stroke="black"></rect>
<rect x="110" y="160" width="50" height="50" fill="white" stroke-width="2.0" stroke="black"></rect>
<g><rect x="60" y="210" width="50" height="50" fill="white" stroke-width="2.0" stroke="black"></rect><text x="62.5" y="230.0" font-family="Times New Roman" fill="black" font-size="20.0">15</text></g>
<rect x="110" y="210" width="50" height="50" fill="white" stroke-width="2.0" stroke="black"></rect>
<rect x="160" y="210" width="50" height="50" fill="white" stroke-width="2.0" stroke="black"></rect>
<rect x="210" y="210" width="50" height="50" fill="white" stroke-width="2.0" stroke="black"></rect>
<g><rect x="260" y="210" width="50" height="50" fill="white" stroke-width="2.0" stroke="black"></rect><text x="262.5" y="230.0" font-family="Times New Roman" fill="black" font-size="20.0">5</text></g>
<rect x="310" y="210" width="50" height="50" fill="white" stroke-width="2.0" stroke="black"></rect>
<rect x="360" y="210" width="50" height="50" fill="white" stroke-width="2.0" stroke="black"></rect>
<rect x="410" y="210" width="50" height="50" fill="white" stroke-width="2.0" stroke="black"></rect>
<rect x="460" y="210" width="50" height="50" fill="white" stroke-width="2.0" stroke="black"></rect>
<rect x="510" y="210" width="50" height="50" fill="white" stroke-width="2.0" stroke="black"></rect>
<rect x="260" y="260" width="50" height="50" fill="white" stroke-width="2.0" stroke="black"></rect>
<g><rect x="10" y="310" width="50" height="50" fill="white" stroke-width="2.0" stroke="black"></rect><text x="12.5" y="330.0" font-family="Times New Roman" fill="black" font-size="20.0">20</text></g>
<rect x="60" y="310" width="50" height="50" fill="white" stroke-width="2.0" stroke="black"></rect>
<g><rect x="110" y="310" width="50" height="50" fill="white" stroke-width="2.0" stroke="black"></rect><text x="112.5" y="330.0" font-family="Times New Roman" fill="black" font-size="20.0">21</text></g>
<rect x="160" y="310" width="50" height="50" fill="white" stroke-width="2.0" stroke="black"></rect>
<rect x="210" y="310" width="50" height="50" fill="white" stroke-width="2.0" stroke="black"></rect>
<rect x="260" y="310" width="50" height="50" fill="white" stroke-width="2.0" stroke="black"></rect>
<rect x="110" y="360" width="50" height="50" fill="white" stroke-width="2.0" stroke="black"></rect>
<rect x="260" y="360" width="50" height="50" fill="white" stroke-width="2.0" stroke="black"></rect>
<g><rect x="360" y="360" width="50" height="50" fill="white" stroke-width="2.0" stroke="black"></rect><text x="362.5" y="380.0" font-family="Times New Roman" fill="black" font-size="20.0">19</text></g>
<rect x="110" y="410" width="50" height="50" fill="white" stroke-width="2.0" stroke="black"></rect>
<rect x="260" y="410" width="50" height="50" fill="white" stroke-width="2.0" stroke="black"></rect>
<rect x="360" y="410" width="50" height="50" fill="white" stroke-width="2.0" stroke="black"></rect>
<rect x="110" y="460" width="50" height="50" fill="white" stroke-width="2.0" stroke="black"></rect>
<rect x="260" y="460" width="50" height="50" fill="white" stroke-width="2.0" stroke="black"></rect>
<rect x="360" y="460" width="50" height="50" fill="white" stroke-width="2.0" stroke="black"></rect>
<rect x="110" y="510" width="50" height="50" fill="white" stroke-width="2.0" stroke="black"></rect>
<rect x="260" y="510" width="50" height="50" fill="white" stroke-width="2.0" stroke="black"></rect>
<rect x="360" y="510" width="50" height="50" fill="white" stroke-width="2.0" stroke="black"></rect>
<rect x="260" y="560" width="50" height="50" fill="white" stroke-width="2.0" stroke="black"></rect>
<rect x="360" y="560" width="50" height="50" fill="white" stroke-width="2.0" stroke="black"></rect>
<g><rect x="260" y="610" width="50" height="50" fill="white" stroke-width="2.0" stroke="black"></rect><text x="262.5" y="630.0" font-family="Times New Roman" fill="black" font-size="20.0">10</text></g>
<rect x="310" y="610" width="50" height="50" fill="white" stroke-width="2.0" stroke="black"></rect>
<rect x="360" y="610" width="50" height="50" fill="white" stroke-width="2.0" stroke="black"></rect>
<rect x="410" y="610" width="50" height="50" fill="white" stroke-width="2.0" stroke="black"></rect>
<rect x="460" y="610" width="50" height="50" fill="white" stroke-width="2.0" stroke="black"></rect>
<rect x="510" y="610" width="50" height="50" fill="white" stroke-width="2.0" stroke="black"></rect>
<rect x="560" y="610" width="50" height="50" fill="white" stroke-width="2.0" stroke="black"></rect>
<rect x="260" y="660" width="50" height="50" fill="white" stroke-width="2.0" stroke="black"></rect>
<rect x="360" y="660" width="50" height="50" fill="white" stroke-width="2.0" stroke="black"></rect>
<rect x="360" y="710" width="50" height="50" fill="white" stroke-width="2.0" stroke="black"></rect>
<rect x="360" y="760" width="50" height="50" fill="white" stroke-width="2.0" stroke="black"></rect>
<g><rect x="360" y="810" width="50" height="50" fill="white" stroke-width="2.0" stroke="black"></rect><text x="362.5" y="830.0" font-family="Times New Roman" fill="black" font-size="20.0">12</text></g>
<rect x="410" y="810" width="50" height="50" fill="white" stroke-width="2.0" stroke="black"></rect>
<rect x="460" y="810" width="50" height="50" fill="white" stroke-width="2.0" stroke="black"></rect>
<rect x="360" y="860" width="50" height="50" fill="white" stroke-width="2.0" stroke="black"></rect>
<rect x="360" y="910" width="50" height="50" fill="white" stroke-width="2.0" stroke="black"></rect>
<g><rect x="510" y="910" width="50" height="50" fill="white" stroke-width="2.0" stroke="black"></rect><text x="512.5" y="930.0" font-family="Times New Roman" fill="black" font-size="20.0">2</text></g>
<g><rect x="660" y="910" width="50" height="50" fill="white" stroke-width="2.0" stroke="black"></rect><text x="662.5" y="930.0" font-family="Times New Roman" fill="black" font-size="20.0">17</text></g>
<g><rect x="360" y="960" width="50" height="50" fill="white" stroke-width="2.0" stroke="black"></rect><text x="362.5" y="980.0" font-family="Times New Roman" fill="black" font-size="20.0">1</text></g>
<rect x="410" y="960" width="50" height="50" fill="white" stroke-width="2.0" stroke="black"></rect>
<rect x="460" y="960" width="50" height="50" fill="white" stroke-width="2.0" stroke="black"></rect>
<rect x="510" y="960" width="50" height="50" fill="white" stroke-width="2.0" stroke="black"></rect>
<rect x="560" y="960" width="50" height="50" fill="white" stroke-width="2.0" stroke="black"></rect>
<rect x="660" y="960" width="50" height="50" fill="white" stroke-width="2.0" stroke="black"></rect>
<rect x="510" y="1010" width="50" height="50" fill="white" stroke-width="2.0" stroke="black"></rect>
<rect x="660" y="1010" width="50" height="50" fill="white" stroke-width="2.0" stroke="black"></rect>
<g><rect x="360" y="1060" width="50" height="50" fill="white" stroke-width="2.0" stroke="black"></rect><text x="362.5" y="1080.0" font-family="Times New Roman" fill="black" font-size="20.0">3</text></g>
<rect x="410" y="1060" width="50" height="50" fill="white" stroke-width="2.0" stroke="black"></rect>
<rect x="460" y="1060" width="50" height="50" fill="white" stroke-width="2.0" stroke="black"></rect>
<rect x="510" y="1060" width="50" height="50" fill="white" stroke-width="2.0" stroke="black"></rect>
<rect x="560" y="1060" width="50" height="50" fill="white" stroke-width="2.0" stroke="black"></rect>
<rect x="610" y="1060" width="50" height="50" fill="white" stroke-width="2.0" stroke="black"></rect>
<rect x="660" y="1060" width="50" height="50" fill="white" stroke-width="2.0" stroke="black"></rect>
<rect x="710" y="1060" width="50" height="50" fill="white" stroke-width="2.0" stroke="black"></rect>
<rect x="760" y="1060" width="50" height="50" fill="white" stroke-width="2.0" stroke="black"></rect>
<rect x="810" y="1060" width="50" height="50" fill="white" stroke-width="2.0" stroke="black"></rect>
<rect x="860" y="1060" width="50" height="50" fill="white" stroke-width="2.0" stroke="black"></rect>
<rect x="510" y="1110" width="50" height="50" fill="white" stroke-width="2.0" stroke="black"></rect>
<rect x="660" y="1110" width="50" height="50" fill="white" stroke-width="2.0" stroke="black"></rect>
<rect x="510" y="1160" width="50" height="50" fill="white" stroke-width="2.0" stroke="black"></rect>
<g><rect x="610" y="1160" width="50" height="50" fill="white" stroke-width="2.0" stroke="black"></rect><text x="612.5" y="1180.0" font-family="Times New Roman" fill="black" font-size="20.0">8</text></g>
<rect x="660" y="1160" width="50" height="50" fill="white" stroke-width="2.0" stroke="black"></rect>
<rect x="710" y="1160" width="50" height="50" fill="white" stroke-width="2.0" stroke="black"></rect>
<rect x="760" y="1160" width="50" height="50" fill="white" stroke-width="2.0" stroke="black"></rect>
<rect x="810" y="1160" width="50" height="50" fill="white" stroke-width="2.0" stroke="black"></rect>
<rect x="860" y="1160" width="50" height="50" fill="white" stroke-width="2.0" stroke="black"></rect>
<rect x="910" y="1160" width="50" height="50" fill="white" stroke-width="2.0" stroke="black"></rect>
<rect x="660" y="1210" width="50" height="50" fill="white" stroke-width="2.0" stroke="black"></rect>
<g><rect x="960" y="1210" width="50" height="50" fill="white" stroke-width="2.0" stroke="black"></rect><text x="962.5" y="1230.0" font-family="Times New Roman" fill="black" font-size="20.0">18</text></g>
<g><rect x="660" y="1260" width="50" height="50" fill="white" stroke-width="2.0" stroke="black"></rect><text x="662.5" y="1280.0" font-family="Times New Roman" fill="black" font-size="20.0">7</text></g>
<rect x="710" y="1260" width="50" height="50" fill="white" stroke-width="2.0" stroke="black"></rect>
<g><rect x="760" y="1260" width="50" height="50" fill="white" stroke-width="2.0" stroke="black"></rect><text x="762.5" y="1280.0" font-family="Times New Roman" fill="black" font-size="20.0">13</text></g>
<rect x="810" y="1260" width="50" height="50" fill="white" stroke-width="2.0" stroke="black"></rect>
<rect x="860" y="1260" width="50" height="50" fill="white" stroke-width="2.0" stroke="black"></rect>
<rect x="910" y="1260" width="50" height="50" fill="white" stroke-width="2.0" stroke="black"></rect>
<rect x="960" y="1260" width="50" height="50" fill="white" stroke-width="2.0" stroke="black"></rect>
<rect x="1010" y="1260" width="50" height="50" fill="white" stroke-width="2.0" stroke="black"></rect>
<rect x="660" y="1310" width="50" height="50" fill="white" stroke-width="2.0" stroke="black"></rect>
<rect x="760" y="1310" width="50" height="50" fill="white" stroke-width="2.0" stroke="black"></rect>
<rect x="960" y="1310" width="50" height="50" fill="white" stroke-width="2.0" stroke="black"></rect>
<rect x="760" y="1360" width="50" height="50" fill="white" stroke-width="2.0" stroke="black"></rect>
<rect x="760" y="1410" width="50" height="50" fill="white" stroke-width="2.0" stroke="black"></rect>
<g><rect x="860" y="1410" width="50" height="50" fill="white" stroke-width="2.0" stroke="black"></rect><text x="862.5" y="1430.0" font-family="Times New Roman" fill="black" font-size="20.0">14</text></g>
<rect x="760" y="1460" width="50" height="50" fill="white" stroke-width="2.0" stroke="black"></rect>
<rect x="860" y="1460" width="50" height="50" fill="white" stroke-width="2.0" stroke="black"></rect>
<rect x="760" y="1510" width="50" height="50" fill="white" stroke-width="2.0" stroke="black"></rect>
<rect x="860" y="1510" width="50" height="50" fill="white" stroke-width="2.0" stroke="black"></rect>
<g><rect x="710" y="1560" width="50" height="50" fill="white" stroke-width="2.0" stroke="black"></rect><text x="712.5" y="1580.0" font-family="Times New Roman" fill="black" font-size="20.0">9</text></g>
<rect x="760" y="1560" width="50" height="50" fill="white" stroke-width="2.0" stroke="black"></rect>
<rect x="810" y="1560" width="50" height="50" fill="white" stroke-width="2.0" stroke="black"></rect>
<rect x="860" y="1560" width="50" height="50" fill="white" stroke-width="2.0" stroke="black"></rect>
<rect x="760" y="1610" width="50" height="50" fill="white" stroke-width="2.0" stroke="black"></rect>
<rect x="860" y="1610" width="50" height="50" fill="white" stroke-width="2.0" stroke="black"></rect>
<rect x="760" y="1660" width="50" height="50" fill="white" stroke-width="2.0" stroke="black"></rect>
<g><rect x="860" y="1660" width="50" height="50" fill="white" stroke-width="2.0" stroke="black"></rect><text x="862.5" y="1680.0" font-family="Times New Roman" fill="black" font-size="20.0">22</text></g>
<rect x="910" y="1660" width="50" height="50" fill="white" stroke-width="2.0" stroke="black"></rect>
<g><rect x="960" y="1660" width="50" height="50" fill="white" stroke-width="2.0" stroke="black"></rect><text x="962.5" y="1680.0" font-family="Times New Roman" fill="black" font-size="20.0">11</text></g>
<rect x="1010" y="1660" width="50" height="50" fill="white" stroke-width="2.0" stroke="black"></rect>
<rect x="1060" y="1660" width="50" height="50" fill="white" stroke-width="2.0" stroke="black"></rect>
<rect x="1110" y="1660" width="50" height="50" fill="white" stroke-width="2.0" stroke="black"></rect>
<rect x="1160" y="1660" width="50" height="50" fill="white" stroke-width="2.0" stroke="black"></rect>
<rect x="1210" y="1660" width="50" height="50" fill="white" stroke-width="2.0" stroke="black"></rect>
<rect x="1260" y="1660" width="50" height="50" fill="white" stroke-width="2.0" stroke="black"></rect>
<rect x="760" y="1710" width="50" height="50" fill="white" stroke-width="2.0" stroke="black"></rect>
<rect x="860" y="1710" width="50" height="50" fill="white" stroke-width="2.0" stroke="black"></rect>
<rect x="960" y="1710" width="50" height="50" fill="white" stroke-width="2.0" stroke="black"></rect>
<rect x="760" y="1760" width="50" height="50" fill="white" stroke-width="2.0" stroke="black"></rect>
<rect x="960" y="1760" width="50" height="50" fill="white" stroke-width="2.0" stroke="black"></rect>
<rect x="760" y="1810" width="50" height="50" fill="white" stroke-width="2.0" stroke="black"></rect>
<rect x="960" y="1810" width="50" height="50" fill="white" stroke-width="2.0" stroke="black"></rect>
<g><rect x="910" y="1860" width="50" height="50" fill="white" stroke-width="2.0" stroke="black"></rect><text x="912.5" y="1880.0" font-family="Times New Roman" fill="black" font-size="20.0">6</text></g>
<rect x="960" y="1860" width="50" height="50" fill="white" stroke-width="2.0" stroke="black"></rect>
<rect x="1010" y="1860" width="50" height="50" fill="white" stroke-width="2.0" stroke="black"></rect>
<rect x="960" y="1910" width="50" height="50" fill="white" stroke-width="2.0" stroke="black"></rect>
<rect x="960" y="1960" width="50" height="50" fill="white" stroke-width="2.0" stroke="black"></rect>
<rect x="960" y="2010" width="50" height="50" fill="white" stroke-width="2.0" stroke="black"></rect>
</svg>