<svg xmlns="http://www.w3.org/2000/svg" width="1650" height="1300">
<g><rect x="660" y="10" width="50" height="50" fill="white" stroke-width="2.0" stroke="black"></rect><text x="662.5" y="20.0" font-family="Times New Roman" fill="black" font-size="50">14</text></g>
<g><rect x="710" y="10" width="50" height="50" fill="white" stroke-width="2.0" stroke="black"></rect><text x="712.5" y="20.0" font-family="Times New Roman" fill="black" font-size="50">15</text></g>
<rect x="760" y="10" width="50" height="50" fill="white" stroke-width="2.0" stroke="black"></rect>
<rect x="810" y="10" width="50" height="50" fill="white" stroke-width="2.0" stroke="black"></rect>
<rect x="860" y="10" width="50" height="50" fill="white" stroke-width="2.0" stroke="black"></rect>
<rect x="910" y="10" width="50" height="50" fill="white" stroke-width="2.0" stroke="black"></rect>
<rect x="960" y="10" width="50" height="50" fill="white" stroke-width="2.0" stroke="black"></rect>
<rect x="1010" y="10" width="50" height="50" fill="white" stroke-width="2.0" stroke="black"></rect>
<rect x="1060" y="10" width="50" height="50" fill="white" stroke-width="2.0" stroke="black"></rect>
<rect x="1110" y="10" width="50" height="50" fill="white" stroke-width="2.0" stroke="black"></rect>
<rect x="1160" y="10" width="50" height="50" fill="white" stroke-width="2.0" stroke="black"></rect>
<rect x="1210" y="10" width="50" height="50" fill="white" stroke-width="2.0" stroke="black"></rect>
<rect x="710" y="60" width="50" height="50" fill="white" stroke-width="2.0" stroke="black"></rect>
<g><rect x="660" y="110" width="50" height="50" fill="white" stroke-width="2.0" stroke="black"></rect><text x="662.5" y="120.0" font-family="Times New Roman" fill="black" font-size="50">4</text></g>
<rect x="710" y="110" width="50" height="50" fill="white" stroke-width="2.0" stroke="black"></rect>
<rect x="760" y="110" width="50" height="50" fill="white" stroke-width="2.0" stroke="black"></rect>
<rect x="710" y="160" width="50" height="50" fill="white" stroke-width="2.0" stroke="black"></rect>
<g><rect x="660" y="210" width="50" height="50" fill="white" stroke-width="2.0" stroke="black"></rect><text x="662.5" y="220.0" font-family="Times New Roman" fill="black" font-size="50">9</text></g>
<rect x="710" y="210" width="50" height="50" fill="white" stroke-width="2.0" stroke="black"></rect>
<rect x="760" y="210" width="50" height="50" fill="white" stroke-width="2.0" stroke="black"></rect>
<g><rect x="810" y="210" width="50" height="50" fill="white" stroke-width="2.0" stroke="black"></rect><text x="812.5" y="220.0" font-family="Times New Roman" fill="black" font-size="50">18</text></g>
<g><rect x="1110" y="210" width="50" height="50" fill="white" stroke-width="2.0" stroke="black"></rect><text x="1112.5" y="220.0" font-family="Times New Roman" fill="black" font-size="50">16</text></g>
<rect x="810" y="260" width="50" height="50" fill="white" stroke-width="2.0" stroke="black"></rect>
<rect x="1110" y="260" width="50" height="50" fill="white" stroke-width="2.0" stroke="black"></rect>
<rect x="810" y="310" width="50" height="50" fill="white" stroke-width="2.0" stroke="black"></rect>
<g><rect x="960" y="310" width="50" height="50" fill="white" stroke-width="2.0" stroke="black"></rect><text x="962.5" y="320.0" font-family="Times New Roman" fill="black" font-size="50">2</text></g>
<g><rect x="1060" y="310" width="50" height="50" fill="white" stroke-width="2.0" stroke="black"></rect><text x="1062.5" y="320.0" font-family="Times New Roman" fill="black" font-size="50">11</text></g>
<rect x="1110" y="310" width="50" height="50" fill="white" stroke-width="2.0" stroke="black"></rect>
<rect x="1160" y="310" width="50" height="50" fill="white" stroke-width="2.0" stroke="black"></rect>
<rect x="1210" y="310" width="50" height="50" fill="white" stroke-width="2.0" stroke="black"></rect>
<rect x="1260" y="310" width="50" height="50" fill="white" stroke-width="2.0" stroke="black"></rect>
<rect x="1310" y="310" width="50" height="50" fill="white" stroke-width="2.0" stroke="black"></rect>
<rect x="1360" y="310" width="50" height="50" fill="white" stroke-width="2.0" stroke="black"></rect>
<rect x="810" y="360" width="50" height="50" fill="white" stroke-width="2.0" stroke="black"></rect>
<rect x="960" y="360" width="50" height="50" fill="white" stroke-width="2.0" stroke="black"></rect>
<rect x="1110" y="360" width="50" height="50" fill="white" stroke-width="2.0" stroke="black"></rect>
<g><rect x="760" y="410" width="50" height="50" fill="white" stroke-width="2.0" stroke="black"></rect><text x="762.5" y="420.0" font-family="Times New Roman" fill="black" font-size="50">1</text></g>
<rect x="810" y="410" width="50" height="50" fill="white" stroke-width="2.0" stroke="black"></rect>
<rect x="860" y="410" width="50" height="50" fill="white" stroke-width="2.0" stroke="black"></rect>
<rect x="910" y="410" width="50" height="50" fill="white" stroke-width="2.0" stroke="black"></rect>
<rect x="960" y="410" width="50" height="50" fill="white" stroke-width="2.0" stroke="black"></rect>
<rect x="1010" y="410" width="50" height="50" fill="white" stroke-width="2.0" stroke="black"></rect>
<rect x="1060" y="410" width="50" height="50" fill="white" stroke-width="2.0" stroke="black"></rect>
<rect x="1110" y="410" width="50" height="50" fill="white" stroke-width="2.0" stroke="black"></rect>
<rect x="1160" y="410" width="50" height="50" fill="white" stroke-width="2.0" stroke="black"></rect>
<rect x="1210" y="410" width="50" height="50" fill="white" stroke-width="2.0" stroke="black"></rect>
<rect x="1260" y="410" width="50" height="50" fill="white" stroke-width="2.0" stroke="black"></rect>
<rect x="810" y="460" width="50" height="50" fill="white" stroke-width="2.0" stroke="black"></rect>
<rect x="960" y="460" width="50" height="50" fill="white" stroke-width="2.0" stroke="black"></rect>
<rect x="1110" y="460" width="50" height="50" fill="white" stroke-width="2.0" stroke="black"></rect>
<g><rect x="1310" y="460" width="50" height="50" fill="white" stroke-width="2.0" stroke="black"></rect><text x="1312.5" y="470.0" font-family="Times New Roman" fill="black" font-size="50">20</text></g>
<rect x="1360" y="460" width="50" height="50" fill="white" stroke-width="2.0" stroke="black"></rect>
<rect x="1410" y="460" width="50" height="50" fill="white" stroke-width="2.0" stroke="black"></rect>
<rect x="1460" y="460" width="50" height="50" fill="white" stroke-width="2.0" stroke="black"></rect>
<rect x="1510" y="460" width="50" height="50" fill="white" stroke-width="2.0" stroke="black"></rect>
<rect x="1560" y="460" width="50" height="50" fill="white" stroke-width="2.0" stroke="black"></rect>
<rect x="810" y="510" width="50" height="50" fill="white" stroke-width="2.0" stroke="black"></rect>
<rect x="960" y="510" width="50" height="50" fill="white" stroke-width="2.0" stroke="black"></rect>
<rect x="1310" y="510" width="50" height="50" fill="white" stroke-width="2.0" stroke="black"></rect>
<rect x="810" y="560" width="50" height="50" fill="white" stroke-width="2.0" stroke="black"></rect>
<rect x="960" y="560" width="50" height="50" fill="white" stroke-width="2.0" stroke="black"></rect>
<g><rect x="1210" y="560" width="50" height="50" fill="white" stroke-width="2.0" stroke="black"></rect><text x="1212.5" y="570.0" font-family="Times New Roman" fill="black" font-size="50">17</text></g>
<rect x="1310" y="560" width="50" height="50" fill="white" stroke-width="2.0" stroke="black"></rect>
<rect x="810" y="610" width="50" height="50" fill="white" stroke-width="2.0" stroke="black"></rect>
<g><rect x="910" y="610" width="50" height="50" fill="white" stroke-width="2.0" stroke="black"></rect><text x="912.5" y="620.0" font-family="Times New Roman" fill="black" font-size="50">3</text></g>
<rect x="960" y="610" width="50" height="50" fill="white" stroke-width="2.0" stroke="black"></rect>
<rect x="1010" y="610" width="50" height="50" fill="white" stroke-width="2.0" stroke="black"></rect>
<rect x="1060" y="610" width="50" height="50" fill="white" stroke-width="2.0" stroke="black"></rect>
<rect x="1110" y="610" width="50" height="50" fill="white" stroke-width="2.0" stroke="black"></rect>
<rect x="1160" y="610" width="50" height="50" fill="white" stroke-width="2.0" stroke="black"></rect>
<rect x="1210" y="610" width="50" height="50" fill="white" stroke-width="2.0" stroke="black"></rect>
<rect x="1310" y="610" width="50" height="50" fill="white" stroke-width="2.0" stroke="black"></rect>
<rect x="810" y="660" width="50" height="50" fill="white" stroke-width="2.0" stroke="black"></rect>
<rect x="960" y="660" width="50" height="50" fill="white" stroke-width="2.0" stroke="black"></rect>
<rect x="1210" y="660" width="50" height="50" fill="white" stroke-width="2.0" stroke="black"></rect>
<g><rect x="1310" y="660" width="50" height="50" fill="white" stroke-width="2.0" stroke="black"></rect><text x="1312.5" y="670.0" font-family="Times New Roman" fill="black" font-size="50">21</text></g>
<rect x="1360" y="660" width="50" height="50" fill="white" stroke-width="2.0" stroke="black"></rect>
<rect x="1410" y="660" width="50" height="50" fill="white" stroke-width="2.0" stroke="black"></rect>
<rect x="810" y="710" width="50" height="50" fill="white" stroke-width="2.0" stroke="black"></rect>
<rect x="1210" y="710" width="50" height="50" fill="white" stroke-width="2.0" stroke="black"></rect>
<rect x="1310" y="710" width="50" height="50" fill="white" stroke-width="2.0" stroke="black"></rect>
<g><rect x="160" y="760" width="50" height="50" fill="white" stroke-width="2.0" stroke="black"></rect><text x="162.5" y="770.0" font-family="Times New Roman" fill="black" font-size="50">6</text></g>
<g><rect x="310" y="760" width="50" height="50" fill="white" stroke-width="2.0" stroke="black"></rect><text x="312.5" y="770.0" font-family="Times New Roman" fill="black" font-size="50">10</text></g>
<g><rect x="460" y="760" width="50" height="50" fill="white" stroke-width="2.0" stroke="black"></rect><text x="462.5" y="770.0" font-family="Times New Roman" fill="black" font-size="50">7</text></g>
<g><rect x="510" y="760" width="50" height="50" fill="white" stroke-width="2.0" stroke="black"></rect><text x="512.5" y="770.0" font-family="Times New Roman" fill="black" font-size="50">19</text></g>
<rect x="560" y="760" width="50" height="50" fill="white" stroke-width="2.0" stroke="black"></rect>
<rect x="610" y="760" width="50" height="50" fill="white" stroke-width="2.0" stroke="black"></rect>
<rect x="660" y="760" width="50" height="50" fill="white" stroke-width="2.0" stroke="black"></rect>
<rect x="710" y="760" width="50" height="50" fill="white" stroke-width="2.0" stroke="black"></rect>
<rect x="760" y="760" width="50" height="50" fill="white" stroke-width="2.0" stroke="black"></rect>
<rect x="810" y="760" width="50" height="50" fill="white" stroke-width="2.0" stroke="black"></rect>
<rect x="860" y="760" width="50" height="50" fill="white" stroke-width="2.0" stroke="black"></rect>
<rect x="910" y="760" width="50" height="50" fill="white" stroke-width="2.0" stroke="black"></rect>
<g><rect x="1010" y="760" width="50" height="50" fill="white" stroke-width="2.0" stroke="black"></rect><text x="1012.5" y="770.0" font-family="Times New Roman" fill="black" font-size="50">8</text></g>
<rect x="1060" y="760" width="50" height="50" fill="white" stroke-width="2.0" stroke="black"></rect>
<rect x="1110" y="760" width="50" height="50" fill="white" stroke-width="2.0" stroke="black"></rect>
<rect x="1160" y="760" width="50" height="50" fill="white" stroke-width="2.0" stroke="black"></rect>
<rect x="1210" y="760" width="50" height="50" fill="white" stroke-width="2.0" stroke="black"></rect>
<rect x="1260" y="760" width="50" height="50" fill="white" stroke-width="2.0" stroke="black"></rect>
<rect x="1310" y="760" width="50" height="50" fill="white" stroke-width="2.0" stroke="black"></rect>
<g><rect x="10" y="810" width="50" height="50" fill="white" stroke-width="2.0" stroke="black"></rect><text x="12.5" y="820.0" font-family="Times New Roman" fill="black" font-size="50">13</text></g>
<rect x="60" y="810" width="50" height="50" fill="white" stroke-width="2.0" stroke="black"></rect>
<rect x="110" y="810" width="50" height="50" fill="white" stroke-width="2.0" stroke="black"></rect>
<rect x="160" y="810" width="50" height="50" fill="white" stroke-width="2.0" stroke="black"></rect>
<rect x="210" y="810" width="50" height="50" fill="white" stroke-width="2.0" stroke="black"></rect>
<rect x="310" y="810" width="50" height="50" fill="white" stroke-width="2.0" stroke="black"></rect>
<rect x="510" y="810" width="50" height="50" fill="white" stroke-width="2.0" stroke="black"></rect>
<rect x="810" y="810" width="50" height="50" fill="white" stroke-width="2.0" stroke="black"></rect>
<rect x="1310" y="810" width="50" height="50" fill="white" stroke-width="2.0" stroke="black"></rect>
<rect x="160" y="860" width="50" height="50" fill="white" stroke-width="2.0" stroke="black"></rect>
<g><rect x="260" y="860" width="50" height="50" fill="white" stroke-width="2.0" stroke="black"></rect><text x="262.5" y="870.0" font-family="Times New Roman" fill="black" font-size="50">5</text></g>
<rect x="310" y="860" width="50" height="50" fill="white" stroke-width="2.0" stroke="black"></rect>
<rect x="360" y="860" width="50" height="50" fill="white" stroke-width="2.0" stroke="black"></rect>
<rect x="410" y="860" width="50" height="50" fill="white" stroke-width="2.0" stroke="black"></rect>
<rect x="460" y="860" width="50" height="50" fill="white" stroke-width="2.0" stroke="black"></rect>
<rect x="510" y="860" width="50" height="50" fill="white" stroke-width="2.0" stroke="black"></rect>
<rect x="560" y="860" width="50" height="50" fill="white" stroke-width="2.0" stroke="black"></rect>
<rect x="610" y="860" width="50" height="50" fill="white" stroke-width="2.0" stroke="black"></rect>
<rect x="1310" y="860" width="50" height="50" fill="white" stroke-width="2.0" stroke="black"></rect>
<rect x="160" y="910" width="50" height="50" fill="white" stroke-width="2.0" stroke="black"></rect>
<rect x="310" y="910" width="50" height="50" fill="white" stroke-width="2.0" stroke="black"></rect>
<g><rect x="160" y="960" width="50" height="50" fill="white" stroke-width="2.0" stroke="black"></rect><text x="162.5" y="970.0" font-family="Times New Roman" fill="black" font-size="50">12</text></g>
<rect x="210" y="960" width="50" height="50" fill="white" stroke-width="2.0" stroke="black"></rect>
<rect x="260" y="960" width="50" height="50" fill="white" stroke-width="2.0" stroke="black"></rect>
<rect x="310" y="960" width="50" height="50" fill="white" stroke-width="2.0" stroke="black"></rect>
<rect x="360" y="960" width="50" height="50" fill="white" stroke-width="2.0" stroke="black"></rect>
<rect x="160" y="1010" width="50" height="50" fill="white" stroke-width="2.0" stroke="black"></rect>
<rect x="310" y="1010" width="50" height="50" fill="white" stroke-width="2.0" stroke="black"></rect>
<rect x="160" y="1060" width="50" height="50" fill="white" stroke-width="2.0" stroke="black"></rect>
<rect x="310" y="1060" width="50" height="50" fill="white" stroke-width="2.0" stroke="black"></rect>
<rect x="160" y="1110" width="50" height="50" fill="white" stroke-width="2.0" stroke="black"></rect>
<rect x="310" y="1110" width="50" height="50" fill="white" stroke-width="2.0" stroke="black"></rect>
<rect x="160" y="1160" width="50" height="50" fill="white" stroke-width="2.0" stroke="black"></rect>
<rect x="310" y="1160" width="50" height="50" fill="white" stroke-width="2.0" stroke="black"></rect>
<rect x="160" y="1210" width="50" height="50" fill="white" stroke-width="2.0" stroke="black"></rect>
</svg>