<svg xmlns="http://www.w3.org/2000/svg" width="1050" height="725">
<g><rect x="560" y="10" width="25" height="25" fill="white" stroke-width="1.0" stroke="black"></rect><text x="561.25" y="15.0" font-family="Times New Roman" fill="black" font-size="5.0">12</text></g>
<g><rect x="660" y="10" width="25" height="25" fill="white" stroke-width="1.0" stroke="black"></rect><text x="661.25" y="15.0" font-family="Times New Roman" fill="black" font-size="5.0">29</text></g>
<rect x="560" y="35" width="25" height="25" fill="white" stroke-width="1.0" stroke="black"></rect>
<rect x="660" y="35" width="25" height="25" fill="white" stroke-width="1.0" stroke="black"></rect>
<rect x="560" y="60" width="25" height="25" fill="white" stroke-width="1.0" stroke="black"></rect>
<rect x="660" y="60" width="25" height="25" fill="white" stroke-width="1.0" stroke="black"></rect>
<g><rect x="535" y="85" width="25" height="25" fill="white" stroke-width="1.0" stroke="black"></rect><text x="536.25" y="90.0" font-family="Times New Roman" fill="black" font-size="5.0">20</text></g>
<rect x="560" y="85" width="25" height="25" fill="white" stroke-width="1.0" stroke="black"></rect>
<rect x="585" y="85" width="25" height="25" fill="white" stroke-width="1.0" stroke="black"></rect>
<rect x="610" y="85" width="25" height="25" fill="white" stroke-width="1.0" stroke="black"></rect>
<rect x="635" y="85" width="25" height="25" fill="white" stroke-width="1.0" stroke="black"></rect>
<rect x="660" y="85" width="25" height="25" fill="white" stroke-width="1.0" stroke="black"></rect>
<rect x="685" y="85" width="25" height="25" fill="white" stroke-width="1.0" stroke="black"></rect>
<rect x="710" y="85" width="25" height="25" fill="white" stroke-width="1.0" stroke="black"></rect>
<g><rect x="435" y="110" width="25" height="25" fill="white" stroke-width="1.0" stroke="black"></rect><text x="436.25" y="115.0" font-family="Times New Roman" fill="black" font-size="5.0">13</text></g>
<rect x="560" y="110" width="25" height="25" fill="white" stroke-width="1.0" stroke="black"></rect>
<rect x="435" y="135" width="25" height="25" fill="white" stroke-width="1.0" stroke="black"></rect>
<g><rect x="485" y="135" width="25" height="25" fill="white" stroke-width="1.0" stroke="black"></rect><text x="486.25" y="140.0" font-family="Times New Roman" fill="black" font-size="5.0">10</text></g>
<rect x="510" y="135" width="25" height="25" fill="white" stroke-width="1.0" stroke="black"></rect>
<g><rect x="535" y="135" width="25" height="25" fill="white" stroke-width="1.0" stroke="black"></rect><text x="536.25" y="140.0" font-family="Times New Roman" fill="black" font-size="5.0">2</text></g>
<rect x="560" y="135" width="25" height="25" fill="white" stroke-width="1.0" stroke="black"></rect>
<rect x="585" y="135" width="25" height="25" fill="white" stroke-width="1.0" stroke="black"></rect>
<rect x="610" y="135" width="25" height="25" fill="white" stroke-width="1.0" stroke="black"></rect>
<g><rect x="660" y="135" width="25" height="25" fill="white" stroke-width="1.0" stroke="black"></rect><text x="661.25" y="140.0" font-family="Times New Roman" fill="black" font-size="5.0">6</text></g>
<rect x="435" y="160" width="25" height="25" fill="white" stroke-width="1.0" stroke="black"></rect>
<rect x="535" y="160" width="25" height="25" fill="white" stroke-width="1.0" stroke="black"></rect>
<rect x="660" y="160" width="25" height="25" fill="white" stroke-width="1.0" stroke="black"></rect>
<g><rect x="935" y="160" width="25" height="25" fill="white" stroke-width="1.0" stroke="black"></rect><text x="936.25" y="165.0" font-family="Times New Roman" fill="black" font-size="5.0">17</text></g>
<g><rect x="335" y="185" width="25" height="25" fill="white" stroke-width="1.0" stroke="black"></rect><text x="336.25" y="190.0" font-family="Times New Roman" fill="black" font-size="5.0">25</text></g>
<rect x="435" y="185" width="25" height="25" fill="white" stroke-width="1.0" stroke="black"></rect>
<g><rect x="510" y="185" width="25" height="25" fill="white" stroke-width="1.0" stroke="black"></rect><text x="511.25" y="190.0" font-family="Times New Roman" fill="black" font-size="5.0">5</text></g>
<rect x="535" y="185" width="25" height="25" fill="white" stroke-width="1.0" stroke="black"></rect>
<rect x="560" y="185" width="25" height="25" fill="white" stroke-width="1.0" stroke="black"></rect>
<rect x="585" y="185" width="25" height="25" fill="white" stroke-width="1.0" stroke="black"></rect>
<rect x="610" y="185" width="25" height="25" fill="white" stroke-width="1.0" stroke="black"></rect>
<rect x="635" y="185" width="25" height="25" fill="white" stroke-width="1.0" stroke="black"></rect>
<rect x="660" y="185" width="25" height="25" fill="white" stroke-width="1.0" stroke="black"></rect>
<rect x="685" y="185" width="25" height="25" fill="white" stroke-width="1.0" stroke="black"></rect>
<g><rect x="910" y="185" width="25" height="25" fill="white" stroke-width="1.0" stroke="black"></rect><text x="911.25" y="190.0" font-family="Times New Roman" fill="black" font-size="5.0">28</text></g>
<rect x="935" y="185" width="25" height="25" fill="white" stroke-width="1.0" stroke="black"></rect>
<rect x="960" y="185" width="25" height="25" fill="white" stroke-width="1.0" stroke="black"></rect>
<rect x="985" y="185" width="25" height="25" fill="white" stroke-width="1.0" stroke="black"></rect>
<rect x="1010" y="185" width="25" height="25" fill="white" stroke-width="1.0" stroke="black"></rect>
<g><rect x="335" y="210" width="25" height="25" fill="white" stroke-width="1.0" stroke="black"></rect><text x="336.25" y="215.0" font-family="Times New Roman" fill="black" font-size="5.0">23</text></g>
<rect x="360" y="210" width="25" height="25" fill="white" stroke-width="1.0" stroke="black"></rect>
<rect x="385" y="210" width="25" height="25" fill="white" stroke-width="1.0" stroke="black"></rect>
<rect x="410" y="210" width="25" height="25" fill="white" stroke-width="1.0" stroke="black"></rect>
<rect x="435" y="210" width="25" height="25" fill="white" stroke-width="1.0" stroke="black"></rect>
<rect x="460" y="210" width="25" height="25" fill="white" stroke-width="1.0" stroke="black"></rect>
<rect x="485" y="210" width="25" height="25" fill="white" stroke-width="1.0" stroke="black"></rect>
<rect x="535" y="210" width="25" height="25" fill="white" stroke-width="1.0" stroke="black"></rect>
<rect x="660" y="210" width="25" height="25" fill="white" stroke-width="1.0" stroke="black"></rect>
<g><rect x="710" y="210" width="25" height="25" fill="white" stroke-width="1.0" stroke="black"></rect><text x="711.25" y="215.0" font-family="Times New Roman" fill="black" font-size="5.0">9</text></g>
<rect x="935" y="210" width="25" height="25" fill="white" stroke-width="1.0" stroke="black"></rect>
<rect x="335" y="235" width="25" height="25" fill="white" stroke-width="1.0" stroke="black"></rect>
<rect x="435" y="235" width="25" height="25" fill="white" stroke-width="1.0" stroke="black"></rect>
<rect x="535" y="235" width="25" height="25" fill="white" stroke-width="1.0" stroke="black"></rect>
<rect x="660" y="235" width="25" height="25" fill="white" stroke-width="1.0" stroke="black"></rect>
<rect x="710" y="235" width="25" height="25" fill="white" stroke-width="1.0" stroke="black"></rect>
<g><rect x="760" y="235" width="25" height="25" fill="white" stroke-width="1.0" stroke="black"></rect><text x="761.25" y="240.0" font-family="Times New Roman" fill="black" font-size="5.0">16</text></g>
<rect x="785" y="235" width="25" height="25" fill="white" stroke-width="1.0" stroke="black"></rect>
<g><rect x="810" y="235" width="25" height="25" fill="white" stroke-width="1.0" stroke="black"></rect><text x="811.25" y="240.0" font-family="Times New Roman" fill="black" font-size="5.0">8</text></g>
<rect x="835" y="235" width="25" height="25" fill="white" stroke-width="1.0" stroke="black"></rect>
<rect x="860" y="235" width="25" height="25" fill="white" stroke-width="1.0" stroke="black"></rect>
<rect x="885" y="235" width="25" height="25" fill="white" stroke-width="1.0" stroke="black"></rect>
<rect x="910" y="235" width="25" height="25" fill="white" stroke-width="1.0" stroke="black"></rect>
<rect x="935" y="235" width="25" height="25" fill="white" stroke-width="1.0" stroke="black"></rect>
<rect x="960" y="235" width="25" height="25" fill="white" stroke-width="1.0" stroke="black"></rect>
<rect x="335" y="260" width="25" height="25" fill="white" stroke-width="1.0" stroke="black"></rect>
<g><rect x="410" y="260" width="25" height="25" fill="white" stroke-width="1.0" stroke="black"></rect><text x="411.25" y="265.0" font-family="Times New Roman" fill="black" font-size="5.0">1</text></g>
<rect x="435" y="260" width="25" height="25" fill="white" stroke-width="1.0" stroke="black"></rect>
<rect x="460" y="260" width="25" height="25" fill="white" stroke-width="1.0" stroke="black"></rect>
<g><rect x="485" y="260" width="25" height="25" fill="white" stroke-width="1.0" stroke="black"></rect><text x="486.25" y="265.0" font-family="Times New Roman" fill="black" font-size="5.0">4</text></g>
<rect x="510" y="260" width="25" height="25" fill="white" stroke-width="1.0" stroke="black"></rect>
<rect x="535" y="260" width="25" height="25" fill="white" stroke-width="1.0" stroke="black"></rect>
<rect x="560" y="260" width="25" height="25" fill="white" stroke-width="1.0" stroke="black"></rect>
<rect x="585" y="260" width="25" height="25" fill="white" stroke-width="1.0" stroke="black"></rect>
<rect x="660" y="260" width="25" height="25" fill="white" stroke-width="1.0" stroke="black"></rect>
<rect x="710" y="260" width="25" height="25" fill="white" stroke-width="1.0" stroke="black"></rect>
<rect x="810" y="260" width="25" height="25" fill="white" stroke-width="1.0" stroke="black"></rect>
<rect x="935" y="260" width="25" height="25" fill="white" stroke-width="1.0" stroke="black"></rect>
<rect x="335" y="285" width="25" height="25" fill="white" stroke-width="1.0" stroke="black"></rect>
<rect x="435" y="285" width="25" height="25" fill="white" stroke-width="1.0" stroke="black"></rect>
<rect x="485" y="285" width="25" height="25" fill="white" stroke-width="1.0" stroke="black"></rect>
<rect x="535" y="285" width="25" height="25" fill="white" stroke-width="1.0" stroke="black"></rect>
<rect x="660" y="285" width="25" height="25" fill="white" stroke-width="1.0" stroke="black"></rect>
<g><rect x="710" y="285" width="25" height="25" fill="white" stroke-width="1.0" stroke="black"></rect><text x="711.25" y="290.0" font-family="Times New Roman" fill="black" font-size="5.0">24</text></g>
<rect x="735" y="285" width="25" height="25" fill="white" stroke-width="1.0" stroke="black"></rect>
<g><rect x="760" y="285" width="25" height="25" fill="white" stroke-width="1.0" stroke="black"></rect><text x="761.25" y="290.0" font-family="Times New Roman" fill="black" font-size="5.0">30</text></g>
<rect x="785" y="285" width="25" height="25" fill="white" stroke-width="1.0" stroke="black"></rect>
<rect x="810" y="285" width="25" height="25" fill="white" stroke-width="1.0" stroke="black"></rect>
<rect x="835" y="285" width="25" height="25" fill="white" stroke-width="1.0" stroke="black"></rect>
<rect x="935" y="285" width="25" height="25" fill="white" stroke-width="1.0" stroke="black"></rect>
<rect x="335" y="310" width="25" height="25" fill="white" stroke-width="1.0" stroke="black"></rect>
<rect x="435" y="310" width="25" height="25" fill="white" stroke-width="1.0" stroke="black"></rect>
<rect x="485" y="310" width="25" height="25" fill="white" stroke-width="1.0" stroke="black"></rect>
<rect x="535" y="310" width="25" height="25" fill="white" stroke-width="1.0" stroke="black"></rect>
<rect x="660" y="310" width="25" height="25" fill="white" stroke-width="1.0" stroke="black"></rect>
<rect x="710" y="310" width="25" height="25" fill="white" stroke-width="1.0" stroke="black"></rect>
<rect x="760" y="310" width="25" height="25" fill="white" stroke-width="1.0" stroke="black"></rect>
<rect x="810" y="310" width="25" height="25" fill="white" stroke-width="1.0" stroke="black"></rect>
<rect x="935" y="310" width="25" height="25" fill="white" stroke-width="1.0" stroke="black"></rect>
<rect x="335" y="335" width="25" height="25" fill="white" stroke-width="1.0" stroke="black"></rect>
<rect x="435" y="335" width="25" height="25" fill="white" stroke-width="1.0" stroke="black"></rect>
<rect x="485" y="335" width="25" height="25" fill="white" stroke-width="1.0" stroke="black"></rect>
<rect x="535" y="335" width="25" height="25" fill="white" stroke-width="1.0" stroke="black"></rect>
<g><rect x="660" y="335" width="25" height="25" fill="white" stroke-width="1.0" stroke="black"></rect><text x="661.25" y="340.0" font-family="Times New Roman" fill="black" font-size="5.0">7</text></g>
<rect x="685" y="335" width="25" height="25" fill="white" stroke-width="1.0" stroke="black"></rect>
<rect x="710" y="335" width="25" height="25" fill="white" stroke-width="1.0" stroke="black"></rect>
<rect x="735" y="335" width="25" height="25" fill="white" stroke-width="1.0" stroke="black"></rect>
<rect x="760" y="335" width="25" height="25" fill="white" stroke-width="1.0" stroke="black"></rect>
<rect x="785" y="335" width="25" height="25" fill="white" stroke-width="1.0" stroke="black"></rect>
<rect x="810" y="335" width="25" height="25" fill="white" stroke-width="1.0" stroke="black"></rect>
<rect x="835" y="335" width="25" height="25" fill="white" stroke-width="1.0" stroke="black"></rect>
<rect x="860" y="335" width="25" height="25" fill="white" stroke-width="1.0" stroke="black"></rect>
<rect x="935" y="335" width="25" height="25" fill="white" stroke-width="1.0" stroke="black"></rect>
<rect x="335" y="360" width="25" height="25" fill="white" stroke-width="1.0" stroke="black"></rect>
<rect x="435" y="360" width="25" height="25" fill="white" stroke-width="1.0" stroke="black"></rect>
<rect x="485" y="360" width="25" height="25" fill="white" stroke-width="1.0" stroke="black"></rect>
<rect x="660" y="360" width="25" height="25" fill="white" stroke-width="1.0" stroke="black"></rect>
<rect x="710" y="360" width="25" height="25" fill="white" stroke-width="1.0" stroke="black"></rect>
<rect x="760" y="360" width="25" height="25" fill="white" stroke-width="1.0" stroke="black"></rect>
<rect x="485" y="385" width="25" height="25" fill="white" stroke-width="1.0" stroke="black"></rect>
<rect x="760" y="385" width="25" height="25" fill="white" stroke-width="1.0" stroke="black"></rect>
<rect x="485" y="410" width="25" height="25" fill="white" stroke-width="1.0" stroke="black"></rect>
<rect x="760" y="410" width="25" height="25" fill="white" stroke-width="1.0" stroke="black"></rect>
<g><rect x="10" y="435" width="25" height="25" fill="white" stroke-width="1.0" stroke="black"></rect><text x="11.25" y="440.0" font-family="Times New Roman" fill="black" font-size="5.0">14</text></g>
<rect x="35" y="435" width="25" height="25" fill="white" stroke-width="1.0" stroke="black"></rect>
<g><rect x="60" y="435" width="25" height="25" fill="white" stroke-width="1.0" stroke="black"></rect><text x="61.25" y="440.0" font-family="Times New Roman" fill="black" font-size="5.0">27</text></g>
<rect x="85" y="435" width="25" height="25" fill="white" stroke-width="1.0" stroke="black"></rect>
<rect x="110" y="435" width="25" height="25" fill="white" stroke-width="1.0" stroke="black"></rect>
<rect x="135" y="435" width="25" height="25" fill="white" stroke-width="1.0" stroke="black"></rect>
<rect x="160" y="435" width="25" height="25" fill="white" stroke-width="1.0" stroke="black"></rect>
<rect x="185" y="435" width="25" height="25" fill="white" stroke-width="1.0" stroke="black"></rect>
<rect x="210" y="435" width="25" height="25" fill="white" stroke-width="1.0" stroke="black"></rect>
<rect x="235" y="435" width="25" height="25" fill="white" stroke-width="1.0" stroke="black"></rect>
<g><rect x="310" y="435" width="25" height="25" fill="white" stroke-width="1.0" stroke="black"></rect><text x="311.25" y="440.0" font-family="Times New Roman" fill="black" font-size="5.0">19</text></g>
<g><rect x="435" y="435" width="25" height="25" fill="white" stroke-width="1.0" stroke="black"></rect><text x="436.25" y="440.0" font-family="Times New Roman" fill="black" font-size="5.0">3</text></g>
<rect x="460" y="435" width="25" height="25" fill="white" stroke-width="1.0" stroke="black"></rect>
<rect x="485" y="435" width="25" height="25" fill="white" stroke-width="1.0" stroke="black"></rect>
<rect x="510" y="435" width="25" height="25" fill="white" stroke-width="1.0" stroke="black"></rect>
<rect x="760" y="435" width="25" height="25" fill="white" stroke-width="1.0" stroke="black"></rect>
<rect x="60" y="460" width="25" height="25" fill="white" stroke-width="1.0" stroke="black"></rect>
<rect x="310" y="460" width="25" height="25" fill="white" stroke-width="1.0" stroke="black"></rect>
<g><rect x="360" y="460" width="25" height="25" fill="white" stroke-width="1.0" stroke="black"></rect><text x="361.25" y="465.0" font-family="Times New Roman" fill="black" font-size="5.0">15</text></g>
<rect x="485" y="460" width="25" height="25" fill="white" stroke-width="1.0" stroke="black"></rect>
<rect x="60" y="485" width="25" height="25" fill="white" stroke-width="1.0" stroke="black"></rect>
<g><rect x="160" y="485" width="25" height="25" fill="white" stroke-width="1.0" stroke="black"></rect><text x="161.25" y="490.0" font-family="Times New Roman" fill="black" font-size="5.0">22</text></g>
<rect x="310" y="485" width="25" height="25" fill="white" stroke-width="1.0" stroke="black"></rect>
<g><rect x="360" y="485" width="25" height="25" fill="white" stroke-width="1.0" stroke="black"></rect><text x="361.25" y="490.0" font-family="Times New Roman" fill="black" font-size="5.0">11</text></g>
<rect x="385" y="485" width="25" height="25" fill="white" stroke-width="1.0" stroke="black"></rect>
<rect x="410" y="485" width="25" height="25" fill="white" stroke-width="1.0" stroke="black"></rect>
<rect x="435" y="485" width="25" height="25" fill="white" stroke-width="1.0" stroke="black"></rect>
<rect x="460" y="485" width="25" height="25" fill="white" stroke-width="1.0" stroke="black"></rect>
<rect x="485" y="485" width="25" height="25" fill="white" stroke-width="1.0" stroke="black"></rect>
<rect x="510" y="485" width="25" height="25" fill="white" stroke-width="1.0" stroke="black"></rect>
<rect x="535" y="485" width="25" height="25" fill="white" stroke-width="1.0" stroke="black"></rect>
<rect x="60" y="510" width="25" height="25" fill="white" stroke-width="1.0" stroke="black"></rect>
<g><rect x="160" y="510" width="25" height="25" fill="white" stroke-width="1.0" stroke="black"></rect><text x="161.25" y="515.0" font-family="Times New Roman" fill="black" font-size="5.0">21</text></g>
<rect x="185" y="510" width="25" height="25" fill="white" stroke-width="1.0" stroke="black"></rect>
<rect x="210" y="510" width="25" height="25" fill="white" stroke-width="1.0" stroke="black"></rect>
<rect x="235" y="510" width="25" height="25" fill="white" stroke-width="1.0" stroke="black"></rect>
<rect x="260" y="510" width="25" height="25" fill="white" stroke-width="1.0" stroke="black"></rect>
<rect x="285" y="510" width="25" height="25" fill="white" stroke-width="1.0" stroke="black"></rect>
<rect x="310" y="510" width="25" height="25" fill="white" stroke-width="1.0" stroke="black"></rect>
<rect x="360" y="510" width="25" height="25" fill="white" stroke-width="1.0" stroke="black"></rect>
<g><rect x="10" y="535" width="25" height="25" fill="white" stroke-width="1.0" stroke="black"></rect><text x="11.25" y="540.0" font-family="Times New Roman" fill="black" font-size="5.0">26</text></g>
<rect x="35" y="535" width="25" height="25" fill="white" stroke-width="1.0" stroke="black"></rect>
<rect x="60" y="535" width="25" height="25" fill="white" stroke-width="1.0" stroke="black"></rect>
<rect x="85" y="535" width="25" height="25" fill="white" stroke-width="1.0" stroke="black"></rect>
<rect x="110" y="535" width="25" height="25" fill="white" stroke-width="1.0" stroke="black"></rect>
<rect x="135" y="535" width="25" height="25" fill="white" stroke-width="1.0" stroke="black"></rect>
<rect x="160" y="535" width="25" height="25" fill="white" stroke-width="1.0" stroke="black"></rect>
<rect x="310" y="535" width="25" height="25" fill="white" stroke-width="1.0" stroke="black"></rect>
<rect x="360" y="535" width="25" height="25" fill="white" stroke-width="1.0" stroke="black"></rect>
<rect x="60" y="560" width="25" height="25" fill="white" stroke-width="1.0" stroke="black"></rect>
<rect x="160" y="560" width="25" height="25" fill="white" stroke-width="1.0" stroke="black"></rect>
<g><rect x="310" y="560" width="25" height="25" fill="white" stroke-width="1.0" stroke="black"></rect><text x="311.25" y="565.0" font-family="Times New Roman" fill="black" font-size="5.0">18</text></g>
<rect x="335" y="560" width="25" height="25" fill="white" stroke-width="1.0" stroke="black"></rect>
<rect x="360" y="560" width="25" height="25" fill="white" stroke-width="1.0" stroke="black"></rect>
<rect x="385" y="560" width="25" height="25" fill="white" stroke-width="1.0" stroke="black"></rect>
<rect x="410" y="560" width="25" height="25" fill="white" stroke-width="1.0" stroke="black"></rect>
<rect x="435" y="560" width="25" height="25" fill="white" stroke-width="1.0" stroke="black"></rect>
<rect x="460" y="560" width="25" height="25" fill="white" stroke-width="1.0" stroke="black"></rect>
<rect x="485" y="560" width="25" height="25" fill="white" stroke-width="1.0" stroke="black"></rect>
<rect x="60" y="585" width="25" height="25" fill="white" stroke-width="1.0" stroke="black"></rect>
<rect x="160" y="585" width="25" height="25" fill="white" stroke-width="1.0" stroke="black"></rect>
<rect x="310" y="585" width="25" height="25" fill="white" stroke-width="1.0" stroke="black"></rect>
<rect x="360" y="585" width="25" height="25" fill="white" stroke-width="1.0" stroke="black"></rect>
<rect x="60" y="610" width="25" height="25" fill="white" stroke-width="1.0" stroke="black"></rect>
<rect x="160" y="610" width="25" height="25" fill="white" stroke-width="1.0" stroke="black"></rect>
<rect x="360" y="610" width="25" height="25" fill="white" stroke-width="1.0" stroke="black"></rect>
<rect x="60" y="635" width="25" height="25" fill="white" stroke-width="1.0" stroke="black"></rect>
<rect x="160" y="635" width="25" height="25" fill="white" stroke-width="1.0" stroke="black"></rect>
<rect x="360" y="635" width="25" height="25" fill="white" stroke-width="1.0" stroke="black"></rect>
<rect x="60" y="660" width="25" height="25" fill="white" stroke-width="1.0" stroke="black"></rect>
<rect x="160" y="660" width="25" height="25" fill="white" stroke-width="1.0" stroke="black"></rect>
<rect x="60" y="685" width="25" height="25" fill="white" stroke-width="1.0" stroke="black"></rect>
</svg>