<svg xmlns="http://www.w3.org/2000/svg" width="650" height="700">
<g><rect x="110" y="10" width="50" height="50" fill="white" stroke-width="2.0" stroke="black"></rect><text x="112.5" y="20.0" font-family="Times New Roman" fill="black" font-size="10.0">7</text></g>
<g><rect x="10" y="60" width="50" height="50" fill="white" stroke-width="2.0" stroke="black"></rect><text x="12.5" y="70.0" font-family="Times New Roman" fill="black" font-size="10.0">8</text></g>
<rect x="60" y="60" width="50" height="50" fill="white" stroke-width="2.0" stroke="black"></rect>
<rect x="110" y="60" width="50" height="50" fill="white" stroke-width="2.0" stroke="black"></rect>
<rect x="160" y="60" width="50" height="50" fill="white" stroke-width="2.0" stroke="black"></rect>
<g><rect x="260" y="60" width="50" height="50" fill="white" stroke-width="2.0" stroke="black"></rect><text x="262.5" y="70.0" font-family="Times New Roman" fill="black" font-size="10.0">4</text></g>
<rect x="110" y="110" width="50" height="50" fill="white" stroke-width="2.0" stroke="black"></rect>
<rect x="260" y="110" width="50" height="50" fill="white" stroke-width="2.0" stroke="black"></rect>
<g><rect x="410" y="110" width="50" height="50" fill="white" stroke-width="2.0" stroke="black"></rect><text x="412.5" y="120.0" font-family="Times New Roman" fill="black" font-size="10.0">6</text></g>
<g><rect x="110" y="160" width="50" height="50" fill="white" stroke-width="2.0" stroke="black"></rect><text x="112.5" y="170.0" font-family="Times New Roman" fill="black" font-size="10.0">2</text></g>
<rect x="160" y="160" width="50" height="50" fill="white" stroke-width="2.0" stroke="black"></rect>
<rect x="210" y="160" width="50" height="50" fill="white" stroke-width="2.0" stroke="black"></rect>
<rect x="260" y="160" width="50" height="50" fill="white" stroke-width="2.0" stroke="black"></rect>
<rect x="410" y="160" width="50" height="50" fill="white" stroke-width="2.0" stroke="black"></rect>
<rect x="110" y="210" width="50" height="50" fill="white" stroke-width="2.0" stroke="black"></rect>
<g><rect x="260" y="210" width="50" height="50" fill="white" stroke-width="2.0" stroke="black"></rect><text x="262.5" y="220.0" font-family="Times New Roman" fill="black" font-size="10.0">3</text></g>
<rect x="310" y="210" width="50" height="50" fill="white" stroke-width="2.0" stroke="black"></rect>
<rect x="360" y="210" width="50" height="50" fill="white" stroke-width="2.0" stroke="black"></rect>
<rect x="410" y="210" width="50" height="50" fill="white" stroke-width="2.0" stroke="black"></rect>
<rect x="460" y="210" width="50" height="50" fill="white" stroke-width="2.0" stroke="black"></rect>
<rect x="510" y="210" width="50" height="50" fill="white" stroke-width="2.0" stroke="black"></rect>
<rect x="560" y="210" width="50" height="50" fill="white" stroke-width="2.0" stroke="black"></rect>
<rect x="260" y="260" width="50" height="50" fill="white" stroke-width="2.0" stroke="black"></rect>
<rect x="260" y="310" width="50" height="50" fill="white" stroke-width="2.0" stroke="black"></rect>
<g><rect x="460" y="310" width="50" height="50" fill="white" stroke-width="2.0" stroke="black"></rect><text x="462.5" y="320.0" font-family="Times New Roman" fill="black" font-size="10.0">5</text></g>
<g><rect x="160" y="360" width="50" height="50" fill="white" stroke-width="2.0" stroke="black"></rect><text x="162.5" y="370.0" font-family="Times New Roman" fill="black" font-size="10.0">1</text></g>
<rect x="210" y="360" width="50" height="50" fill="white" stroke-width="2.0" stroke="black"></rect>
<rect x="260" y="360" width="50" height="50" fill="white" stroke-width="2.0" stroke="black"></rect>
<rect x="310" y="360" width="50" height="50" fill="white" stroke-width="2.0" stroke="black"></rect>
<rect x="360" y="360" width="50" height="50" fill="white" stroke-width="2.0" stroke="black"></rect>
<rect x="410" y="360" width="50" height="50" fill="white" stroke-width="2.0" stroke="black"></rect>
<rect x="460" y="360" width="50" height="50" fill="white" stroke-width="2.0" stroke="black"></rect>
<rect x="510" y="360" width="50" height="50" fill="white" stroke-width="2.0" stroke="black"></rect>
<rect x="160" y="410" width="50" height="50" fill="white" stroke-width="2.0" stroke="black"></rect>
<rect x="260" y="410" width="50" height="50" fill="white" stroke-width="2.0" stroke="black"></rect>
<rect x="460" y="410" width="50" height="50" fill="white" stroke-width="2.0" stroke="black"></rect>
<rect x="160" y="460" width="50" height="50" fill="white" stroke-width="2.0" stroke="black"></rect>
<rect x="460" y="460" width="50" height="50" fill="white" stroke-width="2.0" stroke="black"></rect>
<rect x="160" y="510" width="50" height="50" fill="white" stroke-width="2.0" stroke="black"></rect>
<rect x="160" y="560" width="50" height="50" fill="white" stroke-width="2.0" stroke="black"></rect>
<rect x="160" y="610" width="50" height="50" fill="white" stroke-width="2.0" stroke="black"></rect>
</svg>