<svg xmlns="http://www.w3.org/2000/svg" width="750" height="950">
<g><rect x="410" y="10" width="25" height="25" fill="white" stroke-width="1.0" stroke="black"></rect><text x="411.25" y="15.0" font-family="Times New Roman" fill="black" font-size="5.0">6</text></g>
<g><rect x="260" y="35" width="25" height="25" fill="white" stroke-width="1.0" stroke="black"></rect><text x="261.25" y="40.0" font-family="Times New Roman" fill="black" font-size="5.0">13</text></g>
<rect x="410" y="35" width="25" height="25" fill="white" stroke-width="1.0" stroke="black"></rect>
<g><rect x="185" y="60" width="25" height="25" fill="white" stroke-width="1.0" stroke="black"></rect><text x="186.25" y="65.0" font-family="Times New Roman" fill="black" font-size="5.0">14</text></g>
<rect x="260" y="60" width="25" height="25" fill="white" stroke-width="1.0" stroke="black"></rect>
<g><rect x="360" y="60" width="25" height="25" fill="white" stroke-width="1.0" stroke="black"></rect><text x="361.25" y="65.0" font-family="Times New Roman" fill="black" font-size="5.0">2</text></g>
<rect x="385" y="60" width="25" height="25" fill="white" stroke-width="1.0" stroke="black"></rect>
<rect x="410" y="60" width="25" height="25" fill="white" stroke-width="1.0" stroke="black"></rect>
<rect x="435" y="60" width="25" height="25" fill="white" stroke-width="1.0" stroke="black"></rect>
<rect x="460" y="60" width="25" height="25" fill="white" stroke-width="1.0" stroke="black"></rect>
<rect x="485" y="60" width="25" height="25" fill="white" stroke-width="1.0" stroke="black"></rect>
<g><rect x="10" y="85" width="25" height="25" fill="white" stroke-width="1.0" stroke="black"></rect><text x="11.25" y="90.0" font-family="Times New Roman" fill="black" font-size="5.0">9</text></g>
<rect x="35" y="85" width="25" height="25" fill="white" stroke-width="1.0" stroke="black"></rect>
<rect x="60" y="85" width="25" height="25" fill="white" stroke-width="1.0" stroke="black"></rect>
<rect x="85" y="85" width="25" height="25" fill="white" stroke-width="1.0" stroke="black"></rect>
<rect x="110" y="85" width="25" height="25" fill="white" stroke-width="1.0" stroke="black"></rect>
<rect x="135" y="85" width="25" height="25" fill="white" stroke-width="1.0" stroke="black"></rect>
<rect x="160" y="85" width="25" height="25" fill="white" stroke-width="1.0" stroke="black"></rect>
<rect x="185" y="85" width="25" height="25" fill="white" stroke-width="1.0" stroke="black"></rect>
<g><rect x="260" y="85" width="25" height="25" fill="white" stroke-width="1.0" stroke="black"></rect><text x="261.25" y="90.0" font-family="Times New Roman" fill="black" font-size="5.0">16</text></g>
<rect x="285" y="85" width="25" height="25" fill="white" stroke-width="1.0" stroke="black"></rect>
<rect x="310" y="85" width="25" height="25" fill="white" stroke-width="1.0" stroke="black"></rect>
<rect x="335" y="85" width="25" height="25" fill="white" stroke-width="1.0" stroke="black"></rect>
<rect x="360" y="85" width="25" height="25" fill="white" stroke-width="1.0" stroke="black"></rect>
<rect x="410" y="85" width="25" height="25" fill="white" stroke-width="1.0" stroke="black"></rect>
<g><rect x="510" y="85" width="25" height="25" fill="white" stroke-width="1.0" stroke="black"></rect><text x="511.25" y="90.0" font-family="Times New Roman" fill="black" font-size="5.0">5</text></g>
<rect x="185" y="110" width="25" height="25" fill="white" stroke-width="1.0" stroke="black"></rect>
<rect x="260" y="110" width="25" height="25" fill="white" stroke-width="1.0" stroke="black"></rect>
<rect x="360" y="110" width="25" height="25" fill="white" stroke-width="1.0" stroke="black"></rect>
<rect x="410" y="110" width="25" height="25" fill="white" stroke-width="1.0" stroke="black"></rect>
<g><rect x="460" y="110" width="25" height="25" fill="white" stroke-width="1.0" stroke="black"></rect><text x="461.25" y="115.0" font-family="Times New Roman" fill="black" font-size="5.0">19</text></g>
<rect x="485" y="110" width="25" height="25" fill="white" stroke-width="1.0" stroke="black"></rect>
<rect x="510" y="110" width="25" height="25" fill="white" stroke-width="1.0" stroke="black"></rect>
<rect x="535" y="110" width="25" height="25" fill="white" stroke-width="1.0" stroke="black"></rect>
<rect x="560" y="110" width="25" height="25" fill="white" stroke-width="1.0" stroke="black"></rect>
<rect x="585" y="110" width="25" height="25" fill="white" stroke-width="1.0" stroke="black"></rect>
<rect x="610" y="110" width="25" height="25" fill="white" stroke-width="1.0" stroke="black"></rect>
<rect x="635" y="110" width="25" height="25" fill="white" stroke-width="1.0" stroke="black"></rect>
<rect x="660" y="110" width="25" height="25" fill="white" stroke-width="1.0" stroke="black"></rect>
<rect x="685" y="110" width="25" height="25" fill="white" stroke-width="1.0" stroke="black"></rect>
<rect x="710" y="110" width="25" height="25" fill="white" stroke-width="1.0" stroke="black"></rect>
<g><rect x="160" y="135" width="25" height="25" fill="white" stroke-width="1.0" stroke="black"></rect><text x="161.25" y="140.0" font-family="Times New Roman" fill="black" font-size="5.0">7</text></g>
<rect x="185" y="135" width="25" height="25" fill="white" stroke-width="1.0" stroke="black"></rect>
<rect x="210" y="135" width="25" height="25" fill="white" stroke-width="1.0" stroke="black"></rect>
<rect x="235" y="135" width="25" height="25" fill="white" stroke-width="1.0" stroke="black"></rect>
<rect x="260" y="135" width="25" height="25" fill="white" stroke-width="1.0" stroke="black"></rect>
<rect x="285" y="135" width="25" height="25" fill="white" stroke-width="1.0" stroke="black"></rect>
<rect x="360" y="135" width="25" height="25" fill="white" stroke-width="1.0" stroke="black"></rect>
<rect x="410" y="135" width="25" height="25" fill="white" stroke-width="1.0" stroke="black"></rect>
<rect x="510" y="135" width="25" height="25" fill="white" stroke-width="1.0" stroke="black"></rect>
<rect x="185" y="160" width="25" height="25" fill="white" stroke-width="1.0" stroke="black"></rect>
<rect x="260" y="160" width="25" height="25" fill="white" stroke-width="1.0" stroke="black"></rect>
<rect x="360" y="160" width="25" height="25" fill="white" stroke-width="1.0" stroke="black"></rect>
<g><rect x="410" y="160" width="25" height="25" fill="white" stroke-width="1.0" stroke="black"></rect><text x="411.25" y="165.0" font-family="Times New Roman" fill="black" font-size="5.0">17</text></g>
<rect x="435" y="160" width="25" height="25" fill="white" stroke-width="1.0" stroke="black"></rect>
<rect x="460" y="160" width="25" height="25" fill="white" stroke-width="1.0" stroke="black"></rect>
<rect x="485" y="160" width="25" height="25" fill="white" stroke-width="1.0" stroke="black"></rect>
<rect x="510" y="160" width="25" height="25" fill="white" stroke-width="1.0" stroke="black"></rect>
<rect x="535" y="160" width="25" height="25" fill="white" stroke-width="1.0" stroke="black"></rect>
<rect x="560" y="160" width="25" height="25" fill="white" stroke-width="1.0" stroke="black"></rect>
<rect x="585" y="160" width="25" height="25" fill="white" stroke-width="1.0" stroke="black"></rect>
<rect x="360" y="185" width="25" height="25" fill="white" stroke-width="1.0" stroke="black"></rect>
<rect x="410" y="185" width="25" height="25" fill="white" stroke-width="1.0" stroke="black"></rect>
<rect x="510" y="185" width="25" height="25" fill="white" stroke-width="1.0" stroke="black"></rect>
<rect x="360" y="210" width="25" height="25" fill="white" stroke-width="1.0" stroke="black"></rect>
<g><rect x="435" y="210" width="25" height="25" fill="white" stroke-width="1.0" stroke="black"></rect><text x="436.25" y="215.0" font-family="Times New Roman" fill="black" font-size="5.0">3</text></g>
<rect x="510" y="210" width="25" height="25" fill="white" stroke-width="1.0" stroke="black"></rect>
<rect x="360" y="235" width="25" height="25" fill="white" stroke-width="1.0" stroke="black"></rect>
<rect x="435" y="235" width="25" height="25" fill="white" stroke-width="1.0" stroke="black"></rect>
<rect x="510" y="235" width="25" height="25" fill="white" stroke-width="1.0" stroke="black"></rect>
<rect x="360" y="260" width="25" height="25" fill="white" stroke-width="1.0" stroke="black"></rect>
<rect x="435" y="260" width="25" height="25" fill="white" stroke-width="1.0" stroke="black"></rect>
<rect x="510" y="260" width="25" height="25" fill="white" stroke-width="1.0" stroke="black"></rect>
<g><rect x="560" y="260" width="25" height="25" fill="white" stroke-width="1.0" stroke="black"></rect><text x="561.25" y="265.0" font-family="Times New Roman" fill="black" font-size="5.0">10</text></g>
<rect x="360" y="285" width="25" height="25" fill="white" stroke-width="1.0" stroke="black"></rect>
<g><rect x="435" y="285" width="25" height="25" fill="white" stroke-width="1.0" stroke="black"></rect><text x="436.25" y="290.0" font-family="Times New Roman" fill="black" font-size="5.0">1</text></g>
<rect x="460" y="285" width="25" height="25" fill="white" stroke-width="1.0" stroke="black"></rect>
<rect x="485" y="285" width="25" height="25" fill="white" stroke-width="1.0" stroke="black"></rect>
<rect x="510" y="285" width="25" height="25" fill="white" stroke-width="1.0" stroke="black"></rect>
<rect x="535" y="285" width="25" height="25" fill="white" stroke-width="1.0" stroke="black"></rect>
<rect x="560" y="285" width="25" height="25" fill="white" stroke-width="1.0" stroke="black"></rect>
<rect x="585" y="285" width="25" height="25" fill="white" stroke-width="1.0" stroke="black"></rect>
<rect x="610" y="285" width="25" height="25" fill="white" stroke-width="1.0" stroke="black"></rect>
<rect x="635" y="285" width="25" height="25" fill="white" stroke-width="1.0" stroke="black"></rect>
<rect x="660" y="285" width="25" height="25" fill="white" stroke-width="1.0" stroke="black"></rect>
<rect x="685" y="285" width="25" height="25" fill="white" stroke-width="1.0" stroke="black"></rect>
<rect x="710" y="285" width="25" height="25" fill="white" stroke-width="1.0" stroke="black"></rect>
<rect x="360" y="310" width="25" height="25" fill="white" stroke-width="1.0" stroke="black"></rect>
<rect x="435" y="310" width="25" height="25" fill="white" stroke-width="1.0" stroke="black"></rect>
<rect x="560" y="310" width="25" height="25" fill="white" stroke-width="1.0" stroke="black"></rect>
<rect x="360" y="335" width="25" height="25" fill="white" stroke-width="1.0" stroke="black"></rect>
<rect x="435" y="335" width="25" height="25" fill="white" stroke-width="1.0" stroke="black"></rect>
<rect x="560" y="335" width="25" height="25" fill="white" stroke-width="1.0" stroke="black"></rect>
<rect x="360" y="360" width="25" height="25" fill="white" stroke-width="1.0" stroke="black"></rect>
<rect x="435" y="360" width="25" height="25" fill="white" stroke-width="1.0" stroke="black"></rect>
<g><rect x="560" y="360" width="25" height="25" fill="white" stroke-width="1.0" stroke="black"></rect><text x="561.25" y="365.0" font-family="Times New Roman" fill="black" font-size="5.0">11</text></g>
<rect x="585" y="360" width="25" height="25" fill="white" stroke-width="1.0" stroke="black"></rect>
<rect x="610" y="360" width="25" height="25" fill="white" stroke-width="1.0" stroke="black"></rect>
<rect x="635" y="360" width="25" height="25" fill="white" stroke-width="1.0" stroke="black"></rect>
<rect x="660" y="360" width="25" height="25" fill="white" stroke-width="1.0" stroke="black"></rect>
<rect x="360" y="385" width="25" height="25" fill="white" stroke-width="1.0" stroke="black"></rect>
<rect x="435" y="385" width="25" height="25" fill="white" stroke-width="1.0" stroke="black"></rect>
<rect x="560" y="385" width="25" height="25" fill="white" stroke-width="1.0" stroke="black"></rect>
<rect x="435" y="410" width="25" height="25" fill="white" stroke-width="1.0" stroke="black"></rect>
<rect x="560" y="410" width="25" height="25" fill="white" stroke-width="1.0" stroke="black"></rect>
<rect x="435" y="435" width="25" height="25" fill="white" stroke-width="1.0" stroke="black"></rect>
<rect x="560" y="435" width="25" height="25" fill="white" stroke-width="1.0" stroke="black"></rect>
<rect x="435" y="460" width="25" height="25" fill="white" stroke-width="1.0" stroke="black"></rect>
<rect x="560" y="460" width="25" height="25" fill="white" stroke-width="1.0" stroke="black"></rect>
<rect x="435" y="485" width="25" height="25" fill="white" stroke-width="1.0" stroke="black"></rect>
<rect x="435" y="510" width="25" height="25" fill="white" stroke-width="1.0" stroke="black"></rect>
<g><rect x="410" y="535" width="25" height="25" fill="white" stroke-width="1.0" stroke="black"></rect><text x="411.25" y="540.0" font-family="Times New Roman" fill="black" font-size="5.0">12</text></g>
<rect x="435" y="535" width="25" height="25" fill="white" stroke-width="1.0" stroke="black"></rect>
<rect x="460" y="535" width="25" height="25" fill="white" stroke-width="1.0" stroke="black"></rect>
<g><rect x="485" y="535" width="25" height="25" fill="white" stroke-width="1.0" stroke="black"></rect><text x="486.25" y="540.0" font-family="Times New Roman" fill="black" font-size="5.0">18</text></g>
<rect x="510" y="535" width="25" height="25" fill="white" stroke-width="1.0" stroke="black"></rect>
<rect x="435" y="560" width="25" height="25" fill="white" stroke-width="1.0" stroke="black"></rect>
<rect x="485" y="560" width="25" height="25" fill="white" stroke-width="1.0" stroke="black"></rect>
<rect x="435" y="585" width="25" height="25" fill="white" stroke-width="1.0" stroke="black"></rect>
<rect x="485" y="585" width="25" height="25" fill="white" stroke-width="1.0" stroke="black"></rect>
<rect x="435" y="610" width="25" height="25" fill="white" stroke-width="1.0" stroke="black"></rect>
<rect x="485" y="610" width="25" height="25" fill="white" stroke-width="1.0" stroke="black"></rect>
<g><rect x="385" y="635" width="25" height="25" fill="white" stroke-width="1.0" stroke="black"></rect><text x="386.25" y="640.0" font-family="Times New Roman" fill="black" font-size="5.0">15</text></g>
<rect x="485" y="635" width="25" height="25" fill="white" stroke-width="1.0" stroke="black"></rect>
<g><rect x="360" y="660" width="25" height="25" fill="white" stroke-width="1.0" stroke="black"></rect><text x="361.25" y="665.0" font-family="Times New Roman" fill="black" font-size="5.0">8</text></g>
<rect x="385" y="660" width="25" height="25" fill="white" stroke-width="1.0" stroke="black"></rect>
<rect x="410" y="660" width="25" height="25" fill="white" stroke-width="1.0" stroke="black"></rect>
<rect x="435" y="660" width="25" height="25" fill="white" stroke-width="1.0" stroke="black"></rect>
<rect x="460" y="660" width="25" height="25" fill="white" stroke-width="1.0" stroke="black"></rect>
<rect x="485" y="660" width="25" height="25" fill="white" stroke-width="1.0" stroke="black"></rect>
<rect x="510" y="660" width="25" height="25" fill="white" stroke-width="1.0" stroke="black"></rect>
<rect x="535" y="660" width="25" height="25" fill="white" stroke-width="1.0" stroke="black"></rect>
<rect x="385" y="685" width="25" height="25" fill="white" stroke-width="1.0" stroke="black"></rect>
<rect x="485" y="685" width="25" height="25" fill="white" stroke-width="1.0" stroke="black"></rect>
<rect x="385" y="710" width="25" height="25" fill="white" stroke-width="1.0" stroke="black"></rect>
<rect x="385" y="735" width="25" height="25" fill="white" stroke-width="1.0" stroke="black"></rect>
<rect x="385" y="760" width="25" height="25" fill="white" stroke-width="1.0" stroke="black"></rect>
<g><rect x="385" y="785" width="25" height="25" fill="white" stroke-width="1.0" stroke="black"></rect><text x="386.25" y="790.0" font-family="Times New Roman" fill="black" font-size="5.0">4</text></g>
<rect x="410" y="785" width="25" height="25" fill="white" stroke-width="1.0" stroke="black"></rect>
<rect x="435" y="785" width="25" height="25" fill="white" stroke-width="1.0" stroke="black"></rect>
<rect x="460" y="785" width="25" height="25" fill="white" stroke-width="1.0" stroke="black"></rect>
<rect x="485" y="785" width="25" height="25" fill="white" stroke-width="1.0" stroke="black"></rect>
<rect x="510" y="785" width="25" height="25" fill="white" stroke-width="1.0" stroke="black"></rect>
<rect x="535" y="785" width="25" height="25" fill="white" stroke-width="1.0" stroke="black"></rect>
<rect x="385" y="810" width="25" height="25" fill="white" stroke-width="1.0" stroke="black"></rect>
<rect x="385" y="835" width="25" height="25" fill="white" stroke-width="1.0" stroke="black"></rect>
<rect x="385" y="860" width="25" height="25" fill="white" stroke-width="1.0" stroke="black"></rect>
<rect x="385" y="885" width="25" height="25" fill="white" stroke-width="1.0" stroke="black"></rect>
<rect x="385" y="910" width="25" height="25" fill="white" stroke-width="1.0" stroke="black"></rect>
</svg>