<svg xmlns="http://www.w3.org/2000/svg" width="1850" height="2100">
<g><rect x="710" y="10" width="50" height="50" fill="white" stroke-width="2.0" stroke="black"></rect><text x="712.5" y="20.0" font-family="Times New Roman" fill="black" font-size="10.0">23</text></g>
<rect x="760" y="10" width="50" height="50" fill="white" stroke-width="2.0" stroke="black"></rect>
<rect x="810" y="10" width="50" height="50" fill="white" stroke-width="2.0" stroke="black"></rect>
<g><rect x="860" y="10" width="50" height="50" fill="white" stroke-width="2.0" stroke="black"></rect><text x="862.5" y="20.0" font-family="Times New Roman" fill="black" font-size="10.0">29</text></g>
<rect x="910" y="10" width="50" height="50" fill="white" stroke-width="2.0" stroke="black"></rect>
<rect x="960" y="10" width="50" height="50" fill="white" stroke-width="2.0" stroke="black"></rect>
<rect x="1010" y="10" width="50" height="50" fill="white" stroke-width="2.0" stroke="black"></rect>
<rect x="1060" y="10" width="50" height="50" fill="white" stroke-width="2.0" stroke="black"></rect>
<rect x="1110" y="10" width="50" height="50" fill="white" stroke-width="2.0" stroke="black"></rect>
<rect x="1160" y="10" width="50" height="50" fill="white" stroke-width="2.0" stroke="black"></rect>
<rect x="1210" y="10" width="50" height="50" fill="white" stroke-width="2.0" stroke="black"></rect>
<rect x="1260" y="10" width="50" height="50" fill="white" stroke-width="2.0" stroke="black"></rect>
<g><rect x="1310" y="10" width="50" height="50" fill="white" stroke-width="2.0" stroke="black"></rect><text x="1312.5" y="20.0" font-family="Times New Roman" fill="black" font-size="10.0">24</text></g>
<rect x="1360" y="10" width="50" height="50" fill="white" stroke-width="2.0" stroke="black"></rect>
<rect x="1410" y="10" width="50" height="50" fill="white" stroke-width="2.0" stroke="black"></rect>
<rect x="1460" y="10" width="50" height="50" fill="white" stroke-width="2.0" stroke="black"></rect>
<rect x="1510" y="10" width="50" height="50" fill="white" stroke-width="2.0" stroke="black"></rect>
<rect x="860" y="60" width="50" height="50" fill="white" stroke-width="2.0" stroke="black"></rect>
<rect x="1310" y="60" width="50" height="50" fill="white" stroke-width="2.0" stroke="black"></rect>
<g><rect x="810" y="110" width="50" height="50" fill="white" stroke-width="2.0" stroke="black"></rect><text x="812.5" y="120.0" font-family="Times New Roman" fill="black" font-size="10.0">35</text></g>
<rect x="860" y="110" width="50" height="50" fill="white" stroke-width="2.0" stroke="black"></rect>
<rect x="910" y="110" width="50" height="50" fill="white" stroke-width="2.0" stroke="black"></rect>
<rect x="960" y="110" width="50" height="50" fill="white" stroke-width="2.0" stroke="black"></rect>
<rect x="1010" y="110" width="50" height="50" fill="white" stroke-width="2.0" stroke="black"></rect>
<g><rect x="1060" y="110" width="50" height="50" fill="white" stroke-width="2.0" stroke="black"></rect><text x="1062.5" y="120.0" font-family="Times New Roman" fill="black" font-size="10.0">21</text></g>
<rect x="1110" y="110" width="50" height="50" fill="white" stroke-width="2.0" stroke="black"></rect>
<rect x="1160" y="110" width="50" height="50" fill="white" stroke-width="2.0" stroke="black"></rect>
<rect x="1210" y="110" width="50" height="50" fill="white" stroke-width="2.0" stroke="black"></rect>
<rect x="1310" y="110" width="50" height="50" fill="white" stroke-width="2.0" stroke="black"></rect>
<rect x="860" y="160" width="50" height="50" fill="white" stroke-width="2.0" stroke="black"></rect>
<rect x="1060" y="160" width="50" height="50" fill="white" stroke-width="2.0" stroke="black"></rect>
<rect x="1310" y="160" width="50" height="50" fill="white" stroke-width="2.0" stroke="black"></rect>
<g><rect x="60" y="210" width="50" height="50" fill="white" stroke-width="2.0" stroke="black"></rect><text x="62.5" y="220.0" font-family="Times New Roman" fill="black" font-size="10.0">27</text></g>
<rect x="110" y="210" width="50" height="50" fill="white" stroke-width="2.0" stroke="black"></rect>
<g><rect x="160" y="210" width="50" height="50" fill="white" stroke-width="2.0" stroke="black"></rect><text x="162.5" y="220.0" font-family="Times New Roman" fill="black" font-size="10.0">33</text></g>
<rect x="210" y="210" width="50" height="50" fill="white" stroke-width="2.0" stroke="black"></rect>
<rect x="260" y="210" width="50" height="50" fill="white" stroke-width="2.0" stroke="black"></rect>
<rect x="310" y="210" width="50" height="50" fill="white" stroke-width="2.0" stroke="black"></rect>
<rect x="860" y="210" width="50" height="50" fill="white" stroke-width="2.0" stroke="black"></rect>
<rect x="1060" y="210" width="50" height="50" fill="white" stroke-width="2.0" stroke="black"></rect>
<rect x="1310" y="210" width="50" height="50" fill="white" stroke-width="2.0" stroke="black"></rect>
<rect x="160" y="260" width="50" height="50" fill="white" stroke-width="2.0" stroke="black"></rect>
<g><rect x="760" y="260" width="50" height="50" fill="white" stroke-width="2.0" stroke="black"></rect><text x="762.5" y="270.0" font-family="Times New Roman" fill="black" font-size="10.0">36</text></g>
<rect x="860" y="260" width="50" height="50" fill="white" stroke-width="2.0" stroke="black"></rect>
<rect x="1060" y="260" width="50" height="50" fill="white" stroke-width="2.0" stroke="black"></rect>
<rect x="1310" y="260" width="50" height="50" fill="white" stroke-width="2.0" stroke="black"></rect>
<g><rect x="1560" y="260" width="50" height="50" fill="white" stroke-width="2.0" stroke="black"></rect><text x="1562.5" y="270.0" font-family="Times New Roman" fill="black" font-size="10.0">30</text></g>
<g><rect x="60" y="310" width="50" height="50" fill="white" stroke-width="2.0" stroke="black"></rect><text x="62.5" y="320.0" font-family="Times New Roman" fill="black" font-size="10.0">20</text></g>
<rect x="160" y="310" width="50" height="50" fill="white" stroke-width="2.0" stroke="black"></rect>
<g><rect x="260" y="310" width="50" height="50" fill="white" stroke-width="2.0" stroke="black"></rect><text x="262.5" y="320.0" font-family="Times New Roman" fill="black" font-size="10.0">5</text></g>
<g><rect x="610" y="310" width="50" height="50" fill="white" stroke-width="2.0" stroke="black"></rect><text x="612.5" y="320.0" font-family="Times New Roman" fill="black" font-size="10.0">34</text></g>
<rect x="760" y="310" width="50" height="50" fill="white" stroke-width="2.0" stroke="black"></rect>
<rect x="860" y="310" width="50" height="50" fill="white" stroke-width="2.0" stroke="black"></rect>
<rect x="1060" y="310" width="50" height="50" fill="white" stroke-width="2.0" stroke="black"></rect>
<rect x="1310" y="310" width="50" height="50" fill="white" stroke-width="2.0" stroke="black"></rect>
<rect x="1560" y="310" width="50" height="50" fill="white" stroke-width="2.0" stroke="black"></rect>
<g><rect x="10" y="360" width="50" height="50" fill="white" stroke-width="2.0" stroke="black"></rect><text x="12.5" y="370.0" font-family="Times New Roman" fill="black" font-size="10.0">3</text></g>
<rect x="60" y="360" width="50" height="50" fill="white" stroke-width="2.0" stroke="black"></rect>
<rect x="110" y="360" width="50" height="50" fill="white" stroke-width="2.0" stroke="black"></rect>
<rect x="160" y="360" width="50" height="50" fill="white" stroke-width="2.0" stroke="black"></rect>
<rect x="210" y="360" width="50" height="50" fill="white" stroke-width="2.0" stroke="black"></rect>
<rect x="260" y="360" width="50" height="50" fill="white" stroke-width="2.0" stroke="black"></rect>
<rect x="310" y="360" width="50" height="50" fill="white" stroke-width="2.0" stroke="black"></rect>
<rect x="360" y="360" width="50" height="50" fill="white" stroke-width="2.0" stroke="black"></rect>
<rect x="410" y="360" width="50" height="50" fill="white" stroke-width="2.0" stroke="black"></rect>
<rect x="460" y="360" width="50" height="50" fill="white" stroke-width="2.0" stroke="black"></rect>
<g><rect x="610" y="360" width="50" height="50" fill="white" stroke-width="2.0" stroke="black"></rect><text x="612.5" y="370.0" font-family="Times New Roman" fill="black" font-size="10.0">26</text></g>
<rect x="660" y="360" width="50" height="50" fill="white" stroke-width="2.0" stroke="black"></rect>
<rect x="710" y="360" width="50" height="50" fill="white" stroke-width="2.0" stroke="black"></rect>
<rect x="760" y="360" width="50" height="50" fill="white" stroke-width="2.0" stroke="black"></rect>
<rect x="810" y="360" width="50" height="50" fill="white" stroke-width="2.0" stroke="black"></rect>
<rect x="860" y="360" width="50" height="50" fill="white" stroke-width="2.0" stroke="black"></rect>
<rect x="910" y="360" width="50" height="50" fill="white" stroke-width="2.0" stroke="black"></rect>
<rect x="1060" y="360" width="50" height="50" fill="white" stroke-width="2.0" stroke="black"></rect>
<rect x="1310" y="360" width="50" height="50" fill="white" stroke-width="2.0" stroke="black"></rect>
<rect x="1560" y="360" width="50" height="50" fill="white" stroke-width="2.0" stroke="black"></rect>
<rect x="60" y="410" width="50" height="50" fill="white" stroke-width="2.0" stroke="black"></rect>
<rect x="160" y="410" width="50" height="50" fill="white" stroke-width="2.0" stroke="black"></rect>
<rect x="260" y="410" width="50" height="50" fill="white" stroke-width="2.0" stroke="black"></rect>
<rect x="610" y="410" width="50" height="50" fill="white" stroke-width="2.0" stroke="black"></rect>
<rect x="760" y="410" width="50" height="50" fill="white" stroke-width="2.0" stroke="black"></rect>
<rect x="860" y="410" width="50" height="50" fill="white" stroke-width="2.0" stroke="black"></rect>
<rect x="1060" y="410" width="50" height="50" fill="white" stroke-width="2.0" stroke="black"></rect>
<g><rect x="1160" y="410" width="50" height="50" fill="white" stroke-width="2.0" stroke="black"></rect><text x="1162.5" y="420.0" font-family="Times New Roman" fill="black" font-size="10.0">28</text></g>
<rect x="1210" y="410" width="50" height="50" fill="white" stroke-width="2.0" stroke="black"></rect>
<rect x="1260" y="410" width="50" height="50" fill="white" stroke-width="2.0" stroke="black"></rect>
<rect x="1310" y="410" width="50" height="50" fill="white" stroke-width="2.0" stroke="black"></rect>
<rect x="1360" y="410" width="50" height="50" fill="white" stroke-width="2.0" stroke="black"></rect>
<rect x="1410" y="410" width="50" height="50" fill="white" stroke-width="2.0" stroke="black"></rect>
<rect x="1460" y="410" width="50" height="50" fill="white" stroke-width="2.0" stroke="black"></rect>
<rect x="1510" y="410" width="50" height="50" fill="white" stroke-width="2.0" stroke="black"></rect>
<rect x="1560" y="410" width="50" height="50" fill="white" stroke-width="2.0" stroke="black"></rect>
<rect x="1610" y="410" width="50" height="50" fill="white" stroke-width="2.0" stroke="black"></rect>
<rect x="1660" y="410" width="50" height="50" fill="white" stroke-width="2.0" stroke="black"></rect>
<rect x="1710" y="410" width="50" height="50" fill="white" stroke-width="2.0" stroke="black"></rect>
<rect x="1760" y="410" width="50" height="50" fill="white" stroke-width="2.0" stroke="black"></rect>
<rect x="60" y="460" width="50" height="50" fill="white" stroke-width="2.0" stroke="black"></rect>
<rect x="160" y="460" width="50" height="50" fill="white" stroke-width="2.0" stroke="black"></rect>
<rect x="260" y="460" width="50" height="50" fill="white" stroke-width="2.0" stroke="black"></rect>
<rect x="610" y="460" width="50" height="50" fill="white" stroke-width="2.0" stroke="black"></rect>
<g><rect x="910" y="460" width="50" height="50" fill="white" stroke-width="2.0" stroke="black"></rect><text x="912.5" y="470.0" font-family="Times New Roman" fill="black" font-size="10.0">38</text></g>
<rect x="1060" y="460" width="50" height="50" fill="white" stroke-width="2.0" stroke="black"></rect>
<rect x="1310" y="460" width="50" height="50" fill="white" stroke-width="2.0" stroke="black"></rect>
<rect x="1560" y="460" width="50" height="50" fill="white" stroke-width="2.0" stroke="black"></rect>
<rect x="60" y="510" width="50" height="50" fill="white" stroke-width="2.0" stroke="black"></rect>
<rect x="260" y="510" width="50" height="50" fill="white" stroke-width="2.0" stroke="black"></rect>
<rect x="610" y="510" width="50" height="50" fill="white" stroke-width="2.0" stroke="black"></rect>
<rect x="910" y="510" width="50" height="50" fill="white" stroke-width="2.0" stroke="black"></rect>
<rect x="1560" y="510" width="50" height="50" fill="white" stroke-width="2.0" stroke="black"></rect>
<rect x="60" y="560" width="50" height="50" fill="white" stroke-width="2.0" stroke="black"></rect>
<g><rect x="160" y="560" width="50" height="50" fill="white" stroke-width="2.0" stroke="black"></rect><text x="162.5" y="570.0" font-family="Times New Roman" fill="black" font-size="10.0">7</text></g>
<rect x="210" y="560" width="50" height="50" fill="white" stroke-width="2.0" stroke="black"></rect>
<rect x="260" y="560" width="50" height="50" fill="white" stroke-width="2.0" stroke="black"></rect>
<rect x="310" y="560" width="50" height="50" fill="white" stroke-width="2.0" stroke="black"></rect>
<rect x="360" y="560" width="50" height="50" fill="white" stroke-width="2.0" stroke="black"></rect>
<rect x="410" y="560" width="50" height="50" fill="white" stroke-width="2.0" stroke="black"></rect>
<g><rect x="460" y="560" width="50" height="50" fill="white" stroke-width="2.0" stroke="black"></rect><text x="462.5" y="570.0" font-family="Times New Roman" fill="black" font-size="10.0">9</text></g>
<rect x="510" y="560" width="50" height="50" fill="white" stroke-width="2.0" stroke="black"></rect>
<rect x="560" y="560" width="50" height="50" fill="white" stroke-width="2.0" stroke="black"></rect>
<rect x="610" y="560" width="50" height="50" fill="white" stroke-width="2.0" stroke="black"></rect>
<rect x="660" y="560" width="50" height="50" fill="white" stroke-width="2.0" stroke="black"></rect>
<rect x="710" y="560" width="50" height="50" fill="white" stroke-width="2.0" stroke="black"></rect>
<rect x="760" y="560" width="50" height="50" fill="white" stroke-width="2.0" stroke="black"></rect>
<rect x="810" y="560" width="50" height="50" fill="white" stroke-width="2.0" stroke="black"></rect>
<rect x="910" y="560" width="50" height="50" fill="white" stroke-width="2.0" stroke="black"></rect>
<rect x="1560" y="560" width="50" height="50" fill="white" stroke-width="2.0" stroke="black"></rect>
<rect x="60" y="610" width="50" height="50" fill="white" stroke-width="2.0" stroke="black"></rect>
<rect x="260" y="610" width="50" height="50" fill="white" stroke-width="2.0" stroke="black"></rect>
<rect x="460" y="610" width="50" height="50" fill="white" stroke-width="2.0" stroke="black"></rect>
<rect x="910" y="610" width="50" height="50" fill="white" stroke-width="2.0" stroke="black"></rect>
<rect x="1560" y="610" width="50" height="50" fill="white" stroke-width="2.0" stroke="black"></rect>
<rect x="60" y="660" width="50" height="50" fill="white" stroke-width="2.0" stroke="black"></rect>
<rect x="260" y="660" width="50" height="50" fill="white" stroke-width="2.0" stroke="black"></rect>
<g><rect x="410" y="660" width="50" height="50" fill="white" stroke-width="2.0" stroke="black"></rect><text x="412.5" y="670.0" font-family="Times New Roman" fill="black" font-size="10.0">12</text></g>
<rect x="460" y="660" width="50" height="50" fill="white" stroke-width="2.0" stroke="black"></rect>
<rect x="510" y="660" width="50" height="50" fill="white" stroke-width="2.0" stroke="black"></rect>
<rect x="560" y="660" width="50" height="50" fill="white" stroke-width="2.0" stroke="black"></rect>
<g><rect x="610" y="660" width="50" height="50" fill="white" stroke-width="2.0" stroke="black"></rect><text x="612.5" y="670.0" font-family="Times New Roman" fill="black" font-size="10.0">25</text></g>
<rect x="660" y="660" width="50" height="50" fill="white" stroke-width="2.0" stroke="black"></rect>
<rect x="710" y="660" width="50" height="50" fill="white" stroke-width="2.0" stroke="black"></rect>
<rect x="760" y="660" width="50" height="50" fill="white" stroke-width="2.0" stroke="black"></rect>
<rect x="910" y="660" width="50" height="50" fill="white" stroke-width="2.0" stroke="black"></rect>
<rect x="1560" y="660" width="50" height="50" fill="white" stroke-width="2.0" stroke="black"></rect>
<rect x="60" y="710" width="50" height="50" fill="white" stroke-width="2.0" stroke="black"></rect>
<g><rect x="210" y="710" width="50" height="50" fill="white" stroke-width="2.0" stroke="black"></rect><text x="212.5" y="720.0" font-family="Times New Roman" fill="black" font-size="10.0">18</text></g>
<rect x="260" y="710" width="50" height="50" fill="white" stroke-width="2.0" stroke="black"></rect>
<rect x="310" y="710" width="50" height="50" fill="white" stroke-width="2.0" stroke="black"></rect>
<rect x="360" y="710" width="50" height="50" fill="white" stroke-width="2.0" stroke="black"></rect>
<rect x="610" y="710" width="50" height="50" fill="white" stroke-width="2.0" stroke="black"></rect>
<rect x="910" y="710" width="50" height="50" fill="white" stroke-width="2.0" stroke="black"></rect>
<rect x="60" y="760" width="50" height="50" fill="white" stroke-width="2.0" stroke="black"></rect>
<rect x="610" y="760" width="50" height="50" fill="white" stroke-width="2.0" stroke="black"></rect>
<rect x="910" y="760" width="50" height="50" fill="white" stroke-width="2.0" stroke="black"></rect>
<rect x="60" y="810" width="50" height="50" fill="white" stroke-width="2.0" stroke="black"></rect>
<g><rect x="260" y="810" width="50" height="50" fill="white" stroke-width="2.0" stroke="black"></rect><text x="262.5" y="820.0" font-family="Times New Roman" fill="black" font-size="10.0">31</text></g>
<rect x="310" y="810" width="50" height="50" fill="white" stroke-width="2.0" stroke="black"></rect>
<rect x="360" y="810" width="50" height="50" fill="white" stroke-width="2.0" stroke="black"></rect>
<rect x="410" y="810" width="50" height="50" fill="white" stroke-width="2.0" stroke="black"></rect>
<rect x="460" y="810" width="50" height="50" fill="white" stroke-width="2.0" stroke="black"></rect>
<rect x="510" y="810" width="50" height="50" fill="white" stroke-width="2.0" stroke="black"></rect>
<rect x="560" y="810" width="50" height="50" fill="white" stroke-width="2.0" stroke="black"></rect>
<rect x="610" y="810" width="50" height="50" fill="white" stroke-width="2.0" stroke="black"></rect>
<rect x="660" y="810" width="50" height="50" fill="white" stroke-width="2.0" stroke="black"></rect>
<rect x="710" y="810" width="50" height="50" fill="white" stroke-width="2.0" stroke="black"></rect>
<g><rect x="810" y="810" width="50" height="50" fill="white" stroke-width="2.0" stroke="black"></rect><text x="812.5" y="820.0" font-family="Times New Roman" fill="black" font-size="10.0">37</text></g>
<rect x="910" y="810" width="50" height="50" fill="white" stroke-width="2.0" stroke="black"></rect>
<rect x="60" y="860" width="50" height="50" fill="white" stroke-width="2.0" stroke="black"></rect>
<rect x="810" y="860" width="50" height="50" fill="white" stroke-width="2.0" stroke="black"></rect>
<rect x="910" y="860" width="50" height="50" fill="white" stroke-width="2.0" stroke="black"></rect>
<rect x="60" y="910" width="50" height="50" fill="white" stroke-width="2.0" stroke="black"></rect>
<g><rect x="210" y="910" width="50" height="50" fill="white" stroke-width="2.0" stroke="black"></rect><text x="212.5" y="920.0" font-family="Times New Roman" fill="black" font-size="10.0">13</text></g>
<g><rect x="260" y="910" width="50" height="50" fill="white" stroke-width="2.0" stroke="black"></rect><text x="262.5" y="920.0" font-family="Times New Roman" fill="black" font-size="10.0">10</text></g>
<rect x="310" y="910" width="50" height="50" fill="white" stroke-width="2.0" stroke="black"></rect>
<rect x="360" y="910" width="50" height="50" fill="white" stroke-width="2.0" stroke="black"></rect>
<rect x="410" y="910" width="50" height="50" fill="white" stroke-width="2.0" stroke="black"></rect>
<rect x="460" y="910" width="50" height="50" fill="white" stroke-width="2.0" stroke="black"></rect>
<rect x="510" y="910" width="50" height="50" fill="white" stroke-width="2.0" stroke="black"></rect>
<rect x="560" y="910" width="50" height="50" fill="white" stroke-width="2.0" stroke="black"></rect>
<g><rect x="710" y="910" width="50" height="50" fill="white" stroke-width="2.0" stroke="black"></rect><text x="712.5" y="920.0" font-family="Times New Roman" fill="black" font-size="10.0">22</text></g>
<rect x="760" y="910" width="50" height="50" fill="white" stroke-width="2.0" stroke="black"></rect>
<rect x="810" y="910" width="50" height="50" fill="white" stroke-width="2.0" stroke="black"></rect>
<rect x="860" y="910" width="50" height="50" fill="white" stroke-width="2.0" stroke="black"></rect>
<rect x="910" y="910" width="50" height="50" fill="white" stroke-width="2.0" stroke="black"></rect>
<rect x="960" y="910" width="50" height="50" fill="white" stroke-width="2.0" stroke="black"></rect>
<rect x="1010" y="910" width="50" height="50" fill="white" stroke-width="2.0" stroke="black"></rect>
<rect x="1060" y="910" width="50" height="50" fill="white" stroke-width="2.0" stroke="black"></rect>
<rect x="60" y="960" width="50" height="50" fill="white" stroke-width="2.0" stroke="black"></rect>
<rect x="260" y="960" width="50" height="50" fill="white" stroke-width="2.0" stroke="black"></rect>
<g><rect x="610" y="960" width="50" height="50" fill="white" stroke-width="2.0" stroke="black"></rect><text x="612.5" y="970.0" font-family="Times New Roman" fill="black" font-size="10.0">15</text></g>
<rect x="810" y="960" width="50" height="50" fill="white" stroke-width="2.0" stroke="black"></rect>
<rect x="910" y="960" width="50" height="50" fill="white" stroke-width="2.0" stroke="black"></rect>
<rect x="60" y="1010" width="50" height="50" fill="white" stroke-width="2.0" stroke="black"></rect>
<g><rect x="160" y="1010" width="50" height="50" fill="white" stroke-width="2.0" stroke="black"></rect><text x="162.5" y="1020.0" font-family="Times New Roman" fill="black" font-size="10.0">2</text></g>
<rect x="260" y="1010" width="50" height="50" fill="white" stroke-width="2.0" stroke="black"></rect>
<rect x="610" y="1010" width="50" height="50" fill="white" stroke-width="2.0" stroke="black"></rect>
<rect x="810" y="1010" width="50" height="50" fill="white" stroke-width="2.0" stroke="black"></rect>
<rect x="60" y="1060" width="50" height="50" fill="white" stroke-width="2.0" stroke="black"></rect>
<rect x="160" y="1060" width="50" height="50" fill="white" stroke-width="2.0" stroke="black"></rect>
<rect x="260" y="1060" width="50" height="50" fill="white" stroke-width="2.0" stroke="black"></rect>
<rect x="610" y="1060" width="50" height="50" fill="white" stroke-width="2.0" stroke="black"></rect>
<rect x="810" y="1060" width="50" height="50" fill="white" stroke-width="2.0" stroke="black"></rect>
<g><rect x="60" y="1110" width="50" height="50" fill="white" stroke-width="2.0" stroke="black"></rect><text x="62.5" y="1120.0" font-family="Times New Roman" fill="black" font-size="10.0">1</text></g>
<rect x="110" y="1110" width="50" height="50" fill="white" stroke-width="2.0" stroke="black"></rect>
<rect x="160" y="1110" width="50" height="50" fill="white" stroke-width="2.0" stroke="black"></rect>
<rect x="210" y="1110" width="50" height="50" fill="white" stroke-width="2.0" stroke="black"></rect>
<rect x="260" y="1110" width="50" height="50" fill="white" stroke-width="2.0" stroke="black"></rect>
<rect x="310" y="1110" width="50" height="50" fill="white" stroke-width="2.0" stroke="black"></rect>
<rect x="360" y="1110" width="50" height="50" fill="white" stroke-width="2.0" stroke="black"></rect>
<rect x="410" y="1110" width="50" height="50" fill="white" stroke-width="2.0" stroke="black"></rect>
<rect x="460" y="1110" width="50" height="50" fill="white" stroke-width="2.0" stroke="black"></rect>
<rect x="510" y="1110" width="50" height="50" fill="white" stroke-width="2.0" stroke="black"></rect>
<rect x="610" y="1110" width="50" height="50" fill="white" stroke-width="2.0" stroke="black"></rect>
<rect x="810" y="1110" width="50" height="50" fill="white" stroke-width="2.0" stroke="black"></rect>
<g><rect x="910" y="1110" width="50" height="50" fill="white" stroke-width="2.0" stroke="black"></rect><text x="912.5" y="1120.0" font-family="Times New Roman" fill="black" font-size="10.0">17</text></g>
<rect x="60" y="1160" width="50" height="50" fill="white" stroke-width="2.0" stroke="black"></rect>
<rect x="160" y="1160" width="50" height="50" fill="white" stroke-width="2.0" stroke="black"></rect>
<rect x="260" y="1160" width="50" height="50" fill="white" stroke-width="2.0" stroke="black"></rect>
<g><rect x="610" y="1160" width="50" height="50" fill="white" stroke-width="2.0" stroke="black"></rect><text x="612.5" y="1170.0" font-family="Times New Roman" fill="black" font-size="10.0">16</text></g>
<rect x="660" y="1160" width="50" height="50" fill="white" stroke-width="2.0" stroke="black"></rect>
<rect x="710" y="1160" width="50" height="50" fill="white" stroke-width="2.0" stroke="black"></rect>
<rect x="760" y="1160" width="50" height="50" fill="white" stroke-width="2.0" stroke="black"></rect>
<rect x="810" y="1160" width="50" height="50" fill="white" stroke-width="2.0" stroke="black"></rect>
<rect x="860" y="1160" width="50" height="50" fill="white" stroke-width="2.0" stroke="black"></rect>
<rect x="910" y="1160" width="50" height="50" fill="white" stroke-width="2.0" stroke="black"></rect>
<rect x="960" y="1160" width="50" height="50" fill="white" stroke-width="2.0" stroke="black"></rect>
<rect x="1010" y="1160" width="50" height="50" fill="white" stroke-width="2.0" stroke="black"></rect>
<g><rect x="1110" y="1160" width="50" height="50" fill="white" stroke-width="2.0" stroke="black"></rect><text x="1112.5" y="1170.0" font-family="Times New Roman" fill="black" font-size="10.0">19</text></g>
<rect x="160" y="1210" width="50" height="50" fill="white" stroke-width="2.0" stroke="black"></rect>
<rect x="260" y="1210" width="50" height="50" fill="white" stroke-width="2.0" stroke="black"></rect>
<rect x="610" y="1210" width="50" height="50" fill="white" stroke-width="2.0" stroke="black"></rect>
<rect x="810" y="1210" width="50" height="50" fill="white" stroke-width="2.0" stroke="black"></rect>
<rect x="910" y="1210" width="50" height="50" fill="white" stroke-width="2.0" stroke="black"></rect>
<rect x="1110" y="1210" width="50" height="50" fill="white" stroke-width="2.0" stroke="black"></rect>
<g><rect x="160" y="1260" width="50" height="50" fill="white" stroke-width="2.0" stroke="black"></rect><text x="162.5" y="1270.0" font-family="Times New Roman" fill="black" font-size="10.0">4</text></g>
<rect x="210" y="1260" width="50" height="50" fill="white" stroke-width="2.0" stroke="black"></rect>
<rect x="260" y="1260" width="50" height="50" fill="white" stroke-width="2.0" stroke="black"></rect>
<rect x="310" y="1260" width="50" height="50" fill="white" stroke-width="2.0" stroke="black"></rect>
<g><rect x="360" y="1260" width="50" height="50" fill="white" stroke-width="2.0" stroke="black"></rect><text x="362.5" y="1270.0" font-family="Times New Roman" fill="black" font-size="10.0">6</text></g>
<rect x="410" y="1260" width="50" height="50" fill="white" stroke-width="2.0" stroke="black"></rect>
<rect x="460" y="1260" width="50" height="50" fill="white" stroke-width="2.0" stroke="black"></rect>
<rect x="510" y="1260" width="50" height="50" fill="white" stroke-width="2.0" stroke="black"></rect>
<rect x="560" y="1260" width="50" height="50" fill="white" stroke-width="2.0" stroke="black"></rect>
<rect x="610" y="1260" width="50" height="50" fill="white" stroke-width="2.0" stroke="black"></rect>
<rect x="660" y="1260" width="50" height="50" fill="white" stroke-width="2.0" stroke="black"></rect>
<rect x="810" y="1260" width="50" height="50" fill="white" stroke-width="2.0" stroke="black"></rect>
<rect x="910" y="1260" width="50" height="50" fill="white" stroke-width="2.0" stroke="black"></rect>
<rect x="1110" y="1260" width="50" height="50" fill="white" stroke-width="2.0" stroke="black"></rect>
<rect x="160" y="1310" width="50" height="50" fill="white" stroke-width="2.0" stroke="black"></rect>
<rect x="260" y="1310" width="50" height="50" fill="white" stroke-width="2.0" stroke="black"></rect>
<rect x="360" y="1310" width="50" height="50" fill="white" stroke-width="2.0" stroke="black"></rect>
<rect x="610" y="1310" width="50" height="50" fill="white" stroke-width="2.0" stroke="black"></rect>
<rect x="910" y="1310" width="50" height="50" fill="white" stroke-width="2.0" stroke="black"></rect>
<rect x="1110" y="1310" width="50" height="50" fill="white" stroke-width="2.0" stroke="black"></rect>
<rect x="160" y="1360" width="50" height="50" fill="white" stroke-width="2.0" stroke="black"></rect>
<rect x="360" y="1360" width="50" height="50" fill="white" stroke-width="2.0" stroke="black"></rect>
<g><rect x="860" y="1360" width="50" height="50" fill="white" stroke-width="2.0" stroke="black"></rect><text x="862.5" y="1370.0" font-family="Times New Roman" fill="black" font-size="10.0">32</text></g>
<rect x="910" y="1360" width="50" height="50" fill="white" stroke-width="2.0" stroke="black"></rect>
<rect x="960" y="1360" width="50" height="50" fill="white" stroke-width="2.0" stroke="black"></rect>
<rect x="1010" y="1360" width="50" height="50" fill="white" stroke-width="2.0" stroke="black"></rect>
<rect x="1060" y="1360" width="50" height="50" fill="white" stroke-width="2.0" stroke="black"></rect>
<rect x="1110" y="1360" width="50" height="50" fill="white" stroke-width="2.0" stroke="black"></rect>
<rect x="1160" y="1360" width="50" height="50" fill="white" stroke-width="2.0" stroke="black"></rect>
<rect x="1210" y="1360" width="50" height="50" fill="white" stroke-width="2.0" stroke="black"></rect>
<rect x="360" y="1410" width="50" height="50" fill="white" stroke-width="2.0" stroke="black"></rect>
<g><rect x="310" y="1460" width="50" height="50" fill="white" stroke-width="2.0" stroke="black"></rect><text x="312.5" y="1470.0" font-family="Times New Roman" fill="black" font-size="10.0">8</text></g>
<rect x="360" y="1460" width="50" height="50" fill="white" stroke-width="2.0" stroke="black"></rect>
<rect x="410" y="1460" width="50" height="50" fill="white" stroke-width="2.0" stroke="black"></rect>
<rect x="460" y="1460" width="50" height="50" fill="white" stroke-width="2.0" stroke="black"></rect>
<rect x="510" y="1460" width="50" height="50" fill="white" stroke-width="2.0" stroke="black"></rect>
<rect x="560" y="1460" width="50" height="50" fill="white" stroke-width="2.0" stroke="black"></rect>
<rect x="610" y="1460" width="50" height="50" fill="white" stroke-width="2.0" stroke="black"></rect>
<rect x="660" y="1460" width="50" height="50" fill="white" stroke-width="2.0" stroke="black"></rect>
<rect x="360" y="1510" width="50" height="50" fill="white" stroke-width="2.0" stroke="black"></rect>
<rect x="360" y="1560" width="50" height="50" fill="white" stroke-width="2.0" stroke="black"></rect>
<g><rect x="510" y="1560" width="50" height="50" fill="white" stroke-width="2.0" stroke="black"></rect><text x="512.5" y="1570.0" font-family="Times New Roman" fill="black" font-size="10.0">14</text></g>
<g><rect x="260" y="1610" width="50" height="50" fill="white" stroke-width="2.0" stroke="black"></rect><text x="262.5" y="1620.0" font-family="Times New Roman" fill="black" font-size="10.0">11</text></g>
<rect x="310" y="1610" width="50" height="50" fill="white" stroke-width="2.0" stroke="black"></rect>
<rect x="360" y="1610" width="50" height="50" fill="white" stroke-width="2.0" stroke="black"></rect>
<rect x="410" y="1610" width="50" height="50" fill="white" stroke-width="2.0" stroke="black"></rect>
<rect x="460" y="1610" width="50" height="50" fill="white" stroke-width="2.0" stroke="black"></rect>
<rect x="510" y="1610" width="50" height="50" fill="white" stroke-width="2.0" stroke="black"></rect>
<rect x="560" y="1610" width="50" height="50" fill="white" stroke-width="2.0" stroke="black"></rect>
<rect x="610" y="1610" width="50" height="50" fill="white" stroke-width="2.0" stroke="black"></rect>
<rect x="660" y="1610" width="50" height="50" fill="white" stroke-width="2.0" stroke="black"></rect>
<rect x="710" y="1610" width="50" height="50" fill="white" stroke-width="2.0" stroke="black"></rect>
<rect x="360" y="1660" width="50" height="50" fill="white" stroke-width="2.0" stroke="black"></rect>
<rect x="510" y="1660" width="50" height="50" fill="white" stroke-width="2.0" stroke="black"></rect>
<rect x="360" y="1710" width="50" height="50" fill="white" stroke-width="2.0" stroke="black"></rect>
<rect x="510" y="1710" width="50" height="50" fill="white" stroke-width="2.0" stroke="black"></rect>
<rect x="360" y="1760" width="50" height="50" fill="white" stroke-width="2.0" stroke="black"></rect>
<rect x="360" y="1810" width="50" height="50" fill="white" stroke-width="2.0" stroke="black"></rect>
<rect x="360" y="1860" width="50" height="50" fill="white" stroke-width="2.0" stroke="black"></rect>
<rect x="360" y="1910" width="50" height="50" fill="white" stroke-width="2.0" stroke="black"></rect>
<rect x="360" y="1960" width="50" height="50" fill="white" stroke-width="2.0" stroke="black"></rect>
<rect x="360" y="2010" width="50" height="50" fill="white" stroke-width="2.0" stroke="black"></rect>
</svg>